<svg width="21" height="21" viewBox="0 0 21 21" fill="none" xmlns="http://www.w3.org/2000/svg">
<path d="M10.0399 0C10.343 0 10.6456 0 10.9486 0C10.9739 0.00413901 10.9988 0.0101176 11.0241 0.0128769C11.4094 0.0524274 11.7971 0.074962 12.1798 0.133828C13.1248 0.279613 14.0317 0.558766 14.8995 0.961629C16.2498 1.58846 17.4174 2.45995 18.3984 3.57978C19.4469 4.77687 20.1878 6.14183 20.6169 7.67464C20.8064 8.35206 20.9269 9.04143 20.9738 9.74368C20.9802 9.8421 20.9917 9.9396 21.0004 10.038C21.0004 10.3411 21.0004 10.6437 21.0004 10.9468C20.9963 10.9693 20.9889 10.9923 20.988 11.0153C20.9655 11.5308 20.9011 12.0413 20.8013 12.5472C20.5962 13.5902 20.2384 14.578 19.7302 15.5112C19.1604 16.5583 18.432 17.4822 17.5481 18.2834C16.7649 18.993 15.8952 19.5734 14.9373 20.0195C13.6942 20.5985 12.3872 20.9204 11.0167 20.9871C10.1958 21.0271 9.38133 20.9746 8.57423 20.8243C7.51556 20.6274 6.51116 20.2752 5.56103 19.7674C4.54329 19.2234 3.63961 18.5308 2.84952 17.6906C2.06587 16.8573 1.43398 15.9209 0.956154 14.8811C0.365656 13.5962 0.0515511 12.2459 0.00556213 10.8341C-0.0169725 10.1424 0.0290165 9.45441 0.142609 8.77102C0.296212 7.84618 0.567087 6.95721 0.960753 6.10687C1.58712 4.75388 2.46045 3.58438 3.58166 2.60206C4.77876 1.55351 6.14371 0.812625 7.67652 0.383548C8.35394 0.194073 9.04331 0.0735823 9.74557 0.0266736C9.84398 0.0202351 9.94194 0.00919779 10.0399 0ZM11.4099 13.6022C11.4467 13.6022 11.4748 13.6022 11.5028 13.6022C12.1085 13.6022 12.7142 13.6072 13.3194 13.5994C13.5332 13.5966 13.7507 13.5828 13.96 13.541C14.8048 13.3713 15.439 12.9105 15.8327 12.1365C16.0387 11.7309 16.1422 11.2981 16.161 10.8442C16.1794 10.3972 16.1813 9.95063 16.0732 9.51236C15.9251 8.91082 15.6381 8.39115 15.1516 7.99702C14.6342 7.57806 14.0336 7.38905 13.3732 7.38399C12.744 7.37939 12.1149 7.38307 11.4853 7.38307C11.4605 7.38307 11.4357 7.38307 11.4094 7.38307C11.4099 9.46039 11.4099 11.5267 11.4099 13.6022ZM8.85798 12.2938C9.00238 12.732 9.14541 13.1657 9.28798 13.5989C9.74373 13.5989 10.1949 13.5989 10.6529 13.5989C10.6437 13.5723 10.6364 13.5502 10.6281 13.529C10.4041 12.9284 10.1797 12.3278 9.95527 11.7272C9.42088 10.2965 8.88603 8.86621 8.35256 7.43504C8.33784 7.39595 8.32037 7.38123 8.2776 7.38169C7.91796 7.38353 7.55833 7.38353 7.1987 7.38169C7.15271 7.38123 7.13247 7.39779 7.1173 7.43872C6.93288 7.93816 6.74708 8.43714 6.56175 8.93658C6.04437 10.3305 5.52654 11.7244 5.00916 13.1184C4.9503 13.277 4.89143 13.4357 4.83118 13.5976C4.84774 13.5999 4.85648 13.6022 4.86568 13.6022C5.29153 13.6022 5.71739 13.6012 6.14325 13.604C6.19844 13.6045 6.2035 13.5713 6.21499 13.5359C6.3433 13.1441 6.47299 12.7527 6.59854 12.36C6.6151 12.3076 6.63763 12.2924 6.69144 12.2924C7.38955 12.2942 8.0872 12.2938 8.78532 12.2938C8.80923 12.2938 8.83268 12.2938 8.85798 12.2938Z" fill="white"/>
<path d="M12.6948 12.619C12.6948 11.1975 12.6948 9.79808 12.6948 8.38943C12.7298 8.38943 12.762 8.38943 12.7942 8.38943C13.0025 8.38989 13.2104 8.38667 13.4187 8.39081C14.0625 8.40461 14.5565 8.78816 14.74 9.40671C14.8232 9.68724 14.8692 9.97329 14.866 10.2649C14.8627 10.5505 14.8641 10.8379 14.8347 11.1212C14.7947 11.5043 14.6746 11.863 14.4144 12.161C14.2097 12.3955 13.9485 12.5386 13.6445 12.5726C13.3332 12.608 13.0181 12.6052 12.6948 12.619Z" fill="white"/>
<path d="M7.74646 8.91211C8.00584 9.70082 8.26522 10.4891 8.52644 11.2833C7.99986 11.2833 7.48295 11.2833 6.95361 11.2833C7.21345 10.4905 7.47237 9.7022 7.73083 8.91349C7.73589 8.91349 7.7414 8.91303 7.74646 8.91211Z" fill="white"/>
</svg>
