<svg width="24" height="24" viewBox="0 0 24 24" fill="none" xmlns="http://www.w3.org/2000/svg">
<mask id="mask0_747_3829" style="mask-type:alpha" maskUnits="userSpaceOnUse" x="0" y="0" width="24" height="24">
<rect width="24" height="24" fill="#C4C4C4"/>
</mask>
<g mask="url(#mask0_747_3829)">
<path d="M12 8.625C9.84948 8.625 8.10001 10.3745 8.10001 12.525C8.10001 14.6755 9.84948 16.425 12 16.425C14.1505 16.425 15.9 14.6755 15.9 12.525C15.9 10.3745 14.1505 8.625 12 8.625Z" fill="#49454F"/>
<path d="M20.1903 7H17.42L16.12 3.75H7.87997L6.57997 7H6.15V5.375H4.2V7H3.80967C2.9494 7 2.25 7.6994 2.25 8.55967V18.1043C2.25 18.9704 2.9546 19.675 3.82072 19.675H20.1793C21.0454 19.675 21.75 18.9704 21.75 18.1043V8.55967C21.75 7.6994 21.0506 7 20.1903 7ZM5.5 7H4.85V6.025H5.5V7ZM12 18.375C8.77437 18.375 6.15 15.7506 6.15 12.525C6.15 9.29937 8.77437 6.675 12 6.675C15.2256 6.675 17.85 9.29937 17.85 12.525C17.85 15.7506 15.2256 18.375 12 18.375ZM19.15 10.9C18.4331 10.9 17.85 10.3169 17.85 9.6C17.85 8.88305 18.4331 8.3 19.15 8.3C19.8669 8.3 20.45 8.88305 20.45 9.6C20.45 10.3169 19.8669 10.9 19.15 10.9Z" fill="#49454F"/>
</g>
</svg>
