<svg width="20" height="17" viewBox="0 0 20 17" fill="none" xmlns="http://www.w3.org/2000/svg">
<path d="M10.0005 5.40625C7.79482 5.40625 6.00049 7.20058 6.00049 9.40625C6.00049 11.6119 7.79482 13.4062 10.0005 13.4062C12.2062 13.4062 14.0005 11.6119 14.0005 9.40625C14.0005 7.20058 12.2062 5.40625 10.0005 5.40625Z" fill="#9D9D9D"/>
<path d="M18.4003 3.73958H15.559L14.2257 0.40625H5.77433L4.441 3.73958H4V2.07292H2V3.73958H1.59967C0.717333 3.73958 0 4.45692 0 5.33925V15.1286C0 16.0169 0.722667 16.7396 1.611 16.7396H18.389C19.2773 16.7396 20 16.0169 20 15.1286V5.33925C20 4.45692 19.2827 3.73958 18.4003 3.73958ZM3.33333 3.73958H2.66667V2.73958H3.33333V3.73958ZM10 15.4062C6.69167 15.4062 4 12.7146 4 9.40625C4 6.09792 6.69167 3.40625 10 3.40625C13.3083 3.40625 16 6.09792 16 9.40625C16 12.7146 13.3083 15.4062 10 15.4062ZM17.3333 7.73958C16.598 7.73958 16 7.14158 16 6.40625C16 5.67092 16.598 5.07292 17.3333 5.07292C18.0687 5.07292 18.6667 5.67092 18.6667 6.40625C18.6667 7.14158 18.0687 7.73958 17.3333 7.73958Z" fill="#9D9D9D"/>
</svg>
