<svg width="12" height="14" viewBox="0 0 12 14" fill="none" xmlns="http://www.w3.org/2000/svg">
<path d="M8.60555 0.600586H1.40138C1.08293 0.600586 0.777533 0.727087 0.552359 0.952261C0.327185 1.17744 0.200684 1.48284 0.200684 1.80128V10.2061H1.40138V1.80128H8.60555V0.600586ZM10.4066 3.00198H3.80277C3.48432 3.00198 3.17892 3.12848 2.95375 3.35365C2.72857 3.57883 2.60207 3.88423 2.60207 4.20267V12.6075C2.60207 12.926 2.72857 13.2314 2.95375 13.4566C3.17892 13.6817 3.48432 13.8082 3.80277 13.8082H10.4066C10.725 13.8082 11.0304 13.6817 11.2556 13.4566C11.4808 13.2314 11.6073 12.926 11.6073 12.6075V4.20267C11.6073 3.88423 11.4808 3.57883 11.2556 3.35365C11.0304 3.12848 10.725 3.00198 10.4066 3.00198ZM10.4066 12.6075H3.80277V4.20267H10.4066V12.6075Z" fill="#212121"/>
</svg>
