<svg width="15" height="17" viewBox="0 0 15 17" fill="none" xmlns="http://www.w3.org/2000/svg">
<g clip-path="url(#clip0_747_3840)">
<path d="M14.9995 9.55841V16.2614C14.9995 16.3316 14.9999 16.4018 14.9992 16.472C14.9951 16.8598 14.8602 16.9979 14.4732 16.998C10.3695 16.9988 6.26586 16.9978 2.1622 16.9949C1.22608 16.9929 0.531277 16.5654 0.156016 15.6773C0.0845735 15.5082 0.0501056 15.3203 0.0195671 15.1376C-0.00335418 15.0004 0.00363752 14.8576 0.00360274 14.7174C0.00293029 10.5704 0.00177174 6.42342 0.000125398 2.27646C-0.000500676 1.7771 0.0870775 1.31281 0.375767 0.900571C0.765881 0.343477 1.31192 0.0665066 1.97573 0.00785588C2.06791 -0.000287123 2.16105 0.000593544 2.25375 0.000593544C5.88212 0.000265952 9.51051 0.000265952 13.1389 0.000593544C13.2085 0.000593544 13.2784 -0.00158607 13.3474 0.00494238C13.6003 0.0288098 13.7444 0.185179 13.7528 0.441754C13.7551 0.511952 13.7542 0.582151 13.7542 0.652349C13.7542 4.75254 13.7542 8.85271 13.7542 12.9529C13.7542 13.0347 13.7561 13.1168 13.7514 13.1985C13.7493 13.299 13.7103 13.3951 13.6418 13.4681C13.5734 13.5411 13.4805 13.5859 13.3812 13.5936C13.3061 13.5995 13.2307 13.6011 13.1554 13.5985C9.52119 13.5987 5.88701 13.598 2.25281 13.5963C1.88826 13.5959 1.54552 13.648 1.26719 13.9012C0.913844 14.2227 0.775167 14.6283 0.862539 15.1026C0.958781 15.6251 1.27704 15.952 1.77525 16.0951C1.91139 16.1343 2.06266 16.1284 2.20697 16.1285C6.11355 16.1302 10.0202 16.1306 13.9268 16.1297C14.1734 16.1297 14.1746 16.1275 14.1746 15.8713C14.1748 11.5314 14.1749 7.19138 14.1749 2.85142C14.1749 2.75198 14.173 2.6524 14.1777 2.55307C14.1903 2.28713 14.3414 2.13595 14.5898 2.13669C14.8365 2.13739 14.9926 2.28983 14.9959 2.55749C15.0025 3.08398 14.9994 3.6103 14.9994 4.13671C14.9996 5.9438 14.9996 7.75104 14.9995 9.55841ZM0.841777 13.1272C1.04824 13.0357 1.2273 12.9416 1.41627 12.8768C1.60524 12.8121 1.67644 12.7138 1.67599 12.4996C1.66826 8.74471 1.66641 4.98979 1.67042 1.23485C1.67042 1.20562 1.67101 1.17634 1.67014 1.1471C1.66514 0.978067 1.62962 0.953466 1.48625 1.03237C1.0065 1.29642 0.827689 1.72673 0.827724 2.25543C0.828002 5.80569 0.828202 9.35591 0.828318 12.9061C0.828318 12.9734 0.836317 13.0407 0.841777 13.1272ZM7.70049 3.83419C8.41913 3.83419 9.13774 3.83419 9.85634 3.83419C10.1809 3.83419 10.5056 3.84009 10.8298 3.83005C11.1377 3.8205 11.3108 3.56351 11.2212 3.2691C11.1571 3.05875 11.0362 2.98802 10.7241 2.98792C8.71308 2.98722 6.70211 2.9874 4.69116 2.98848C4.616 2.98727 4.54096 2.99499 4.46758 3.01147C4.41145 3.02586 4.35907 3.05234 4.31405 3.08909C4.26902 3.12585 4.23241 3.172 4.20673 3.22438C4.18106 3.27677 4.16693 3.33414 4.16531 3.39256C4.16369 3.45097 4.17462 3.50906 4.19736 3.56281C4.28334 3.77077 4.44939 3.83483 4.65794 3.83451C5.67211 3.83299 6.68629 3.83288 7.70049 3.83419ZM7.70257 5.5319V5.53247C8.28162 5.53247 8.86067 5.53247 9.43972 5.53247C9.76399 5.53229 10.0883 5.53541 10.4125 5.52896C10.4974 5.53148 10.581 5.50692 10.6513 5.45876C10.7216 5.4106 10.7751 5.34129 10.8041 5.26069C10.8697 5.09832 10.8512 4.92448 10.7213 4.82673C10.5967 4.73746 10.4484 4.68795 10.2956 4.68461C8.57007 4.6752 6.8445 4.67787 5.11897 4.68019C5.0268 4.68173 4.93525 4.69562 4.8467 4.7215C4.68966 4.76534 4.61018 4.88173 4.5961 5.04206C4.56859 5.35167 4.7346 5.52994 5.06218 5.53092C5.9423 5.5338 6.82245 5.5319 7.70257 5.5319Z" fill="#49454F"/>
<path d="M7.7122 14.4336C9.53141 14.4336 11.3506 14.4337 13.1699 14.4338C13.2393 14.431 13.3089 14.4331 13.378 14.4401C13.6146 14.474 13.753 14.6353 13.7516 14.8684C13.7502 15.099 13.6074 15.2625 13.3736 15.2943C13.3045 15.3014 13.2349 15.3038 13.1654 15.3015C9.52698 15.3018 5.88855 15.3018 2.25013 15.3015C2.18642 15.3033 2.12266 15.3015 2.05914 15.2962C1.81122 15.2685 1.67452 15.1129 1.67484 14.8635C1.67515 14.6128 1.81167 14.4613 2.06349 14.4373C2.13246 14.4307 2.20245 14.4338 2.27194 14.4338C4.08537 14.4336 5.89879 14.4335 7.7122 14.4336Z" fill="#49454F"/>
</g>
<defs>
<clipPath id="clip0_747_3840">
<rect width="15" height="17" fill="white"/>
</clipPath>
</defs>
</svg>
