<svg width="15" height="18" viewBox="0 0 15 18" fill="none" xmlns="http://www.w3.org/2000/svg">
<path d="M14.9993 10.191V16.8939C14.9993 16.9641 14.9997 17.0343 14.999 17.1045C14.9949 17.4923 14.8601 17.6304 14.473 17.6305C10.3694 17.6314 6.26573 17.6303 2.16208 17.6274C1.22596 17.6254 0.531154 17.1979 0.155893 16.3098C0.0844512 16.1408 0.0499834 15.9529 0.019445 15.7701C-0.00347624 15.633 0.00351544 15.4901 0.00348066 15.3499C0.00280821 11.2029 0.00164967 7.05598 3.32787e-06 2.90902C-0.000622745 2.40966 0.0869553 1.94538 0.375644 1.53314C0.765757 0.976045 1.3118 0.699075 1.97561 0.640424C2.06778 0.632281 2.16093 0.633162 2.25362 0.633162C5.88199 0.632834 9.51037 0.632834 13.1388 0.633162C13.2083 0.633162 13.2782 0.630982 13.3473 0.637511C13.6001 0.661378 13.7442 0.817747 13.7527 1.07432C13.755 1.14452 13.754 1.21472 13.754 1.28492C13.754 5.3851 13.754 9.48525 13.754 13.5854C13.754 13.6673 13.756 13.7493 13.7513 13.8311C13.7492 13.9316 13.7101 14.0277 13.6417 14.1007C13.5732 14.1737 13.4803 14.2184 13.381 14.2261C13.3059 14.232 13.2305 14.2336 13.1552 14.231C9.52104 14.2312 5.88687 14.2305 2.25268 14.2289C1.88813 14.2284 1.54539 14.2805 1.26707 14.5337C0.91372 14.8552 0.775044 15.2609 0.862415 15.7351C0.958657 16.2576 1.27691 16.5845 1.77513 16.7277C1.91126 16.7668 2.06253 16.761 2.20684 16.761C6.11342 16.7627 10.02 16.7631 13.9266 16.7622C14.1733 16.7622 14.1745 16.7601 14.1745 16.5039C14.1746 12.1639 14.1747 7.82393 14.1747 3.48398C14.1747 3.38454 14.1729 3.28497 14.1776 3.18563C14.1901 2.91969 14.3412 2.76852 14.5896 2.76925C14.8364 2.76995 14.9925 2.92239 14.9958 3.19006C15.0024 3.71654 14.9993 4.24285 14.9993 4.76927C14.9995 6.57636 14.9995 8.38359 14.9993 10.191ZM0.841653 13.7597C1.04812 13.6683 1.22717 13.5741 1.41614 13.5094C1.60511 13.4446 1.67631 13.3463 1.67586 13.1322C1.66814 9.37725 1.66628 5.62234 1.67029 1.86742C1.67029 1.83818 1.67089 1.80891 1.67002 1.77967C1.66501 1.61063 1.62949 1.58603 1.48612 1.66493C1.00638 1.92898 0.827565 2.3593 0.8276 2.888C0.827878 6.43824 0.828078 9.98846 0.828194 13.5386C0.828194 13.6059 0.836193 13.6732 0.841653 13.7597V13.7597ZM7.70035 4.46675C8.41899 4.46675 9.1376 4.46675 9.85619 4.46675C10.1807 4.46675 10.5055 4.47265 10.8297 4.46261C11.1376 4.45306 11.3106 4.19607 11.221 3.90166C11.157 3.69131 11.0361 3.62058 10.7239 3.62048C8.71294 3.61978 6.70197 3.61996 4.69102 3.62104C4.61586 3.61983 4.54082 3.62755 4.46745 3.64403C4.41132 3.65842 4.35894 3.6849 4.31392 3.72165C4.26889 3.75841 4.23228 3.80456 4.2066 3.85694C4.18093 3.90933 4.1668 3.9667 4.16518 4.02512C4.16356 4.08353 4.17449 4.14162 4.19723 4.19537C4.28321 4.40333 4.44926 4.46738 4.65781 4.46707C5.67198 4.46555 6.68616 4.46544 7.70035 4.46675V4.46675ZM7.70243 6.16446V6.16502C8.28148 6.16502 8.86053 6.16502 9.43958 6.16502C9.76385 6.16484 10.0882 6.16797 10.4123 6.16151C10.4973 6.16404 10.5808 6.13948 10.6511 6.09131C10.7214 6.04315 10.7749 5.97384 10.8039 5.89325C10.8696 5.73088 10.851 5.55704 10.7211 5.45929C10.5965 5.37001 10.4482 5.32051 10.2954 5.31717C8.56993 5.30776 6.84436 5.31043 5.11884 5.31275C5.02667 5.31429 4.93511 5.32818 4.84657 5.35406C4.68953 5.3979 4.61005 5.51428 4.59596 5.67461C4.56845 5.98422 4.73447 6.1625 5.06204 6.16348C5.94216 6.16636 6.82231 6.16446 7.70243 6.16446V6.16446Z" fill="#9D9D9D"/>
<path d="M7.71216 15.0664C9.53136 15.0664 11.3506 15.0665 13.1698 15.0666C13.2393 15.0638 13.3088 15.066 13.378 15.073C13.6145 15.1068 13.7529 15.2681 13.7515 15.5012C13.7502 15.7318 13.6074 15.8953 13.3736 15.9271C13.3044 15.9342 13.2348 15.9366 13.1654 15.9343C9.52693 15.9346 5.88851 15.9346 2.2501 15.9343C2.18639 15.9361 2.12263 15.9343 2.05911 15.929C1.81119 15.9013 1.67449 15.7457 1.67481 15.4964C1.67512 15.2456 1.81164 15.0941 2.06346 15.0701C2.13243 15.0635 2.20241 15.0666 2.27191 15.0666C4.08534 15.0664 5.89875 15.0663 7.71216 15.0664Z" fill="#9D9D9D"/>
</svg>
