<svg width="72" height="62" viewBox="0 0 72 62" fill="none" xmlns="http://www.w3.org/2000/svg">
<g opacity="0.15">
<path d="M12.0374 30.2642L16.5983 36.5312C16.6738 36.6346 16.7941 36.6943 16.9218 36.6901L24.6602 36.479C24.9805 36.4705 25.172 36.834 24.9837 37.0941L20.4441 43.376C20.3696 43.4794 20.3504 43.6126 20.393 43.7331L22.9852 51.0405C23.0927 51.3432 22.8064 51.6375 22.5021 51.5394L15.1351 49.1548C15.0138 49.1153 14.8807 49.1388 14.7807 49.2166L8.64383 53.9443C8.3895 54.1404 8.02131 53.9592 8.02131 53.6373L8.00854 45.8821C8.00854 45.7542 7.94575 45.6348 7.8404 45.5634L1.45557 41.1779C1.1906 40.9967 1.24913 40.5895 1.55454 40.4893L8.91305 38.0801C9.03437 38.0407 9.12801 37.9437 9.16419 37.8211L11.3553 30.3825C11.4436 30.0745 11.8479 30.0041 12.0374 30.2642Z" fill="#FDA4BD"/>
<path d="M37.6614 46.8662L38.1104 51.5491C38.1179 51.6259 38.1626 51.6952 38.2296 51.7325L42.3351 54.0169C42.5053 54.1118 42.4926 54.3602 42.3148 54.438L38.0072 56.3131C37.9359 56.344 37.8848 56.408 37.8699 56.4836L36.9697 61.1015C36.9324 61.2923 36.6919 61.3584 36.5632 61.2124L33.4516 57.6882C33.4006 57.6307 33.3239 57.6008 33.2473 57.6104L28.5853 58.1796C28.3917 58.2031 28.2555 57.9952 28.3544 57.8268L30.7392 53.7739C30.7785 53.7067 30.7828 53.6257 30.7498 53.5554L28.7684 49.2892C28.6864 49.1123 28.8418 48.9183 29.0323 48.9609L33.6176 49.98C33.6932 49.997 33.7719 49.9757 33.8283 49.9224L37.2655 46.717C37.4102 46.5837 37.6422 46.6722 37.6614 46.8662Z" fill="#FAD5E0"/>
<path d="M36.7389 61.3978C36.6431 61.3978 36.5506 61.3573 36.4846 61.2827L33.373 57.7585C33.3454 57.7265 33.3028 57.7105 33.2613 57.7158L28.5993 58.2851C28.4706 58.3011 28.3439 58.2424 28.2726 58.1326C28.2013 58.0228 28.1981 57.8842 28.2641 57.7723L30.6488 53.7194C30.6701 53.6832 30.6723 53.6384 30.6542 53.6L28.6727 49.3339C28.6174 49.2156 28.6344 49.078 28.7164 48.9757C28.7983 48.8734 28.9281 48.8275 29.0558 48.8563L33.6412 49.8754C33.6827 49.8839 33.7253 49.8722 33.7561 49.8434L37.1933 46.638C37.2891 46.5484 37.4242 46.5218 37.5466 46.5687C37.669 46.6156 37.753 46.7254 37.7647 46.8554L38.2138 51.5384C38.2181 51.581 38.2425 51.6183 38.2798 51.6386L42.3852 53.923C42.5002 53.987 42.5672 54.1074 42.5608 54.2385C42.5544 54.3697 42.4757 54.4837 42.3554 54.536L38.0478 56.411C38.0095 56.4281 37.9808 56.4633 37.9733 56.5048L37.073 61.1228C37.0475 61.2517 36.9539 61.353 36.8283 61.3871C36.7996 61.3946 36.7687 61.3978 36.7389 61.3978ZM33.2773 57.5016C33.3741 57.5016 33.4677 57.5431 33.5327 57.6167L36.6442 61.1409C36.6772 61.1782 36.7261 61.1931 36.774 61.1793C36.8219 61.1665 36.857 61.1291 36.8666 61.0801L37.7669 56.4622C37.7882 56.3514 37.8626 56.2597 37.9659 56.2138L42.2735 54.3387C42.3193 54.3185 42.348 54.2769 42.3501 54.2268C42.3522 54.1767 42.3278 54.133 42.2841 54.1085L38.1787 51.8241C38.0808 51.7697 38.0159 51.6695 38.0042 51.5576L37.5551 46.8746C37.5498 46.8245 37.52 46.784 37.4732 46.767C37.4263 46.7488 37.3763 46.7584 37.3401 46.7925L33.903 49.998C33.821 50.0748 33.7061 50.1057 33.5965 50.0811L29.0111 49.0621C28.9622 49.0514 28.9143 49.0685 28.8834 49.1068C28.8526 49.1463 28.8462 49.1964 28.8675 49.2411L30.8489 53.5073C30.8968 53.6096 30.8904 53.7279 30.834 53.8249L28.4493 57.8779C28.4237 57.9205 28.4248 57.9717 28.4525 58.0132C28.4801 58.0548 28.527 58.0761 28.5748 58.0708L33.2368 57.5016C33.2496 57.5026 33.2634 57.5016 33.2773 57.5016Z" fill="#F7A4C0"/>
<path d="M3.99219 57.5809C4.00176 57.566 4.01241 57.5511 4.02305 57.5361C4.01241 57.55 4.00283 57.5649 3.99219 57.5809Z" fill="#FDA4BD"/>
<path d="M4.02637 57.5318C4.03509 57.5209 4.04272 57.5099 4.05145 57.499C4.04382 57.5088 4.03509 57.5198 4.02637 57.5318Z" fill="#FDA4BD"/>
<path d="M4.07617 57.4707C4.07747 57.4694 4.07876 57.4681 4.08006 57.4668C4.07876 57.4681 4.07747 57.4694 4.07617 57.4707Z" fill="#FDA4BD"/>
<path d="M3.715 56.7543C3.66924 56.7458 3.63306 56.7607 3.61816 56.798C3.63306 56.7607 3.66924 56.7458 3.715 56.7543Z" fill="#FDA4BD"/>
<path d="M4.19336 57.8527C4.33808 57.8346 4.44343 57.6235 4.3849 57.4434C4.43705 57.6363 4.33383 57.8356 4.19336 57.8527Z" fill="#FDA4BD"/>
<path d="M2.506 58.9004C2.46876 58.9249 2.43258 58.9313 2.39746 58.9281L2.50175 58.9558C2.51664 58.9601 2.53048 58.9675 2.54218 58.9782C2.53367 58.9558 2.51558 58.9238 2.506 58.9004Z" fill="#FDA4BD"/>
<path d="M2.29288 58.901C2.24074 58.8807 2.19073 58.8584 2.13965 58.8605L2.29288 58.901Z" fill="#FDA4BD"/>
<path d="M6.04492 59.1485L6.38119 59.1389C6.41205 59.0835 6.42269 59.011 6.42163 58.9428C6.42163 58.93 6.41843 58.9151 6.41524 58.8991L6.25881 58.7051C6.1524 58.8351 6.08323 58.9812 6.04492 59.1485Z" fill="#FDA4BD"/>
<path d="M5.85408 58.8063C5.89346 58.9043 5.85515 58.9726 5.75937 58.9939C5.67956 59.012 5.6519 58.9598 5.66999 58.8841C5.59337 58.8574 5.52313 58.8212 5.47312 58.754C5.40502 58.882 5.47951 59.028 5.44865 59.1644L5.76044 59.1559C5.77427 59.1431 5.78704 59.1303 5.79875 59.1165C5.92751 58.9587 6.06159 58.8041 6.1978 58.6517C6.20099 58.6485 6.20525 58.6464 6.20844 58.6442L5.89984 58.2637C5.89452 58.2711 5.88813 58.2775 5.88281 58.285C5.75937 58.4492 5.7051 58.6229 5.85408 58.8063Z" fill="#FDA4BD"/>
<path d="M5.38787 57.7155C5.34211 57.7475 5.29635 57.7794 5.25059 57.8114C5.17398 57.95 5.31231 58.0385 5.33679 58.1547C5.34956 58.2186 5.4166 58.1675 5.4432 58.1365C5.4879 58.0854 5.52195 58.0246 5.56451 57.9628C5.62517 58.192 5.61134 58.2229 5.42192 58.29C5.40809 58.2943 5.38042 58.2965 5.37935 58.3018C5.34849 58.499 5.18249 58.6216 5.10906 58.7793C5.04628 58.9137 4.97817 59.0469 4.91113 59.1812L5.44959 59.1663C5.48045 59.0299 5.40596 58.8827 5.47406 58.7559C5.49109 58.7132 5.50918 58.6695 5.5262 58.6269C5.61772 58.4521 5.65177 58.2506 5.7518 58.0811L5.44001 57.6963C5.42405 57.7016 5.40702 57.7091 5.38787 57.7155Z" fill="#FDA4BD"/>
<path d="M5.79905 59.1168C5.78735 59.1317 5.77351 59.1445 5.76074 59.1562L6.04487 59.1487C6.08318 58.9814 6.15235 58.8353 6.25876 58.7064L6.20874 58.6445C6.20555 58.6467 6.2013 58.6488 6.1981 58.652C6.06189 58.8044 5.92888 58.959 5.79905 59.1168Z" fill="#FDA4BD"/>
<path d="M4.53924 58.9843C4.59351 58.9086 4.62757 58.9374 4.66694 59.0141C4.69993 59.077 4.94894 58.9342 4.91382 58.8607C4.86274 58.7498 5.11494 58.5408 4.79464 58.5089C4.71163 58.5003 4.84465 58.3511 4.82975 58.2541C4.8223 58.2051 4.88083 58.1411 4.9383 58.1624C5.05216 58.2029 4.88083 58.2562 4.94042 58.3053C5.12771 58.2285 5.14687 58.1933 5.07451 58.0281C5.03832 57.9471 5.01385 57.8682 5.06067 57.7851C5.0213 57.7051 4.9085 57.703 4.87977 57.6113C4.83188 57.5644 4.82018 57.509 4.84572 57.4471C4.7957 57.3693 4.74249 57.3203 4.63502 57.3011C4.45092 57.267 4.5701 57.3832 4.55308 57.4301C4.48072 57.6252 4.47752 57.8565 4.23596 57.9609C4.48817 58.0729 4.47007 58.0878 4.28491 58.2701C4.11465 58.4385 4.07528 58.6911 4.00611 58.9171C4.13061 58.9107 4.07634 58.9822 4.05719 59.0376C4.1785 58.9928 4.12742 58.8873 4.1487 58.8031C4.17531 58.6976 4.22745 58.5984 4.27959 58.4673C4.36472 58.5739 4.35515 58.657 4.32216 58.6997C4.24661 58.7988 4.24554 58.8873 4.28598 58.9982C4.31684 59.0824 4.27853 59.1719 4.2051 59.2199C4.13274 59.2668 4.05719 59.2412 4.00611 59.1677C3.99866 59.1805 3.9944 59.2007 3.9827 59.206C3.73795 59.3318 3.6443 59.5525 3.59961 59.8062C3.84862 59.7678 4.01356 59.6495 4.04335 59.3777C4.04868 59.3233 4.16254 59.3052 4.17212 59.3489C4.18701 59.415 4.23809 59.4288 4.28598 59.4459L4.42325 59.2348C4.44028 59.2082 4.46901 59.1922 4.50093 59.1911H4.50306C4.45624 59.1527 4.49668 59.0429 4.53924 58.9843ZM4.75207 57.9492C4.68397 57.9012 4.60522 57.8469 4.63608 57.7467C4.65949 57.6721 4.72121 57.6998 4.77016 57.72C4.85316 57.7531 4.89041 57.8117 4.86061 57.897C4.83827 57.9514 4.80102 57.9833 4.75207 57.9492Z" fill="#FDA4BD"/>
<path d="M2.57018 55.3751C2.56593 55.4817 2.57444 55.5777 2.52868 55.6917C2.46803 55.8452 2.59998 55.9668 2.76705 56.0073C2.76279 55.9412 2.7596 55.8751 2.75321 55.777C2.87665 55.858 2.95646 56.0296 3.11183 55.8953C3.03308 55.7834 3.04585 55.7088 3.11077 55.6555L2.59891 55.3037C2.59253 55.3261 2.58189 55.3506 2.57018 55.3751Z" fill="#FDA4BD"/>
<path d="M2.33167 55.7706C2.26463 55.6128 2.47639 55.5158 2.41999 55.3591C2.39658 55.2952 2.40616 55.2419 2.46149 55.2088L2.22312 55.0447C2.2178 55.0415 2.21248 55.0393 2.2061 55.0361C2.21035 55.0916 2.21567 55.1534 2.19971 55.1992C2.16885 55.2898 2.14438 55.3634 2.08691 55.3879L2.12309 56.0701C2.14225 56.0542 2.15395 56.0296 2.16672 56.0062C2.21035 55.9198 2.13267 55.7482 2.33167 55.7706Z" fill="#FDA4BD"/>
<path d="M2.20005 55.2004C2.21601 55.1546 2.20963 55.0917 2.20643 55.0374C2.14365 55.0096 2.06916 55.0565 2.07342 55.1301L2.08725 55.3891C2.14471 55.3635 2.16919 55.2911 2.20005 55.2004Z" fill="#FDA4BD"/>
<path d="M4.9873 55.8471C5.06712 55.8748 5.09159 55.814 5.12884 55.7639C5.20545 55.6627 5.29697 55.7138 5.37572 55.7575C5.47894 55.8151 5.42467 55.8844 5.37465 55.9462C5.34486 55.9825 5.30442 56.023 5.33953 56.0667C5.38849 56.1274 5.42892 56.0528 5.47255 56.0475C5.563 56.0358 5.63004 56.0017 5.6907 55.9484L5.75029 55.7437C5.74497 55.7416 5.74072 55.7416 5.73539 55.7384C5.6907 55.717 5.67048 55.6648 5.69815 55.6222C5.72475 55.5827 5.76306 55.5539 5.80563 55.5401C5.80563 55.5124 5.79499 55.4878 5.77583 55.4697C5.72688 55.5422 5.66729 55.5955 5.60983 55.603C5.5513 55.6115 5.50448 55.571 5.45446 55.5348L5.05328 55.6893C5.03306 55.7437 5.00859 55.7949 4.9873 55.8471Z" fill="#FDA4BD"/>
<path d="M2.91237 59.1743C2.94323 59.2073 2.97834 59.2372 3.0124 59.2681C3.07092 59.1263 3.21032 59.1722 3.31461 59.1381C3.22735 59.0624 3.21245 58.8183 3.2912 58.7511C3.32206 58.7244 3.3593 58.7138 3.39655 58.7298C3.45295 58.7522 3.45614 58.8055 3.42847 58.8428C3.36995 58.9195 3.36675 59.0133 3.3327 59.0965C3.55617 59.1178 3.48381 59.2169 3.39229 59.3214C3.53595 59.364 3.49232 59.4557 3.45295 59.5474C3.56043 59.5026 3.55085 59.3854 3.5998 59.3054C3.50722 59.1945 3.49339 59.105 3.6562 59.0421C3.70196 59.024 3.74346 58.975 3.76793 58.9302C3.88818 58.7085 4.00736 58.4846 4.11697 58.2565C4.14251 58.2021 4.17337 58.1072 4.07547 58.0849C3.98715 58.0657 3.95203 58.1413 3.95416 58.217C3.95841 58.3769 3.90414 58.4089 3.77006 58.3226C3.73707 58.3012 3.65939 58.2789 3.67003 58.3535C3.68919 58.4825 3.63172 58.4601 3.55511 58.4334C3.46678 58.4036 3.4306 58.3545 3.46891 58.2575C3.50935 58.1509 3.57639 58.087 3.69132 58.0944C3.7956 58.1008 3.8818 58.0785 3.98289 57.9601C3.81901 57.975 3.69664 57.9239 3.57639 57.9921C3.37633 57.991 3.28694 58.0955 3.28588 58.2906C3.28481 58.362 3.26247 58.4292 3.20926 58.4793C3.17521 58.5112 3.11242 58.5848 3.09965 58.4782C3.07837 58.3055 2.86767 58.5038 2.86342 58.3471C2.86022 58.2213 3.04538 58.2309 3.05815 58.1115C3.06773 58.0166 3.10604 57.9367 3.14116 57.8503C3.2199 57.6542 3.321 57.6521 3.45614 57.7906C3.55298 57.7693 3.63598 57.7288 3.67216 57.6275C3.70089 57.5561 3.73069 57.4836 3.75942 57.4122C3.84562 57.2949 3.76048 57.1404 3.84881 56.9922C3.90414 57.1063 3.90946 57.2406 4.05099 57.2395C4.05738 57.2395 4.06376 57.1713 4.06909 57.135C4.01375 57.0785 4.0063 57.0125 4.0478 56.9474C4.08079 56.8952 4.10952 56.9421 4.13719 56.9613C4.14357 56.9474 4.1489 56.9325 4.15528 56.9197C4.18614 56.8856 4.21594 56.8504 4.24573 56.8163C4.44153 56.5957 4.36492 56.4677 4.05951 56.4112C4.1457 56.3387 4.21487 56.2791 4.28511 56.2194C4.3032 56.1863 4.34257 56.1479 4.33512 56.1223C4.32022 56.068 4.27234 56.1032 4.24041 56.1138C4.05951 56.1746 3.83178 56.1906 3.90521 56.488C3.92011 56.5488 3.84881 56.5679 3.79241 56.5722C3.78709 56.5775 3.77645 56.5861 3.77751 56.5882C3.93075 56.8835 3.58597 57.0476 3.58703 57.3067C3.58703 57.3909 3.5285 57.4804 3.41996 57.3749C3.38272 57.3429 3.404 57.2502 3.32632 57.2672C3.23267 57.2864 3.13796 57.3131 3.0539 57.3568C3.01346 57.3781 3.0539 57.4229 3.08901 57.4421C3.13796 57.4687 3.20288 57.538 3.17202 57.5582C2.98154 57.6872 3.0092 57.9751 2.78786 58.0753C2.67932 58.1318 2.55694 58.1723 2.57184 58.3354C2.5761 58.3844 2.53353 58.4196 2.48245 58.4281C2.42499 58.4366 2.37285 58.4217 2.34305 58.3684C2.31751 58.3215 2.30049 58.2703 2.2792 58.2213C2.25047 58.2096 2.22174 58.1989 2.19301 58.1872C2.17811 58.2224 2.15683 58.2511 2.11533 58.2565C2.08979 58.3343 2.05361 58.4057 1.98444 58.4537C1.75778 58.4633 1.56197 58.2949 1.32893 58.3407C1.30871 58.3492 1.28849 58.3577 1.26827 58.3652C1.25125 58.3897 1.21507 58.4249 1.22145 58.4366C1.27572 58.5358 1.26614 58.5859 1.22996 58.6157L1.65881 58.7308C1.69925 58.6903 1.72904 58.6445 1.71627 58.5763C1.81418 58.5901 1.9142 58.5944 2.00891 58.62C2.1249 58.6509 2.17917 58.717 2.04722 58.8023C2.03552 58.8097 2.02594 58.8183 2.0153 58.8268L2.1398 58.8598C2.18982 58.8577 2.24089 58.8812 2.29304 58.9003L2.39839 58.9281C2.4335 58.9302 2.46968 58.9238 2.50693 58.9003C2.51651 58.9238 2.53566 58.9558 2.54311 58.9792C2.55375 58.9899 2.56333 59.0027 2.56865 59.0176L2.63463 59.2031C2.72082 59.1061 2.80276 59.0602 2.91237 59.1743Z" fill="#FDA4BD"/>
<path d="M0.653809 58.4613L0.941126 58.5381C0.960281 58.5274 0.986884 58.5157 1.022 58.5029C1.10713 58.472 1.10394 58.3792 1.14012 58.3132C1.1199 58.1714 1.16566 58.0562 1.27846 57.9678C1.30081 57.9113 1.28378 57.8708 1.22738 57.8462C1.21993 57.843 1.21355 57.842 1.20716 57.8398L0.855995 58.1095C0.833648 58.1405 0.809173 58.1692 0.778313 58.1938C0.793211 58.1778 0.803853 58.1618 0.811302 58.1437L0.619757 58.2918C0.558037 58.3409 0.577191 58.4411 0.653809 58.4613Z" fill="#FDA4BD"/>
<path d="M2.00928 58.6189C1.91564 58.5933 1.81454 58.5891 1.71664 58.5752C1.72941 58.6445 1.69962 58.6893 1.65918 58.7298L2.0146 58.8246C2.02418 58.815 2.03482 58.8076 2.04653 58.8001C2.17848 58.7148 2.12527 58.6498 2.00928 58.6189Z" fill="#FDA4BD"/>
<path d="M3.58861 59.9526C3.56201 59.9771 3.53115 59.9995 3.5088 60.0272C3.48432 60.0581 3.45985 60.0954 3.41941 60.0602C3.37897 60.0261 3.37578 59.9781 3.41728 59.9419C3.47368 59.8929 3.53647 59.8513 3.59712 59.8055C3.64182 59.5518 3.73546 59.3311 3.98021 59.2053C3.99192 59.1989 3.99617 59.1797 4.00362 59.1669C3.96638 59.1008 3.9834 59.0582 4.05577 59.0369C4.07492 58.9814 4.12919 58.91 4.00469 58.9164C3.94722 58.9761 3.8887 59.0369 3.83123 59.0976C3.79186 59.1659 3.79824 59.265 3.70141 59.2959C3.66736 59.2991 3.63224 59.3023 3.59819 59.3055C3.54924 59.3865 3.55881 59.5027 3.45133 59.5475C3.27788 59.8001 3.19169 60.0986 3.0459 60.3662L3.09485 60.5048C3.16508 60.4227 3.24702 60.3534 3.37897 60.3417C3.41835 60.3385 3.45666 60.299 3.49922 60.3331C3.57371 60.3939 3.54711 60.4866 3.55988 60.5623L3.65139 60.4206C3.66736 60.3779 3.68757 60.3363 3.7195 60.315L3.89508 60.0432C3.78547 60.073 3.69289 59.9728 3.58861 59.9526Z" fill="#FDA4BD"/>
<path d="M3.4991 60.3326C3.45653 60.2975 3.41822 60.338 3.37885 60.3412C3.24796 60.3529 3.16496 60.4211 3.09473 60.5043L3.14155 60.6364C3.1607 60.6311 3.17879 60.6258 3.20008 60.6194C3.19582 60.6599 3.18731 60.6972 3.1756 60.7313L3.20859 60.823C3.23519 60.8976 3.33629 60.9093 3.37885 60.8433L3.56082 60.5618C3.54805 60.4861 3.57465 60.3945 3.4991 60.3326Z" fill="#FDA4BD"/>
<path d="M3.3907 59.3213C3.30663 59.3479 3.30131 59.4183 3.29918 59.4897C3.29599 59.6016 3.21937 59.7029 3.14594 59.7338C3.01825 59.7871 2.94801 59.8692 2.90332 59.9662L3.04485 60.366C3.19064 60.0984 3.27683 59.7999 3.45029 59.5473C3.49072 59.4556 3.53435 59.3629 3.3907 59.3213Z" fill="#FDA4BD"/>
<path d="M3.30006 59.49C3.30219 59.4186 3.30644 59.3483 3.39157 59.3216C3.48309 59.2171 3.55545 59.118 3.33198 59.0967C3.3256 59.1116 3.32028 59.1255 3.31389 59.1393C3.20961 59.1734 3.07021 59.1276 3.01168 59.2694C2.92335 59.3515 2.8893 59.5167 2.73926 59.5007L2.9042 59.9665C2.94889 59.8706 3.01913 59.7874 3.14682 59.7341C3.21918 59.7032 3.29687 59.602 3.30006 59.49Z" fill="#FDA4BD"/>
<path d="M6.38086 59.1392L6.41066 59.1381C6.4894 59.136 6.53197 59.0432 6.48195 58.9825L6.41491 58.9004C6.4181 58.9153 6.42023 58.9313 6.4213 58.9441C6.42236 59.0112 6.41172 59.0837 6.38086 59.1392Z" fill="#FDA4BD"/>
<path d="M5.52578 58.6248C5.50875 58.6674 5.49066 58.7111 5.47363 58.7538C5.52365 58.822 5.59388 58.8572 5.6705 58.8838L5.67263 58.8827C5.65773 58.6813 5.77159 58.7836 5.8514 58.806L5.85353 58.8049C5.70562 58.6216 5.75989 58.4467 5.88333 58.2826C5.88865 58.2751 5.89503 58.2687 5.90035 58.2613L5.80139 58.1387C5.74392 58.3188 5.64815 58.4787 5.52578 58.6248Z" fill="#FDA4BD"/>
<path d="M5.7593 58.9943C5.85507 58.9729 5.89338 58.9047 5.85401 58.8066L5.85188 58.8077C5.82421 58.909 5.76462 58.9335 5.67311 58.8845L5.67098 58.8855C5.65182 58.9612 5.67843 59.0124 5.7593 58.9943Z" fill="#FDA4BD"/>
<path d="M5.37971 58.3003C5.37971 58.2949 5.40738 58.2939 5.42228 58.2885C5.61169 58.2214 5.62553 58.1905 5.56487 57.9613C5.5223 58.0231 5.48825 58.0839 5.44356 58.135C5.41695 58.1659 5.34991 58.2182 5.33714 58.1531C5.31267 58.037 5.17433 57.9485 5.25095 57.8099C5.17007 57.8451 5.09984 57.8611 5.13602 57.7299C5.14986 57.6809 5.1722 57.634 5.19136 57.585C5.09452 57.6169 5.10091 57.715 5.06047 57.7843C5.01365 57.8685 5.03919 57.9463 5.0743 58.0274C5.14666 58.1936 5.12751 58.2278 4.94022 58.3045C4.88063 58.2555 5.05195 58.2022 4.93809 58.1617C4.87956 58.1414 4.8221 58.2043 4.82955 58.2533C4.84445 58.3503 4.71143 58.4996 4.79443 58.5081C5.11474 58.5401 4.8636 58.749 4.91362 58.8599C4.94767 58.9335 4.69866 59.0763 4.66674 59.0134C4.62736 58.9366 4.59225 58.9079 4.53904 58.9835C4.49754 59.0422 4.45604 59.152 4.50073 59.1893L4.73697 59.1829C4.75293 59.1413 4.78379 59.1072 4.84232 59.1168C4.88914 59.1243 4.89765 59.1488 4.8934 59.1786H4.91149C4.97853 59.0454 5.04663 58.9111 5.10942 58.7768C5.18178 58.6201 5.34779 58.4975 5.37971 58.3003Z" fill="#FDA4BD"/>
<path d="M5.33037 56.9893C5.30057 57.0681 5.27184 57.146 5.18139 57.1801C5.13244 57.1982 5.09094 57.2184 5.09945 57.2952C5.12393 57.5159 5.00049 57.5127 4.84619 57.4476C4.82065 57.5105 4.83235 57.5649 4.88024 57.6118C4.98133 57.663 5.06753 57.6779 5.11435 57.5404C5.12605 57.5073 5.16011 57.4796 5.18777 57.454C5.21012 57.4338 5.23672 57.4093 5.26333 57.3986L5.32186 57.1993C5.31121 57.1353 5.36655 57.0372 5.33037 56.9893Z" fill="#FDA4BD"/>
<path d="M5.25098 57.5609C5.31482 57.5961 5.42124 57.594 5.38825 57.7155C5.4074 57.7091 5.42443 57.7016 5.43933 57.6942L5.30844 57.5332C5.28716 57.5407 5.26481 57.5481 5.25098 57.5609Z" fill="#FDA4BD"/>
<path d="M5.51699 56.4051C5.48294 56.5096 5.42334 56.5725 5.32544 56.5693C5.28501 56.6918 5.55743 56.7206 5.38291 56.8603C5.39568 56.8645 5.40632 56.8699 5.41589 56.8773L5.59148 56.2793C5.55849 56.3134 5.53295 56.3561 5.51699 56.4051Z" fill="#FDA4BD"/>
<path d="M5.33102 56.9893C5.3672 57.0373 5.31187 57.1354 5.32145 57.1983L5.41615 56.8774C5.40658 56.871 5.39593 56.8646 5.38317 56.8604C5.36507 56.903 5.34805 56.9456 5.33102 56.9893Z" fill="#FDA4BD"/>
<path d="M5.13476 57.7311C5.09858 57.8622 5.16881 57.8462 5.24969 57.8111C5.29545 57.7791 5.3412 57.7471 5.38696 57.7151C5.41995 57.5936 5.31354 57.5957 5.24969 57.5605C5.22947 57.5691 5.20925 57.5776 5.18903 57.5861C5.17201 57.6341 5.14859 57.681 5.13476 57.7311Z" fill="#FDA4BD"/>
<path d="M5.52539 58.6249C5.64777 58.4778 5.74354 58.319 5.801 58.1409L5.75099 58.0791C5.65096 58.2497 5.61584 58.4511 5.52539 58.6249Z" fill="#FDA4BD"/>
<path d="M4.84168 59.1178C4.78315 59.1082 4.75229 59.1424 4.73633 59.1839L4.89276 59.1797C4.89701 59.1509 4.8885 59.1253 4.84168 59.1178Z" fill="#FDA4BD"/>
<path d="M5.47135 56.0474C5.42879 56.0528 5.38729 56.1274 5.33833 56.0666C5.30322 56.0229 5.34472 55.9824 5.37345 55.9462C5.42347 55.8843 5.4788 55.815 5.37452 55.7575C5.29577 55.7138 5.20425 55.6626 5.12763 55.7639C5.09039 55.814 5.06592 55.8747 4.9861 55.847C4.95312 55.8033 4.91055 55.7852 4.85628 55.7948C4.80201 55.9579 4.94035 56.1189 4.85841 56.2841C4.8467 56.3075 4.86054 56.4067 4.91906 56.3587C5.03186 56.2681 5.11806 56.3406 5.18829 56.3917C5.31599 56.4856 5.12551 56.5357 5.13615 56.6199C5.13934 56.6508 5.13721 56.6817 5.13828 56.7126C5.11061 56.7648 5.14892 56.8757 5.04038 56.8555C4.96589 56.8416 4.97227 56.767 4.99249 56.7041C5.01377 56.6391 5.05315 56.5495 4.94354 56.5506C4.82755 56.5527 4.74987 56.6284 4.76796 56.7627C4.835 56.8512 4.84457 56.9621 4.72858 56.9791C4.51788 57.01 4.51043 57.2094 4.39551 57.3149C4.44765 57.3522 4.49873 57.3906 4.55087 57.4279C4.5679 57.381 4.44978 57.2659 4.63281 57.2989C4.74135 57.3181 4.7935 57.3671 4.84351 57.445C4.99781 57.51 5.12019 57.5121 5.09678 57.2925C5.08933 57.2168 5.13083 57.1966 5.17871 57.1774C5.26917 57.1443 5.2979 57.0665 5.32769 56.9866C5.34472 56.9439 5.36175 56.9002 5.37984 56.8576C5.55542 56.719 5.28194 56.6892 5.32237 56.5666C5.42134 56.5698 5.47986 56.5069 5.51392 56.4024C5.52988 56.3534 5.55542 56.3097 5.58841 56.2756L5.68524 55.9462C5.62884 56.0016 5.5618 56.0357 5.47135 56.0474Z" fill="#FDA4BD"/>
<path d="M4.38453 57.4444C4.44306 57.6246 4.33771 57.8356 4.19298 57.8538C4.1302 57.8612 4.05465 57.8612 4.03762 57.7909C4.02166 57.7237 4.1004 57.713 4.14616 57.6939C4.26641 57.6427 4.35899 57.5755 4.35048 57.3996C4.22916 57.357 4.1451 57.3964 4.07806 57.4668C4.07699 57.4679 4.07593 57.4689 4.07486 57.47C4.06635 57.4785 4.05784 57.4881 4.05039 57.4988C4.04188 57.5094 4.03336 57.5201 4.02591 57.5308C4.02485 57.5329 4.02379 57.534 4.02272 57.5361C4.01208 57.551 4.0025 57.5659 3.99186 57.5809C3.89715 57.7248 3.80138 57.7791 3.67049 57.6267C3.63431 57.728 3.55024 57.7674 3.45447 57.7898L3.45554 57.7919C3.54812 57.825 3.64602 57.8548 3.57472 57.9881L3.57578 57.9913C3.69603 57.9241 3.81841 57.9742 3.98228 57.9593C3.88119 58.0776 3.795 58.1 3.69071 58.0936C3.57472 58.0861 3.50874 58.1512 3.46831 58.2567C3.43 58.3537 3.46618 58.4017 3.5545 58.4326C3.63112 58.4592 3.68858 58.4816 3.66943 58.3526C3.65879 58.2791 3.73647 58.3004 3.76946 58.3217C3.90354 58.4081 3.95887 58.3761 3.95355 58.2162C3.95142 58.1405 3.98654 58.0648 4.07486 58.084C4.17276 58.1064 4.14297 58.2023 4.11637 58.2556C4.00676 58.4838 3.88864 58.7076 3.76733 58.9293C3.74285 58.9741 3.70135 59.0242 3.65559 59.0413C3.49384 59.1031 3.50661 59.1926 3.59919 59.3046C3.63431 59.3014 3.66836 59.2982 3.70242 59.295C3.74285 59.2268 3.73647 59.1276 3.83224 59.0967C3.8897 59.0359 3.94717 58.9762 4.0057 58.9155C4.07486 58.6884 4.11424 58.4369 4.2845 58.2684C4.46966 58.0861 4.48775 58.0712 4.23555 57.9593C4.47711 57.8559 4.48136 57.6235 4.55266 57.4284C4.50052 57.3911 4.44944 57.3527 4.3973 57.3154C4.38772 57.341 4.37708 57.3655 4.3675 57.39C4.37389 57.4092 4.37921 57.4263 4.38453 57.4444Z" fill="#FDA4BD"/>
<path d="M4.16974 59.3496C4.16016 59.3059 4.0463 59.3241 4.04098 59.3784C4.01118 59.6503 3.84624 59.7686 3.59723 59.807C3.53657 59.8517 3.47485 59.8944 3.41739 59.9434C3.37589 59.9796 3.37908 60.0276 3.41952 60.0617C3.45996 60.0958 3.48443 60.0596 3.50891 60.0287C3.53125 60.001 3.56211 59.9786 3.58872 59.9541C3.70577 59.9562 3.83134 59.9008 3.93775 59.9807L4.28254 59.4477C4.23571 59.4296 4.18463 59.4147 4.16974 59.3496Z" fill="#FDA4BD"/>
<path d="M4.00524 59.1672C4.05739 59.2407 4.13188 59.2674 4.20424 59.2194C4.27766 59.1714 4.31704 59.0819 4.28511 58.9977C4.24467 58.8857 4.24574 58.7983 4.32129 58.6992C4.35428 58.6566 4.36386 58.5734 4.27873 58.4668C4.22552 58.5979 4.17338 58.6971 4.14784 58.8026C4.12655 58.8868 4.17763 58.9923 4.05632 59.0371C3.98396 59.0574 3.96693 59.1011 4.00524 59.1672Z" fill="#FDA4BD"/>
<path d="M4.77086 57.7205C4.72085 57.7002 4.65913 57.6725 4.63678 57.7471C4.60592 57.8473 4.68467 57.9028 4.75277 57.9497C4.80066 57.9827 4.8379 57.9508 4.86238 57.8964C4.89217 57.8122 4.85493 57.7535 4.77086 57.7205Z" fill="#FDA4BD"/>
<path d="M5.18644 57.4528C5.15877 57.4784 5.12472 57.505 5.11302 57.5392C5.06726 57.6767 4.98 57.6628 4.87891 57.6106C4.90764 57.7022 5.02044 57.7044 5.05981 57.7843C5.09918 57.7161 5.09386 57.617 5.1907 57.585C5.21092 57.5765 5.23114 57.5679 5.25135 57.5594C5.26519 57.5477 5.28754 57.5402 5.30882 57.5317L5.27796 57.4933C5.25774 57.4688 5.25135 57.4358 5.26093 57.4059L5.26306 57.3984C5.23539 57.408 5.20985 57.4326 5.18644 57.4528Z" fill="#FDA4BD"/>
<path d="M1.87708 57.6163C1.80791 57.6898 1.86219 57.758 1.95157 57.789C2.04309 57.7868 2.08246 57.7271 2.10694 57.6504C2.12716 57.4702 2.11332 57.2794 2.15589 57.1035C2.15057 57.111 2.14418 57.1184 2.13673 57.1248L1.95796 57.2624C1.97179 57.3881 1.98031 57.5054 1.87708 57.6163Z" fill="#FDA4BD"/>
<path d="M2.42109 56.5064C2.54666 56.5128 2.55517 56.3998 2.59029 56.3198C2.62009 56.2505 2.66052 56.2004 2.74033 56.1972C2.77226 56.1365 2.77439 56.0725 2.76694 56.0064C2.5988 55.9659 2.46685 55.8444 2.52857 55.6909C2.57433 55.5768 2.56582 55.4809 2.57007 55.3743C2.48175 55.3487 2.45089 55.2976 2.48068 55.2208L2.46153 55.208C2.40726 55.2411 2.39768 55.2943 2.42003 55.3583C2.47643 55.515 2.26466 55.6131 2.33171 55.7698C2.13378 55.7474 2.21039 55.9201 2.1657 56.0054C2.15293 56.0299 2.14122 56.0533 2.12207 56.0693L2.14655 56.533C2.18698 56.4531 2.21359 56.3636 2.30085 56.3166C2.3764 56.3593 2.30297 56.5011 2.42109 56.5064Z" fill="#FDA4BD"/>
<path d="M2.4488 56.7016C2.32642 56.6558 2.24661 56.6643 2.17 56.7304C2.16574 56.7336 2.16148 56.7378 2.15723 56.741L2.17319 57.0427C2.21575 56.9148 2.2945 56.7975 2.4488 56.7016Z" fill="#FDA4BD"/>
<path d="M3.11297 55.8951C3.213 55.8312 3.3109 55.8376 3.4088 55.8589L3.11297 55.6553C3.04699 55.7086 3.03422 55.7832 3.11297 55.8951Z" fill="#FDA4BD"/>
<path d="M3.11322 55.8957C2.95679 56.03 2.87805 55.8573 2.75461 55.7773C2.75993 55.8743 2.76419 55.9415 2.76844 56.0076C2.97063 56.1003 2.83229 56.1462 2.74184 56.1984C2.70566 56.2474 2.6599 56.2933 2.63649 56.3476C2.60882 56.4116 2.53752 56.4894 2.63755 56.5491C2.73758 56.6099 2.80569 56.5076 2.81314 56.4575C2.84187 56.2666 3.01851 56.1984 3.10577 56.0598C3.13025 56.0204 3.16962 56.0247 3.209 56.0343C3.22921 56.0257 3.24943 56.0172 3.26965 56.0087C3.30477 55.8488 3.16005 55.9394 3.11322 55.8957Z" fill="#FDA4BD"/>
<path d="M2.57074 55.3752C2.58245 55.3507 2.59415 55.3261 2.60054 55.3038L2.48029 55.2217C2.45156 55.2984 2.48135 55.3496 2.57074 55.3752Z" fill="#FDA4BD"/>
<path d="M5.60849 55.606C5.66595 55.5974 5.72554 55.5441 5.77449 55.4727C5.74896 55.4493 5.71171 55.4386 5.67447 55.4525L5.45312 55.5377C5.50314 55.574 5.54996 55.6145 5.60849 55.606Z" fill="#FDA4BD"/>
<path d="M4.85742 55.7948C4.91169 55.7852 4.95426 55.8033 4.98725 55.8471C5.00853 55.7948 5.033 55.7436 5.05322 55.6914L4.87126 55.7618C4.86593 55.7724 4.86168 55.7831 4.85742 55.7948Z" fill="#FDA4BD"/>
<path d="M5.69691 55.6241C5.66817 55.6667 5.68839 55.7189 5.73415 55.7403C5.73947 55.7424 5.74373 55.7435 5.74905 55.7456L5.80119 55.5686C5.80332 55.5601 5.80438 55.5505 5.80545 55.542C5.76288 55.5559 5.72457 55.5846 5.69691 55.6241Z" fill="#FDA4BD"/>
<path d="M2.18599 57.3525C2.18599 57.2704 2.23707 57.1851 2.34881 57.2022C2.45948 57.2203 2.45522 57.2917 2.4201 57.3738C2.518 57.3546 2.57015 57.3983 2.54886 57.4942C2.52545 57.603 2.41265 57.6371 2.33816 57.6136C2.24452 57.5849 2.33604 57.5017 2.34136 57.442C2.23601 57.5017 2.20621 57.5902 2.26368 57.6925C2.29879 57.7554 2.29986 57.8066 2.27219 57.8663C2.34136 57.8652 2.40627 57.813 2.4797 57.8492C2.52865 57.7714 2.58079 57.6957 2.62442 57.6158C2.66273 57.5433 2.71274 57.5422 2.77765 57.5699C2.83937 57.5955 2.88726 57.6339 2.87555 57.7074C2.86385 57.7821 2.80319 57.8205 2.74041 57.7949C2.63506 57.7512 2.56908 57.8492 2.4797 57.8503C2.45628 57.9302 2.39776 57.9995 2.41265 58.1147C2.48714 58.0656 2.54886 58.0187 2.61697 57.9814C2.71806 57.926 2.8 57.9196 2.79042 58.0752C3.01283 57.975 2.9841 57.6883 3.17458 57.5582C3.20437 57.538 3.14053 57.4687 3.09158 57.442C3.05646 57.4228 3.01602 57.378 3.05646 57.3567C3.14053 57.313 3.23523 57.2864 3.32888 57.2672C3.40762 57.2512 3.38528 57.3439 3.42252 57.3749C3.56725 57.1606 3.4885 56.8909 3.5981 56.666C3.63322 56.5945 3.58746 56.5253 3.50127 56.5167C3.41401 56.5082 3.40762 56.4517 3.40762 56.3856C3.40762 56.3067 3.46934 56.3142 3.52149 56.2993C3.63109 56.2684 3.70133 56.1884 3.77262 56.1074L3.6545 56.0264C3.67366 56.149 3.6577 56.2278 3.45125 56.1436C3.32143 56.0903 3.18096 56.2342 3.22885 56.3131C3.40018 56.5892 3.21714 56.6937 3.04369 56.8205C3.08093 56.8621 3.10222 56.9101 3.082 56.9655C3.06497 57.0135 3.05752 57.0742 2.99261 57.0828C2.95111 57.0892 2.92238 57.0625 2.90535 57.0252C2.87555 56.958 2.92451 56.9335 2.9692 56.9016C2.99793 56.8813 3.01921 56.8472 3.04369 56.8195C2.9841 56.8088 2.92451 56.7992 2.86491 56.7875C2.80426 56.7758 2.76914 56.7395 2.76701 56.6777C2.76488 56.6297 2.77872 56.57 2.82341 56.5626C3.05752 56.5231 3.0937 56.3515 3.11605 56.1585C3.12137 56.1138 3.17671 56.0743 3.20863 56.0328C3.17032 56.0242 3.13095 56.0189 3.10541 56.0584C3.01815 56.1969 2.8415 56.2652 2.81277 56.456C2.80532 56.5061 2.73722 56.6084 2.63719 56.5476C2.53716 56.4879 2.60846 56.4101 2.63612 56.3462C2.65953 56.2918 2.70529 56.246 2.74147 56.1969C2.66166 56.2001 2.62123 56.2502 2.59143 56.3195C2.55631 56.3995 2.5478 56.5135 2.42223 56.5061C2.30411 56.5007 2.3786 56.359 2.30305 56.3174C2.21579 56.3654 2.18919 56.4549 2.14875 56.5338L2.15939 56.7395C2.16365 56.7363 2.1679 56.7331 2.17216 56.7289C2.24878 56.6628 2.32859 56.6553 2.45096 56.7001C2.29666 56.796 2.21792 56.9122 2.17642 57.0401V57.0412C2.17748 57.0625 2.1711 57.0838 2.15833 57.1009C2.11576 57.2768 2.12959 57.4676 2.10938 57.6478C2.16471 57.5582 2.18493 57.4623 2.18599 57.3525Z" fill="#FDA4BD"/>
<path d="M3.79297 56.5711C3.84937 56.5668 3.92067 56.5465 3.90577 56.4869C3.83234 56.1894 4.06007 56.1745 4.24097 56.1127C4.2729 56.102 4.31972 56.0668 4.33568 56.1212C4.34313 56.1468 4.30375 56.1852 4.28566 56.2182C4.35483 56.2172 4.41975 56.1649 4.49211 56.2012C4.51339 56.1063 4.51871 56.0135 4.44954 55.9336C4.32823 55.9656 4.21543 56.1074 4.09412 56.0605L3.89406 56.1372C3.79723 56.2651 3.87597 56.4399 3.79297 56.5711Z" fill="#FDA4BD"/>
<path d="M1.58982 57.7459C1.58982 57.7576 1.56108 57.7757 1.56428 57.781C1.74837 58.0785 1.4153 58.1573 1.3291 58.3396C1.56215 58.2938 1.75795 58.4622 1.98461 58.4526C1.92928 58.4153 1.80796 58.4228 1.85585 58.3119C1.88671 58.2415 1.93566 58.1595 2.02718 58.1435C2.10912 58.1296 2.13465 58.1787 2.1155 58.2543C2.157 58.249 2.17828 58.2202 2.19318 58.185C2.18467 58.0998 2.06442 58.1136 2.05591 58.0283C2.01654 57.91 1.86756 57.9441 1.8069 57.8503C1.82605 57.7629 1.91651 57.8354 1.95162 57.7864C1.86224 57.7565 1.80796 57.6872 1.87713 57.6137C1.98035 57.5039 1.97184 57.3856 1.95801 57.2598L1.75689 57.4143C1.6941 57.5231 1.59514 57.6179 1.58982 57.7459ZM1.74731 58.006C1.78349 57.958 1.83031 57.9367 1.88777 57.9665C1.92502 57.9857 1.95694 58.0134 1.91863 58.055C1.88139 58.0944 1.83244 58.1179 1.77498 58.104C1.73879 58.0774 1.71751 58.0475 1.74731 58.006Z" fill="#FDA4BD"/>
<path d="M1.27799 57.9681C1.23223 58.0832 1.18541 58.1984 1.13965 58.3135C1.18221 58.3306 1.22584 58.3476 1.26841 58.3647C1.28863 58.3561 1.30885 58.3476 1.32907 58.3401C1.41526 58.1579 1.74834 58.079 1.56424 57.7816C1.56105 57.7773 1.58978 57.7592 1.58978 57.7464C1.5951 57.6185 1.69513 57.5236 1.75791 57.417L1.41313 57.6824C1.43335 57.7016 1.44399 57.7293 1.43441 57.7698C1.40994 57.8732 1.32268 57.8306 1.25245 57.8072L1.23968 57.8167C1.23542 57.8274 1.23116 57.8381 1.22691 57.8487C1.28224 57.8711 1.29927 57.9116 1.27799 57.9681Z" fill="#FDA4BD"/>
<path d="M3.51914 56.2993C3.46806 56.3132 3.40527 56.3057 3.40527 56.3856C3.40634 56.4517 3.41166 56.5072 3.49892 56.5168C3.58618 56.5253 3.63087 56.5956 3.59575 56.666C3.48615 56.8909 3.56489 57.1606 3.42017 57.3749C3.52871 57.4804 3.58724 57.3909 3.58724 57.3067C3.58618 57.0476 3.93096 56.8835 3.77772 56.5882C3.77666 56.5861 3.7873 56.5775 3.79262 56.5722C3.87562 56.4411 3.79688 56.2663 3.89478 56.1373L3.88839 56.1394C3.8586 56.1511 3.82561 56.1469 3.80007 56.1287L3.76921 56.1074C3.69898 56.1884 3.62768 56.2684 3.51914 56.2993ZM3.71494 56.7545C3.75644 56.7715 3.77347 56.8078 3.76602 56.844C3.75538 56.8941 3.71494 56.9176 3.66386 56.9037C3.62129 56.892 3.60533 56.8526 3.61278 56.8152C3.61384 56.8088 3.61597 56.8035 3.6181 56.7982C3.633 56.7609 3.66918 56.746 3.71494 56.7545Z" fill="#FDA4BD"/>
<path d="M4.30193 56.9352C4.28916 56.9736 4.2051 56.9373 4.15615 56.9192C4.14976 56.9331 4.14338 56.9469 4.13806 56.9608L4.13912 56.9629C4.28597 57.0812 4.39877 56.9565 4.54881 56.8776C4.52753 57.0056 4.51795 57.1132 4.41047 57.1367C4.30406 57.1601 4.18062 57.1665 4.10294 57.0493C4.09123 57.0781 4.08059 57.1068 4.06889 57.1356C4.11145 57.1633 4.2019 57.1601 4.18807 57.2166C4.17743 57.2603 4.10081 57.2976 4.04548 57.319C3.96141 57.352 3.83265 57.2795 3.80072 57.4298C3.86883 57.4362 3.97631 57.3904 3.95609 57.5258C3.94438 57.6025 3.87308 57.6665 3.80924 57.642C3.68473 57.5919 3.79008 57.5034 3.80072 57.4298C3.78689 57.4234 3.77199 57.4181 3.75816 57.4117C3.72943 57.4831 3.69963 57.5556 3.6709 57.627C3.80285 57.7795 3.89862 57.724 3.99227 57.5812C4.00185 57.5663 4.01249 57.5514 4.02313 57.5364C4.02419 57.5343 4.02526 57.5332 4.02632 57.5311C4.03483 57.5204 4.04228 57.5098 4.0508 57.4991C4.05824 57.4895 4.06676 57.4799 4.07527 57.4703C4.07634 57.4693 4.0774 57.4682 4.07846 57.4671C4.1455 57.3968 4.22957 57.3573 4.35088 57.4C4.34982 57.3851 4.34875 57.3691 4.34663 57.352C4.35408 57.3648 4.36046 57.3787 4.36578 57.3915C4.37536 57.3669 4.386 57.3413 4.39558 57.3168C4.5105 57.2102 4.51795 57.0109 4.72865 56.981C4.84464 56.964 4.83507 56.8521 4.76803 56.7646C4.73397 56.7668 4.69886 56.771 4.6648 56.7732C4.55945 56.8553 4.36578 56.7369 4.30193 56.9352Z" fill="#FDA4BD"/>
<path d="M3.45418 57.7907L3.45312 57.7886C3.31797 57.6489 3.21794 57.6521 3.13813 57.8483C3.10302 57.9346 3.06471 58.0146 3.05513 58.1095C3.04342 58.2278 2.8572 58.2192 2.86039 58.345C2.86465 58.5007 3.07535 58.3024 3.09663 58.4761C3.1094 58.5827 3.17218 58.5092 3.20624 58.4772C3.25944 58.4271 3.28179 58.36 3.28286 58.2885C3.28498 58.0945 3.37331 57.989 3.57336 57.9901L3.5723 57.9869C3.52335 57.9282 3.29243 57.9794 3.45418 57.7907Z" fill="#FDA4BD"/>
<path d="M2.2794 58.2207C2.30068 58.2697 2.31771 58.3209 2.34325 58.3678C2.37304 58.4211 2.42518 58.4371 2.48265 58.4275C2.53373 58.4189 2.57629 58.3848 2.57204 58.3347C2.55714 58.1716 2.68058 58.1311 2.78806 58.0746C2.79763 57.919 2.71569 57.9254 2.6146 57.9808C2.5465 58.0181 2.48478 58.065 2.41029 58.1141C2.39645 57.9989 2.45498 57.9296 2.47733 57.8497C2.40497 57.8135 2.34005 57.8657 2.26982 57.8668C2.18469 57.9872 2.28472 58.1023 2.2794 58.2207Z" fill="#FDA4BD"/>
<path d="M4.24668 56.8147C4.21689 56.8488 4.18603 56.884 4.15623 56.9181C4.20518 56.9373 4.28925 56.9725 4.30202 56.9341C4.36587 56.7358 4.55954 56.8552 4.66595 56.771C4.45738 56.7337 4.45313 56.6026 4.52868 56.4502C4.5638 56.3787 4.6202 56.3201 4.52017 56.2615C4.54464 56.4363 4.39566 56.4235 4.31585 56.4107C4.17645 56.3883 4.27542 56.2871 4.28712 56.2178C4.21689 56.2775 4.14665 56.3361 4.06152 56.4097C4.36587 56.4662 4.44248 56.5941 4.24668 56.8147Z" fill="#FDA4BD"/>
<path d="M3.01058 59.2685C2.97653 59.2376 2.94248 59.2077 2.91055 59.1747C2.80201 59.0606 2.72007 59.1064 2.63281 59.2024L2.73816 59.4998C2.88927 59.5158 2.92332 59.3506 3.01058 59.2685Z" fill="#FDA4BD"/>
<path d="M1.22234 58.4361C1.21595 58.4243 1.25213 58.3892 1.26916 58.3646C1.22553 58.3476 1.18297 58.3305 1.1404 58.3135C1.10422 58.3785 1.10741 58.4723 1.02228 58.5032C0.987164 58.516 0.961625 58.5277 0.941406 58.5384L1.23085 58.6162C1.2681 58.5864 1.27661 58.5352 1.22234 58.4361Z" fill="#FDA4BD"/>
<path d="M3.80127 57.4292C3.80127 57.4292 3.80127 57.4282 3.80127 57.4292C3.8002 57.4292 3.80127 57.4282 3.80127 57.4292C3.83319 57.2789 3.96302 57.3514 4.04602 57.3184C4.10029 57.2971 4.17797 57.2598 4.18861 57.216C4.20245 57.1595 4.11093 57.1627 4.06943 57.135C4.06305 57.1713 4.05772 57.2395 4.05134 57.2395C3.90981 57.2406 3.90342 57.1062 3.84915 56.9922C3.75977 57.1414 3.8449 57.296 3.75977 57.4122C3.77254 57.4164 3.78637 57.4228 3.80127 57.4292Z" fill="#FDA4BD"/>
<path d="M3.4279 58.8432C3.45663 58.8059 3.45238 58.7526 3.39598 58.7302C3.35873 58.7142 3.32149 58.7248 3.29063 58.7515C3.21188 58.8197 3.22678 59.0628 3.31404 59.1385C3.32042 59.1246 3.32575 59.1107 3.33213 59.0958C3.36512 59.0137 3.36938 58.9199 3.4279 58.8432Z" fill="#FDA4BD"/>
<path d="M2.11638 58.2558C2.13553 58.1801 2.10999 58.1311 2.02805 58.1449C1.9376 58.1609 1.88759 58.243 1.85673 58.3134C1.80884 58.4242 1.92909 58.4168 1.98549 58.4541C2.05466 58.404 2.09084 58.3325 2.11638 58.2558Z" fill="#FDA4BD"/>
<path d="M2.27168 57.8662C2.20252 57.8715 2.15356 57.8939 2.15356 57.9771C2.15356 58.0474 2.10461 58.0421 2.05566 58.0304C2.06418 58.1157 2.18442 58.1018 2.19294 58.1871C2.22167 58.1988 2.2504 58.2095 2.27913 58.2212C2.28552 58.1018 2.18549 57.9867 2.27168 57.8662Z" fill="#FDA4BD"/>
<path d="M4.13874 56.9618L4.13768 56.9596C4.11001 56.9404 4.08021 56.8935 4.04829 56.9458C4.00679 57.0108 4.01317 57.0769 4.06957 57.1334C4.08128 57.1046 4.09298 57.0758 4.10362 57.047C4.06744 57.0001 4.12278 56.9895 4.13874 56.9618Z" fill="#FDA4BD"/>
<path d="M1.24084 57.8154L1.20703 57.8405C1.21357 57.8427 1.22012 57.8438 1.22775 57.8471C1.23211 57.8373 1.23648 57.8263 1.24084 57.8154Z" fill="#FDA4BD"/>
<path d="M0.856979 58.1104L0.812285 58.1445C0.804836 58.1615 0.794195 58.1786 0.779297 58.1946C0.810157 58.1701 0.834632 58.1402 0.856979 58.1104Z" fill="#FDA4BD"/>
<path d="M1.13976 58.3132C1.18552 58.198 1.23234 58.0829 1.2781 57.9678C1.1653 58.0563 1.11848 58.1714 1.13976 58.3132C1.13976 58.3132 1.1387 58.3132 1.13976 58.3132Z" fill="#FDA4BD"/>
<path d="M3.65234 60.421L3.72045 60.3154C3.68852 60.3367 3.66724 60.3783 3.65234 60.421Z" fill="#FDA4BD"/>
<path d="M3.58887 59.953C3.69315 59.9733 3.78573 60.0735 3.89747 60.0426L3.93897 59.9786C3.83149 59.9008 3.70592 59.9552 3.58887 59.953Z" fill="#FDA4BD"/>
<path d="M3.70117 59.295C3.79801 59.264 3.79162 59.1649 3.831 59.0967C3.73522 59.1287 3.74267 59.2278 3.70117 59.295Z" fill="#FDA4BD"/>
<path d="M3.14258 60.6363L3.17557 60.7301C3.18727 60.697 3.19578 60.6597 3.20004 60.6182C3.17982 60.6256 3.16067 60.6309 3.14258 60.6363Z" fill="#FDA4BD"/>
<path d="M5.851 58.8076C5.77119 58.7852 5.65733 58.6828 5.67222 58.8843C5.76374 58.9333 5.82333 58.9088 5.851 58.8076Z" fill="#FDA4BD"/>
<path d="M4.62229 56.1567C4.61271 56.161 4.60739 56.2015 4.61484 56.2186C4.6872 56.3966 4.70848 56.6162 4.66485 56.7707C4.6989 56.7675 4.73402 56.7644 4.76807 56.7622C4.74998 56.6279 4.82766 56.5522 4.94366 56.5501C5.05326 56.548 5.01389 56.6386 4.99261 56.7036C5.04156 56.7068 5.08944 56.71 5.13839 56.7132C5.13733 56.6823 5.13946 56.6514 5.13626 56.6204C5.12562 56.5362 5.3161 56.4861 5.18841 56.3923C5.11817 56.3412 5.03198 56.2687 4.91918 56.3593C4.85959 56.4072 4.84682 56.3081 4.85852 56.2847C4.94046 56.1194 4.80213 55.9574 4.8564 55.7954C4.79787 55.7858 4.77127 55.935 4.69252 55.8295C4.7287 55.951 4.80851 56.0811 4.62229 56.1567Z" fill="#FDA4BD"/>
<path d="M5.04098 56.8556C5.15059 56.8758 5.11121 56.765 5.13888 56.7127C5.08993 56.7095 5.04098 56.7063 4.9931 56.7031C4.97394 56.766 4.96756 56.8406 5.04098 56.8556Z" fill="#FDA4BD"/>
<path d="M4.14607 57.6927C4.09925 57.7119 4.0205 57.7236 4.03753 57.7897C4.05455 57.86 4.13011 57.86 4.19289 57.8526C4.33336 57.8345 4.43658 57.6362 4.38443 57.4432C4.38018 57.4251 4.37379 57.4081 4.36634 57.391C4.36102 57.3771 4.35464 57.3644 4.34719 57.3516C4.34932 57.3686 4.35038 57.3835 4.35145 57.3995C4.35996 57.5744 4.26632 57.6426 4.14607 57.6927Z" fill="#FDA4BD"/>
<path d="M3.57427 57.9872C3.64557 57.8539 3.54767 57.8241 3.45509 57.791C3.29334 57.9797 3.52426 57.9285 3.57427 57.9872Z" fill="#FDA4BD"/>
<path d="M2.15355 57.9764C2.15355 57.8933 2.20356 57.8709 2.27167 57.8655C2.29934 57.8058 2.29827 57.7547 2.26316 57.6918C2.20569 57.5894 2.23549 57.4999 2.34084 57.4413C2.36638 57.4189 2.39298 57.3965 2.41958 57.373C2.4547 57.291 2.45896 57.2195 2.34829 57.2014C2.23655 57.1844 2.18654 57.2696 2.18547 57.3517C2.18441 57.4615 2.16419 57.5585 2.10673 57.6491C2.08225 57.7259 2.04288 57.7866 1.95136 57.7877C1.91625 57.8357 1.8258 57.7632 1.80664 57.8517C1.8673 57.9455 2.01521 57.9114 2.05565 58.0297C2.1046 58.0414 2.15355 58.0478 2.15355 57.9764Z" fill="#FDA4BD"/>
<path d="M2.76684 56.0059C2.77429 56.072 2.77216 56.1359 2.74023 56.1967C2.83175 56.1444 2.97009 56.0997 2.76684 56.0059Z" fill="#FDA4BD"/>
<path d="M4.45024 55.9326C4.4513 55.9284 4.45343 55.9252 4.45449 55.9209L4.09375 56.0595C4.21719 56.1064 4.32999 55.9646 4.45024 55.9326Z" fill="#FDA4BD"/>
<path d="M4.85724 55.7949C4.86149 55.7831 4.86575 55.7725 4.87001 55.7607L4.69336 55.829C4.77211 55.9345 4.79871 55.7842 4.85724 55.7949Z" fill="#FDA4BD"/>
<path d="M3.11328 55.8956C3.1601 55.9393 3.30483 55.8487 3.26865 56.0086C3.36123 56.0001 3.44955 55.9596 3.54319 55.9521L3.40911 55.8605C3.31121 55.8381 3.21331 55.8317 3.11328 55.8956Z" fill="#FDA4BD"/>
<path d="M3.20745 56.0333C3.17553 56.0749 3.12019 56.1144 3.11487 56.1591C3.09252 56.3521 3.05741 56.5226 2.82223 56.5631C2.77754 56.5706 2.76371 56.6314 2.76583 56.6783C2.76796 56.7401 2.80414 56.7763 2.86373 56.7881C2.92333 56.7998 2.98292 56.8094 3.04251 56.8201C3.21596 56.6932 3.399 56.5887 3.22767 56.3126C3.17978 56.2338 3.31919 56.0898 3.45007 56.1431C3.65545 56.2284 3.67248 56.1485 3.65333 56.0259L3.54372 55.9502C3.45114 55.9587 3.36282 55.9992 3.26917 56.0067C3.24789 56.0174 3.22767 56.0259 3.20745 56.0333Z" fill="#FDA4BD"/>
<path d="M4.49365 56.2001C4.50216 56.2203 4.51068 56.2406 4.51919 56.2608C4.61922 56.3205 4.56282 56.3781 4.5277 56.4495C4.45215 56.602 4.4564 56.7331 4.66498 56.7704C4.70861 56.6147 4.68732 56.3962 4.61496 56.2182C4.60751 56.2001 4.61283 56.1596 4.62241 56.1564C4.80757 56.0807 4.72882 55.9506 4.69371 55.8291L4.45641 55.9208C4.45534 55.925 4.45321 55.9282 4.45215 55.9325C4.52025 56.0135 4.51493 56.1052 4.49365 56.2001Z" fill="#FDA4BD"/>
<path d="M2.73923 57.7945C2.80201 57.82 2.86267 57.7817 2.87438 57.707C2.88608 57.6335 2.83819 57.5951 2.77647 57.5695C2.71156 57.5418 2.66155 57.5429 2.62324 57.6154C2.57961 57.6964 2.52747 57.771 2.47852 57.8488C2.5679 57.8488 2.63388 57.7507 2.73923 57.7945Z" fill="#FDA4BD"/>
<path d="M4.31583 56.4103C4.39564 56.4231 4.54462 56.4359 4.52014 56.2611C4.51163 56.2408 4.50312 56.2205 4.4946 56.2003C4.42224 56.164 4.35733 56.2163 4.28816 56.2173C4.27539 56.2877 4.17643 56.3879 4.31583 56.4103Z" fill="#FDA4BD"/>
<path d="M2.33811 57.6124C2.4126 57.6359 2.5254 57.6018 2.54881 57.4931C2.5701 57.3971 2.51795 57.3534 2.42005 57.3726C2.39345 57.395 2.36685 57.4184 2.34131 57.4408C2.33492 57.5016 2.24447 57.5837 2.33811 57.6124Z" fill="#FDA4BD"/>
<path d="M2.90463 57.0269C2.92166 57.0642 2.95039 57.0909 2.99189 57.0845C3.0568 57.0749 3.06425 57.0152 3.08128 56.9672C3.1015 56.9118 3.08021 56.8638 3.04297 56.8223C3.01849 56.85 2.99828 56.883 2.96848 56.9043C2.92379 56.9353 2.87484 56.9598 2.90463 57.0269Z" fill="#FDA4BD"/>
<path d="M1.77518 58.1034C1.83264 58.1173 1.88159 58.0949 1.91884 58.0544C1.95714 58.0139 1.92416 57.9851 1.88798 57.9659C1.83051 57.936 1.78369 57.9574 1.74751 58.0053C1.71771 58.048 1.739 58.0778 1.77518 58.1034Z" fill="#FDA4BD"/>
<path d="M1.43392 57.7681C1.4435 57.7276 1.43286 57.7009 1.41264 57.6807L1.25195 57.8043C1.32219 57.8299 1.41051 57.8715 1.43392 57.7681Z" fill="#FDA4BD"/>
<path d="M3.66453 56.9035C3.71561 56.9174 3.75604 56.8939 3.76669 56.8438C3.77414 56.8065 3.75711 56.7703 3.71667 56.7543C3.67091 56.7458 3.63473 56.7607 3.61984 56.798C3.61771 56.8033 3.61558 56.8097 3.61451 56.815C3.606 56.8524 3.62196 56.8929 3.66453 56.9035Z" fill="#FDA4BD"/>
<path d="M4.10228 57.0476C4.1789 57.1659 4.30234 57.1595 4.40981 57.135C4.51729 57.1116 4.52687 57.005 4.54815 56.876C4.39811 56.9549 4.28531 57.0796 4.13846 56.9612C4.1225 56.989 4.06716 56.9996 4.10228 57.0476Z" fill="#FDA4BD"/>
<path d="M3.80201 57.4291C3.7903 57.5015 3.68601 57.5911 3.81052 57.6412C3.87437 57.6668 3.94673 57.6018 3.95737 57.525C3.97759 57.3886 3.87011 57.4344 3.80201 57.4291C3.80094 57.4291 3.80201 57.428 3.80201 57.4291C3.80201 57.4291 3.80201 57.428 3.80201 57.4291Z" fill="#FDA4BD"/>
<path d="M7.48469 16.5408L7.66879 19.5874C7.67198 19.6375 7.69965 19.6833 7.74221 19.7089L10.3525 21.2834C10.4611 21.3484 10.4473 21.5094 10.3302 21.5563L7.49427 22.6734C7.44745 22.6916 7.41339 22.7321 7.40169 22.7811L6.71319 25.7542C6.68446 25.8778 6.52803 25.9141 6.44716 25.8171L4.51042 23.4612C4.4785 23.4228 4.42955 23.4015 4.37953 23.4058L1.34355 23.668C1.21798 23.6787 1.13391 23.5401 1.20202 23.4335L2.84079 20.8602C2.86739 20.8175 2.87165 20.7653 2.8525 20.7184L1.66492 17.9074C1.61597 17.7912 1.72132 17.6686 1.84369 17.7006L4.79348 18.4659C4.84243 18.4787 4.89351 18.4659 4.93182 18.434L7.23355 16.4342C7.32826 16.351 7.47724 16.4139 7.48469 16.5408Z" fill="#FAD5E0"/>
<path d="M6.56359 25.9787C6.48697 25.9787 6.41461 25.9446 6.3646 25.8838L4.42786 23.528C4.41829 23.5162 4.40445 23.5098 4.38849 23.5109L1.3525 23.7731C1.25354 23.7817 1.15989 23.7337 1.10882 23.6495C1.05774 23.5642 1.0588 23.4597 1.11201 23.3755L2.75078 20.8022C2.7593 20.7894 2.76036 20.7734 2.75397 20.7596L1.5664 17.9485C1.52809 17.8569 1.54405 17.7534 1.60896 17.6778C1.67387 17.6031 1.7739 17.5712 1.86968 17.5968L4.81947 18.3621C4.83437 18.3653 4.84926 18.3621 4.86097 18.3525L7.1627 16.3527C7.23719 16.2877 7.34148 16.2707 7.43299 16.3101C7.52451 16.3485 7.58516 16.4337 7.59048 16.5329L7.77458 19.5795C7.77564 19.5944 7.78416 19.6083 7.79693 19.6158L10.4073 21.1902C10.4924 21.2414 10.5403 21.3352 10.5318 21.4333C10.5233 21.5324 10.4605 21.6166 10.369 21.6529L7.53302 22.77C7.51919 22.7754 7.50855 22.7882 7.50535 22.802L6.81686 25.7751C6.79451 25.8721 6.72002 25.9467 6.62425 25.9691C6.60403 25.9755 6.58381 25.9787 6.56359 25.9787ZM4.39275 23.2977C4.46937 23.2977 4.54279 23.3318 4.59281 23.3926L6.52954 25.7484C6.5455 25.7676 6.56465 25.7666 6.5753 25.7644C6.58594 25.7623 6.60403 25.7538 6.60935 25.7303L7.29785 22.7572C7.317 22.6741 7.37553 22.6059 7.45534 22.575L10.2913 21.4578C10.3147 21.4482 10.3189 21.429 10.32 21.4183C10.3211 21.4077 10.3189 21.3885 10.2977 21.3746L7.68839 19.7991C7.61496 19.7554 7.5692 19.6776 7.56388 19.5923L7.37979 16.5457C7.37872 16.5212 7.36169 16.5105 7.35212 16.5062C7.34254 16.502 7.32339 16.4977 7.30423 16.5137L5.0025 18.5135C4.93759 18.5689 4.85033 18.5903 4.76839 18.5689L1.8186 17.8036C1.79412 17.7972 1.77922 17.8099 1.77284 17.8185C1.76539 17.827 1.75581 17.8441 1.76539 17.8664L2.95297 20.6775C2.98596 20.7564 2.97851 20.8459 2.93275 20.9173L1.29398 23.4906C1.28014 23.512 1.28759 23.5301 1.29398 23.5397C1.2993 23.5493 1.31313 23.5631 1.33761 23.5621L4.37359 23.2998C4.37785 23.2977 4.3853 23.2977 4.39275 23.2977Z" fill="#F7A4C0"/>
<path d="M52.1446 53.2202C52.0978 53.2202 52.051 53.2074 52.0084 53.1818L50.2196 52.1116L48.3255 52.9814C48.2329 53.024 48.1265 53.0102 48.0477 52.9462C47.969 52.8823 47.9339 52.7799 47.9562 52.6808L48.4191 50.6458L47.0081 49.1097C46.9389 49.0351 46.9187 48.9295 46.9559 48.8347C46.9921 48.7398 47.0783 48.6748 47.1794 48.6663L49.2544 48.4786L50.2771 46.66C50.3271 46.5716 50.4218 46.5204 50.5229 46.5247C50.624 46.53 50.7123 46.5918 50.7528 46.6856L51.5721 48.6044L53.6153 49.0159C53.7153 49.0361 53.793 49.1097 53.8196 49.2078C53.8462 49.3058 53.8143 49.4092 53.7377 49.4764L52.1691 50.8505L52.4096 52.9238C52.4213 53.0251 52.3756 53.1221 52.2904 53.1775C52.2447 53.2063 52.1947 53.2202 52.1446 53.2202ZM50.2228 51.7854C50.2696 51.7854 50.3175 51.7982 50.359 51.8227L52.0787 52.8514L51.8478 50.859C51.8382 50.7716 51.8712 50.6852 51.9371 50.6287L53.445 49.308L51.4817 48.9125C51.3955 48.8954 51.3242 48.8368 51.2901 48.7558L50.5027 46.9116L49.5205 48.6599C49.4779 48.7355 49.4002 48.7867 49.313 48.7942L47.3188 48.9743L48.6745 50.4507C48.7341 50.5147 48.7575 50.6042 48.7383 50.6895L48.2935 52.6456L50.1143 51.8099C50.1483 51.7939 50.1856 51.7854 50.2228 51.7854ZM50.4591 46.8103C50.4591 46.8103 50.4591 46.8114 50.4591 46.8103V46.8103Z" fill="#FED9E4"/>
<path d="M18.8018 27.5234C18.7784 27.5234 18.7539 27.5202 18.7305 27.5138C18.6273 27.4861 18.5507 27.4051 18.5294 27.3006L18.0644 25.0055L15.9138 24.0877C15.8159 24.0461 15.7509 23.9534 15.7456 23.8479C15.7392 23.7413 15.7935 23.6421 15.8861 23.5899L17.9218 22.4376L18.1282 20.1052C18.1378 19.9986 18.2048 19.909 18.3038 19.8706C18.4028 19.8323 18.5134 19.8525 18.5922 19.925L20.315 21.508L22.5934 20.9835C22.6966 20.9601 22.803 20.9963 22.87 21.0784C22.9371 21.1616 22.952 21.2724 22.9073 21.3694L21.9368 23.5004L23.1393 25.5087C23.1935 25.6004 23.1925 25.7123 23.1339 25.8018C23.0765 25.8914 22.9743 25.9394 22.869 25.9276L20.546 25.6611L19.0104 27.4264C18.9561 27.4893 18.8806 27.5234 18.8018 27.5234ZM16.1159 23.8266L18.2091 24.7199C18.2932 24.7561 18.3538 24.8307 18.3719 24.9203L18.8242 27.1546L20.3182 25.4362C20.3778 25.3669 20.4672 25.3317 20.5587 25.3424L22.819 25.6014L21.6495 23.6464C21.6026 23.5675 21.5973 23.4716 21.6346 23.3884L22.5795 21.3151L20.364 21.8246C20.2746 21.8449 20.182 21.8203 20.1139 21.7585L18.4368 20.2181L18.2357 22.4887C18.2272 22.5793 18.1751 22.6614 18.0952 22.7062L16.1159 23.8266Z" fill="#FED9E4"/>
<path d="M2.88772 30.1384L2.80685 31.3707C2.80579 31.3909 2.8143 31.4101 2.83026 31.4229L3.79756 32.1883C3.838 32.2203 3.82417 32.2842 3.77415 32.297L2.57912 32.6008C2.55997 32.6062 2.54401 32.62 2.53656 32.6392L2.10877 33.798C2.09068 33.8459 2.02577 33.8523 1.99917 33.8097L1.34153 32.765C1.33089 32.7479 1.31174 32.7373 1.29152 32.7362L0.059244 32.6872C0.00816538 32.6851 -0.0184381 32.6254 0.0145502 32.5859L0.803077 31.6361C0.815847 31.6201 0.820103 31.5999 0.814782 31.5796L0.480643 30.391C0.466809 30.342 0.515759 30.2983 0.562582 30.3175L1.70759 30.7748C1.72675 30.7822 1.74803 30.7801 1.76506 30.7684L2.79089 30.0829C2.83452 30.0542 2.89092 30.0872 2.88772 30.1384Z" fill="#F8678F"/>
<path d="M19.3211 55.6234L19.585 56.5082C19.5892 56.5231 19.6009 56.5338 19.6148 56.5391L20.4916 56.8226C20.5278 56.8344 20.5353 56.8823 20.5033 56.9047L19.7446 57.4292C19.7318 57.4377 19.7244 57.4516 19.7244 57.4676L19.7254 58.3907C19.7254 58.4291 19.6818 58.4504 19.651 58.427L18.9188 57.8663C18.9071 57.8567 18.8912 57.8545 18.8763 57.8588L18.0005 58.1455C17.9643 58.1573 17.9302 58.1221 17.943 58.0859L18.2484 57.2149C18.2537 57.2011 18.2516 57.1851 18.242 57.1723L17.6993 56.4261C17.677 56.3952 17.6993 56.3515 17.7376 56.3525L18.6592 56.3749C18.6741 56.3749 18.689 56.3685 18.6975 56.3557L19.2381 55.6074C19.2615 55.5786 19.3094 55.5861 19.3211 55.6234Z" fill="#F8678F"/>
<path d="M66.4128 54.5816L68.0846 54.9259C68.1122 54.9312 68.141 54.9238 68.1612 54.9035L69.3913 53.7192C69.4424 53.6702 69.5275 53.7011 69.535 53.7714L69.7244 55.4696C69.7276 55.4973 69.7446 55.5218 69.7691 55.5357L71.2738 56.3426C71.3366 56.3757 71.3334 56.4663 71.2685 56.4961L69.7148 57.2018C69.6893 57.2135 69.6712 57.237 69.6659 57.2647L69.3647 58.9469C69.352 59.0161 69.2658 59.0417 69.2179 58.9895L68.0675 57.7274C68.0484 57.7071 68.0207 57.6964 67.9931 57.7007L66.3032 57.9342C66.233 57.9438 66.183 57.8691 66.217 57.8073L67.0598 56.3213C67.0736 56.2968 67.0747 56.2669 67.0619 56.2414L66.3181 54.7031C66.2883 54.6381 66.3436 54.5667 66.4128 54.5816Z" fill="#FDA4BD"/>
<path d="M9.31443 4.11523L9.85608 5.93169C9.86459 5.96154 9.888 5.98499 9.9178 5.99458L11.7183 6.57768C11.7928 6.6022 11.8077 6.70134 11.7428 6.74611L10.186 7.82383C10.1604 7.84196 10.1455 7.87074 10.1455 7.90166L10.1487 9.79806C10.1487 9.87695 10.0593 9.92172 9.99654 9.87375L8.49291 8.72247C8.46844 8.70329 8.43545 8.69796 8.40565 8.70755L6.6062 9.29598C6.53171 9.32049 6.46147 9.24908 6.48808 9.17446L7.11592 7.38571C7.12656 7.35586 7.12124 7.32388 7.10315 7.2983L5.98793 5.76646C5.94217 5.7025 5.98793 5.61403 6.06668 5.61616L7.95872 5.66199C7.98958 5.66306 8.01937 5.64814 8.03746 5.62255L9.14736 4.08645C9.19312 4.02355 9.29208 4.04061 9.31443 4.11523Z" fill="#FDA4BD"/>
<path d="M58.4874 44.4495L58.9727 44.9761C58.9812 44.9846 58.9929 44.9889 59.0036 44.9867L59.7123 44.8844C59.7421 44.8801 59.7633 44.9111 59.7484 44.9377L59.3983 45.5634C59.393 45.5741 59.392 45.5858 59.3973 45.5965L59.7133 46.2404C59.7261 46.267 59.7038 46.2969 59.674 46.2915L58.9716 46.1508C58.9599 46.1487 58.9482 46.1519 58.9397 46.1604L58.4257 46.6604C58.4044 46.6806 58.3683 46.6689 58.3651 46.639L58.281 45.927C58.2799 45.9152 58.2725 45.9046 58.2618 45.8992L57.6287 45.5645C57.6021 45.5507 57.6031 45.5123 57.6308 45.5006L58.281 45.201C58.2916 45.1957 58.2991 45.1861 58.3012 45.1744L58.4236 44.4676C58.431 44.4378 58.4672 44.4271 58.4874 44.4495Z" fill="#F8678F"/>
<path d="M2.09206 0.0207654L2.35597 0.637975C2.36022 0.648635 2.3698 0.655031 2.38044 0.657163L3.03702 0.789345C3.06468 0.794675 3.0732 0.828786 3.05298 0.847974L2.54858 1.2893C2.54006 1.29676 2.53581 1.30742 2.53687 1.31808L2.61455 1.9854C2.61775 2.01311 2.58795 2.0323 2.56454 2.01844L1.98884 1.67412C1.97926 1.66879 1.96756 1.66773 1.95798 1.67199L1.34929 1.95128C1.32375 1.96301 1.29609 1.94063 1.30247 1.91291L1.45145 1.25839C1.45358 1.24773 1.45039 1.236 1.44294 1.22854L0.989614 0.734978C0.97046 0.714724 0.983229 0.681682 1.0109 0.678484L1.67811 0.617721C1.68875 0.616655 1.69939 0.610262 1.70472 0.600668L2.03353 0.0154302C2.04524 -0.00695577 2.08036 -0.00481857 2.09206 0.0207654Z" fill="#F8678F"/>
</g>
</svg>
