<svg width="15" height="15" viewBox="0 0 15 15" fill="none" xmlns="http://www.w3.org/2000/svg">
<path d="M10.275 1.93872C9.14375 1.93872 8.13125 2.48872 7.5 3.33247C7.17758 2.90048 6.75891 2.54959 6.27721 2.30765C5.79551 2.06572 5.26404 1.9394 4.725 1.93872C2.80625 1.93872 1.25 3.50122 1.25 5.43247C1.25 6.17622 1.36875 6.86372 1.575 7.50122C2.5625 10.6262 5.60625 12.495 7.1125 13.0075C7.325 13.0825 7.675 13.0825 7.8875 13.0075C9.39375 12.495 12.4375 10.6262 13.425 7.50122C13.6312 6.86372 13.75 6.17622 13.75 5.43247C13.75 3.50122 12.1938 1.93872 10.275 1.93872Z" fill="#49454F"/>
</svg>
