<svg width="15" height="15" viewBox="0 0 15 15" fill="none" xmlns="http://www.w3.org/2000/svg">
<path d="M10.625 1.25H4.375C2.65 1.25 1.25 2.64375 1.25 4.3625V8.725C1.25 10.4438 2.65 11.8375 4.375 11.8375H5.3125C5.48125 11.8375 5.70625 11.95 5.8125 12.0875L6.75 13.3313C7.1625 13.8813 7.8375 13.8813 8.25 13.3313L9.1875 12.0875C9.30625 11.9312 9.49375 11.8375 9.6875 11.8375H10.625C12.35 11.8375 13.75 10.4438 13.75 8.725V4.3625C13.75 2.64375 12.35 1.25 10.625 1.25ZM5 7.5C4.65 7.5 4.375 7.21875 4.375 6.875C4.375 6.53125 4.65625 6.25 5 6.25C5.34375 6.25 5.625 6.53125 5.625 6.875C5.625 7.21875 5.35 7.5 5 7.5ZM7.5 7.5C7.15 7.5 6.875 7.21875 6.875 6.875C6.875 6.53125 7.15625 6.25 7.5 6.25C7.84375 6.25 8.125 6.53125 8.125 6.875C8.125 7.21875 7.85 7.5 7.5 7.5ZM10 7.5C9.65 7.5 9.375 7.21875 9.375 6.875C9.375 6.53125 9.65625 6.25 10 6.25C10.3438 6.25 10.625 6.53125 10.625 6.875C10.625 7.21875 10.35 7.5 10 7.5Z" fill="#49454F"/>
</svg>
