<svg width="14" height="14" viewBox="0 0 14 14" fill="none" xmlns="http://www.w3.org/2000/svg">
<path d="M0.999971 9.00004C0.735002 9.00082 0.481109 9.10643 0.293747 9.2938C0.106385 9.48117 0.000780577 9.73508 0 10.0001V12.9994C0.000780577 13.2644 0.106385 13.5183 0.293747 13.7057C0.481109 13.8931 0.735002 13.9987 0.999971 13.9995H3.99921C4.26442 13.9995 4.51877 13.8941 4.7063 13.7066C4.89383 13.519 4.99918 13.2647 4.99918 12.9994C4.99918 12.7342 4.89383 12.4799 4.7063 12.2923C4.51877 12.1048 4.26442 11.9994 3.99921 11.9994H1.99994V10.0001C1.99916 9.73508 1.89356 9.48117 1.7062 9.2938C1.51883 9.10643 1.26494 9.00082 0.999971 9.00004ZM0.999971 5.0001C1.26494 4.99932 1.51883 4.89371 1.7062 4.70634C1.89356 4.51896 1.99916 4.26506 1.99994 4.00008V2.00004H3.99988C4.26509 2.00004 4.51944 1.89468 4.70697 1.70714C4.8945 1.5196 4.99986 1.26524 4.99986 1.00002C4.99986 0.734798 4.8945 0.480439 4.70697 0.292899C4.51944 0.105359 4.26509 0 3.99988 0H1.00064C0.735558 0.000603204 0.481493 0.106134 0.293985 0.293525C0.106478 0.480915 0.000781384 0.734922 0 1.00002V3.9994C0.000638668 4.26448 0.10618 4.51852 0.293558 4.70601C0.480935 4.8935 0.734909 4.99918 0.999971 4.99996V5.0001ZM11.9994 12H9.99958C9.73437 12 9.48002 12.1053 9.29249 12.2929C9.10496 12.4804 8.99961 12.7348 8.99961 13C8.99961 13.2652 9.10496 13.5196 9.29249 13.7071C9.48002 13.8946 9.73437 14 9.99958 14H12.9988C13.2638 13.9992 13.5177 13.8936 13.705 13.7062C13.8924 13.5189 13.998 13.265 13.9988 13V10.0006C13.9988 9.73537 13.8934 9.48102 13.7059 9.29348C13.5184 9.10594 13.264 9.00058 12.9988 9.00058C12.7336 9.00058 12.4793 9.10594 12.2917 9.29348C12.1042 9.48102 11.9988 9.73537 11.9988 10.0006L11.9994 12ZM9.00014 1.00002C9.00092 1.265 9.10653 1.51891 9.29389 1.70628C9.48125 1.89365 9.73515 1.99926 10.0001 2.00004H12.0001V4.00008C12.0001 4.2653 12.1054 4.51966 12.2929 4.7072C12.4805 4.89474 12.7348 5.0001 13 5.0001C13.2652 5.0001 13.5196 4.89474 13.7071 4.7072C13.8946 4.51966 14 4.2653 14 4.00008V1.00069C13.9994 0.735477 13.8938 0.481298 13.7063 0.293763C13.5187 0.106228 13.2646 0.000603933 12.9994 0H10.0001C9.73505 0.000638699 9.48102 0.106186 9.29354 0.293572C9.10606 0.480958 9.00039 0.734945 8.99961 1.00002H9.00014Z" fill="black"/>
</svg>
