<svg width="20" height="16" viewBox="0 0 20 16" fill="none" xmlns="http://www.w3.org/2000/svg">
<g clip-path="url(#clip0_762_3774)">
<path d="M18.346 16H1.65455C1.31458 16.0015 0.982593 15.887 0.704478 15.6724C0.426362 15.4577 0.215858 15.1536 0.102065 14.8019C0.034084 14.6046 -0.000380619 14.3952 0.000378483 14.1843V1.81587C0.000378483 1.33427 0.174669 0.872399 0.484908 0.531857C0.795148 0.191315 1.21592 0 1.65467 0H18.346C18.7847 0 19.2055 0.191315 19.5157 0.531857C19.826 0.872399 20.0003 1.33427 20.0003 1.81587V14.1841C19.9999 14.4005 19.9631 14.6149 19.8917 14.8166C19.7761 15.1643 19.5657 15.4645 19.2891 15.6762C19.0125 15.888 18.6832 16.001 18.346 16ZM1.65455 1.11632C1.48553 1.11632 1.32343 1.19002 1.20391 1.32121C1.08439 1.4524 1.01725 1.63034 1.01725 1.81587V14.1841C1.01789 14.2631 1.03169 14.3413 1.05797 14.4149C1.10041 14.5516 1.18075 14.6703 1.28773 14.7543C1.39471 14.8384 1.52298 14.8836 1.65455 14.8837H18.346C18.475 14.8843 18.6011 14.841 18.7067 14.7597C18.8124 14.6784 18.8925 14.5631 18.936 14.4297C18.9656 14.3518 18.9817 14.2685 18.9834 14.1841V1.81587C18.9834 1.63034 18.9163 1.4524 18.7967 1.32121C18.6772 1.19002 18.5151 1.11632 18.3461 1.11632H1.65455Z" fill="#1D192B"/>
<path d="M14.6168 15.9997H1.65411C1.43117 15.9996 1.21055 15.9501 1.00549 15.8541C0.800428 15.7581 0.615164 15.6175 0.460823 15.441C0.283579 15.2421 0.184326 14.975 0.184326 14.6968C0.184326 14.4186 0.283579 14.1514 0.460823 13.9526L5.68849 8.21556C5.80814 8.08393 5.95028 7.97949 6.10675 7.90823C6.26322 7.83697 6.43097 7.80029 6.60037 7.80029C6.76978 7.80029 6.93752 7.83697 7.094 7.90823C7.25047 7.97949 7.3926 8.08393 7.51226 8.21556L14.6168 15.9997ZM6.61003 8.91537C6.53855 8.91638 6.47033 8.94832 6.42019 9.00426L1.1864 14.7349C1.32681 14.8248 1.48502 14.8759 1.6474 14.8838H12.1553L6.79316 8.99728C6.74369 8.94564 6.67829 8.9164 6.61003 8.91537Z" fill="#1D192B"/>
<path d="M18.3457 15.9999H13.1797L9.2811 11.7205L12.4813 8.20829C12.6009 8.07659 12.7431 7.97211 12.8996 7.90082C13.0561 7.82952 13.2239 7.79283 13.3933 7.79283C13.5628 7.79283 13.7306 7.82952 13.8871 7.90082C14.0436 7.97211 14.1857 8.07659 14.3054 8.20829L19.4579 13.8642C19.5624 13.9792 19.6446 14.1163 19.6994 14.2673C19.7542 14.4182 19.7804 14.5798 19.7765 14.7423C19.7728 14.8934 19.7408 15.0421 19.6825 15.1791C19.6242 15.3161 19.5408 15.4385 19.4375 15.5386C19.1372 15.8338 18.7488 15.9979 18.3457 15.9999ZM13.5997 14.8837H18.3454C18.5 14.8851 18.6496 14.8242 18.7658 14.7125L19.0981 14.2661L18.7388 14.6605L13.5864 9.0046C13.5357 8.95005 13.4676 8.91949 13.3966 8.91949C13.3256 8.91949 13.2574 8.95005 13.2067 9.0046L10.7192 11.7209L13.5997 14.8837ZM9.99996 6.63813C9.51187 6.61286 9.05214 6.37902 8.71905 5.98658C8.38596 5.59415 8.20593 5.07426 8.21744 4.53804C8.22895 4.00183 8.4311 3.49183 8.78066 3.11705C9.13023 2.74228 9.59948 2.53247 10.0881 2.53247C10.5768 2.53247 11.046 2.74228 11.3956 3.11705C11.7451 3.49183 11.9473 4.00183 11.9588 4.53804C11.9703 5.07426 11.7903 5.59415 11.4572 5.98658C11.1241 6.37902 10.6644 6.61286 10.1763 6.63813H9.99996ZM9.99996 3.66136C9.85549 3.66134 9.71341 3.70185 9.58722 3.77906C9.46102 3.85626 9.3549 3.9676 9.27894 4.10249C9.20297 4.23738 9.15968 4.39135 9.15317 4.54977C9.14667 4.7082 9.17717 4.86581 9.24178 5.00766C9.30638 5.1495 9.40295 5.27086 9.52231 5.36022C9.64166 5.44957 9.77985 5.50394 9.92374 5.51818C10.0676 5.53242 10.2124 5.50604 10.3444 5.44156C10.4764 5.37707 10.5912 5.27662 10.6779 5.14975C10.7723 5.01154 10.8298 4.84721 10.8439 4.67516C10.858 4.50312 10.8282 4.33015 10.7579 4.17564C10.6875 4.02113 10.5793 3.89118 10.4455 3.80035C10.3116 3.70952 10.1573 3.66139 9.99996 3.66136Z" fill="#1D192B"/>
<path d="M13.3898 15.4418H1.65417C1.49953 15.4427 1.34636 15.4089 1.2041 15.3424C1.06184 15.2758 0.933513 15.178 0.827021 15.0549C0.781085 15.0069 0.744511 14.9492 0.719519 14.8853C0.694528 14.8213 0.681641 14.7524 0.681641 14.6828C0.681641 14.6132 0.694528 14.5444 0.719519 14.4804C0.744511 14.4165 0.781085 14.3587 0.827021 14.3108L6.05457 8.573C6.20062 8.41395 6.398 8.32471 6.60373 8.32471C6.80945 8.32471 7.00684 8.41395 7.15288 8.573L13.3898 15.4418Z" fill="#1D192B"/>
<path d="M19.0982 14.266C19.1508 14.3222 19.1925 14.3893 19.221 14.4635C19.2495 14.5376 19.2642 14.6173 19.2642 14.6978C19.2642 14.7782 19.2495 14.8579 19.221 14.9321C19.1925 15.0062 19.1508 15.0733 19.0982 15.1295C18.8907 15.3313 18.623 15.4425 18.3457 15.442H13.3896L10 11.7209L12.8406 8.60278C12.9867 8.44374 13.1841 8.35449 13.3898 8.35449C13.5955 8.35449 13.7929 8.44374 13.9389 8.60278L19.0982 14.266Z" fill="#1D192B"/>
<path d="M11.0476 5.53803C11.5254 4.90509 11.4452 3.96683 10.8686 3.44239C10.292 2.91795 9.43722 3.00591 8.95945 3.63886C8.48167 4.27181 8.56181 5.21006 9.13843 5.7345C9.71506 6.25894 10.5698 6.17098 11.0476 5.53803Z" fill="#1D192B"/>
</g>
<defs>
<clipPath id="clip0_762_3774">
<rect width="20" height="16" fill="white"/>
</clipPath>
</defs>
</svg>
