<svg width="15" height="15" viewBox="0 0 15 15" fill="none" xmlns="http://www.w3.org/2000/svg">
<path d="M7.5 1.25C4.05625 1.25 1.25 4.05625 1.25 7.5C1.25 10.9438 4.05625 13.75 7.5 13.75C10.9438 13.75 13.75 10.9438 13.75 7.5C13.75 4.05625 10.9438 1.25 7.5 1.25ZM10.2188 9.73125C10.1875 9.78451 10.1459 9.83103 10.0965 9.86809C10.047 9.90515 9.99076 9.93202 9.93086 9.94714C9.87097 9.96226 9.80866 9.96532 9.74757 9.95616C9.68648 9.94699 9.62782 9.92578 9.575 9.89375L7.6375 8.7375C7.15625 8.45 6.8 7.81875 6.8 7.2625V4.7C6.8 4.44375 7.0125 4.23125 7.26875 4.23125C7.525 4.23125 7.7375 4.44375 7.7375 4.7V7.2625C7.7375 7.4875 7.925 7.81875 8.11875 7.93125L10.0562 9.0875C10.2812 9.21875 10.3562 9.50625 10.2188 9.73125Z" fill="#49454F"/>
</svg>
