<svg width="512" height="512" viewBox="0 0 512 512" fill="none" xmlns="http://www.w3.org/2000/svg">
<rect width="512" height="512" fill="white"/>
<path d="M79.4374 51.7014C100.197 82.4014 121.037 113.051 141.787 143.751C149.357 154.941 157.257 165.911 164.147 177.551C175.557 194.221 186.987 210.871 198.377 227.551C203.647 235.271 208.767 243.111 214.127 250.781C214.817 251.771 215.247 252.561 215.327 253.251C218.567 257.811 221.787 262.391 225.007 266.981C227.157 270.041 229.297 273.111 231.427 276.191C231.877 276.551 232.317 277.041 232.797 277.671C256.767 309.421 288.467 328.461 327.747 334.711C334.317 335.761 341.027 335.941 347.677 336.531C349.997 336.351 352.317 336.111 354.647 336.001C388.587 334.441 418.697 322.771 443.897 300.081C480.127 267.471 496.357 226.471 492.337 177.731C489.677 145.461 477.187 117.231 455.397 93.5314C426.547 62.1714 390.427 46.3114 347.717 46.2614C259.347 46.1414 170.977 46.2014 82.6074 46.2414C80.9074 46.2414 78.5674 45.2514 77.6074 47.2814C76.8574 48.8814 78.5474 50.3814 79.4374 51.7014ZM290.877 112.801C294.627 109.371 299.117 108.551 303.907 110.651C307.517 112.231 309.497 115.201 310.777 118.811C313.957 127.761 317.357 136.641 320.397 145.641C321.437 148.731 323.017 149.641 326.197 149.601C341.387 149.441 356.577 149.441 371.767 149.611C375.007 149.651 376.497 148.521 377.517 145.541C380.757 136.081 384.087 126.641 387.697 117.311C389.967 111.431 395.757 108.491 401.357 109.771C406.917 111.041 410.857 116.051 410.807 121.781C410.777 125.741 408.947 129.211 407.657 132.791C392.157 175.941 376.577 219.061 360.997 262.181C358.577 268.871 354.367 272.371 348.857 272.371C343.377 272.371 339.427 269.291 336.997 262.571C320.707 217.571 304.497 172.551 288.237 127.541C286.267 122.081 286.367 116.931 290.877 112.801Z" fill="#DCDBDB"/>
<path d="M410.807 121.791C410.777 125.751 408.937 129.221 407.657 132.801C392.157 175.951 376.577 219.071 360.997 262.191C358.577 268.881 354.367 272.381 348.857 272.381C343.377 272.381 339.427 269.301 336.997 262.581C320.707 217.581 304.497 172.561 288.237 127.551C286.267 122.091 286.357 116.941 290.877 112.811C294.627 109.381 299.117 108.561 303.907 110.661C307.517 112.241 309.497 115.211 310.777 118.821C313.957 127.771 317.357 136.651 320.397 145.651C321.437 148.741 323.017 149.651 326.197 149.611C341.387 149.451 356.577 149.451 371.767 149.621C375.007 149.661 376.497 148.531 377.517 145.551C380.757 136.091 384.087 126.651 387.697 117.321C389.967 111.441 395.757 108.501 401.357 109.781C406.917 111.051 410.857 116.061 410.807 121.791ZM348.407 223.041C349.187 222.531 349.577 222.421 349.657 222.201C355.137 207.151 360.547 192.071 366.077 177.041C367.347 173.601 365.157 173.861 363.077 173.861C353.887 173.841 344.697 173.941 335.507 173.781C331.777 173.721 330.757 174.741 332.167 178.431C335.717 187.791 338.977 197.271 342.387 206.681C344.347 212.101 346.367 217.491 348.407 223.041Z" fill="#DCDBDB"/>
<path d="M348.407 223.041C346.367 217.501 344.347 212.101 342.387 206.691C338.977 197.271 335.727 187.801 332.167 178.441C330.767 174.741 331.777 173.721 335.507 173.791C344.697 173.951 353.887 173.851 363.077 173.871C365.157 173.871 367.337 173.611 366.077 177.051C360.547 192.081 355.137 207.161 349.657 222.211C349.577 222.421 349.187 222.531 348.407 223.041Z" fill="#DCDBDB"/>
<path d="M347.967 334.871C354.837 346.481 362.727 357.421 370.267 368.581C390.967 399.201 411.757 429.761 432.467 460.371C433.357 461.691 435.037 463.181 434.287 464.781C433.337 466.801 430.997 465.811 429.307 465.821C341.157 465.861 253.007 465.921 164.857 465.801C122.257 465.741 86.2273 449.931 57.4473 418.661C35.7073 395.031 23.2573 366.871 20.5973 334.691C16.5873 286.081 32.7773 245.201 68.9173 212.681C94.0573 190.061 124.087 178.421 157.947 176.861C160.267 176.751 162.577 176.511 164.897 176.331C171.527 176.911 178.217 177.101 184.777 178.141C223.957 184.371 255.577 203.361 279.487 235.021C281.217 237.311 282.457 237.851 285.157 236.601C293.647 232.651 301.667 227.941 309.567 222.961C312.637 221.021 312.657 219.721 310.277 216.991C299.687 204.811 291.427 191.211 286.287 175.821C283.567 167.671 286.227 160.951 293.127 158.501C300.037 156.051 306.147 159.661 309.077 167.831C313.337 179.701 319.677 190.361 327.567 200.211C330.607 204.011 332.187 203.611 334.717 199.901C344.337 185.781 349.027 170.031 351.167 153.271C351.707 149.031 350.857 147.851 346.487 147.881C320.157 148.061 293.827 147.961 267.487 147.951C264.827 147.951 262.187 148.071 259.747 146.561C255.057 143.651 253.127 137.441 255.017 130.951C256.297 126.541 260.307 123.711 265.777 123.691C281.777 123.621 297.777 123.501 313.777 123.751C318.087 123.821 319.317 122.361 319.017 118.351C318.747 114.701 318.807 111.011 319.017 107.361C319.407 100.471 323.617 96.8211 330.967 96.7411C338.577 96.6511 342.657 99.8811 343.277 106.821C343.587 110.291 343.467 113.811 343.477 117.311C343.507 123.671 343.487 123.681 350.067 123.681C366.067 123.681 382.067 123.591 398.067 123.701C404.907 123.741 408.787 128.401 408.777 136.011C408.767 143.231 404.867 147.731 398.187 147.911C392.527 148.071 386.837 148.241 381.197 147.881C377.177 147.621 375.807 148.851 375.437 152.931C373.257 176.771 366.437 198.961 351.127 217.901C349.047 220.471 350.967 221.351 352.607 222.471C360.867 228.131 369.547 233.051 378.667 237.211C386.507 240.781 389.447 247.391 386.277 254.061C383.147 260.651 376.097 262.551 368.357 259.101C356.287 253.711 344.977 247.041 334.317 239.271C332.417 237.881 330.997 237.091 328.667 238.891C319.547 245.941 309.667 251.841 299.237 256.721C296.087 258.201 296.417 259.461 298.097 261.861C303.437 269.511 308.537 277.321 313.807 285.021C325.177 301.641 336.577 318.251 347.967 334.871ZM101.917 390.481C101.867 396.201 105.797 401.191 111.347 402.461C116.937 403.731 122.707 400.801 124.977 394.941C128.577 385.641 131.897 376.231 135.137 366.791C136.157 363.821 137.637 362.691 140.877 362.731C156.027 362.901 171.187 362.901 186.337 362.741C189.507 362.711 191.087 363.611 192.127 366.691C195.147 375.671 198.547 384.521 201.717 393.451C202.997 397.061 204.967 400.011 208.577 401.591C213.357 403.681 217.827 402.871 221.567 399.451C226.077 395.331 226.167 390.191 224.197 384.751C207.977 339.871 191.807 294.971 175.557 250.101C173.127 243.401 169.187 240.331 163.727 240.331C158.237 240.331 154.027 243.811 151.617 250.491C136.077 293.491 120.537 336.491 105.077 379.521C103.777 383.071 101.947 386.531 101.917 390.481Z" fill="#518FF5"/>
<path d="M101.917 390.481C101.947 386.531 103.777 383.071 105.057 379.511C120.517 336.481 136.067 293.481 151.597 250.481C154.007 243.811 158.207 240.321 163.707 240.321C169.167 240.321 173.107 243.391 175.537 250.091C191.787 294.961 207.957 339.861 224.177 384.741C226.147 390.191 226.047 395.321 221.547 399.441C217.807 402.861 213.327 403.681 208.557 401.581C204.957 400.001 202.987 397.051 201.697 393.441C198.527 384.511 195.127 375.661 192.107 366.681C191.067 363.601 189.487 362.691 186.317 362.731C171.167 362.891 156.007 362.891 140.857 362.721C137.627 362.681 136.137 363.811 135.117 366.781C131.887 376.221 128.557 385.631 124.957 394.931C122.687 400.801 116.917 403.731 111.327 402.451C105.807 401.191 101.877 396.201 101.917 390.481ZM164.167 289.511C163.387 290.021 162.997 290.121 162.917 290.341C157.447 305.351 152.057 320.381 146.537 335.371C145.277 338.801 147.457 338.541 149.527 338.551C158.697 338.571 167.857 338.471 177.027 338.631C180.747 338.691 181.767 337.681 180.367 333.991C176.817 324.651 173.577 315.211 170.177 305.821C168.217 300.421 166.207 295.041 164.167 289.511Z" fill="#518FF5"/>
<path d="M164.167 289.512C166.207 295.042 168.217 300.422 170.167 305.812C173.567 315.202 176.817 324.652 180.357 333.982C181.757 337.672 180.747 338.682 177.017 338.622C167.857 338.462 158.687 338.562 149.517 338.542C147.447 338.542 145.267 338.802 146.527 335.362C152.047 320.372 157.437 305.342 162.907 290.332C162.997 290.122 163.387 290.022 164.167 289.512Z" fill="#518FF5"/>
<path d="M223.647 277.111C223.647 282.051 219.767 285.941 214.817 285.941H176.147V398.231C176.147 403.171 172.087 407.061 167.317 407.061C162.377 407.061 158.487 403.181 158.487 398.231V285.941H119.647C114.707 285.941 110.817 282.061 110.817 277.111C110.817 272.171 114.697 268.281 119.647 268.281H214.817C219.757 268.281 223.647 272.171 223.647 277.111Z" fill="white" stroke="white" stroke-width="6" stroke-miterlimit="10"/>
<path d="M259.757 146.552C262.197 148.062 264.837 147.942 267.497 147.942C293.827 147.952 320.167 148.052 346.497 147.872C350.867 147.842 351.717 149.022 351.177 153.262C349.037 170.022 344.337 185.772 334.727 199.892C332.197 203.602 330.617 204.002 327.577 200.202C319.687 190.352 313.347 179.692 309.087 167.822C306.157 159.652 300.047 156.042 293.137 158.492C286.237 160.942 283.577 167.672 286.297 175.812C291.437 191.202 299.697 204.802 310.287 216.982C312.667 219.722 312.647 221.022 309.577 222.952C301.677 227.942 293.657 232.652 285.167 236.592C283.197 237.512 281.997 237.452 280.827 236.472C282.297 238.562 283.367 240.082 283.657 240.492C284.537 241.742 292.077 252.382 296.897 259.422C296.737 258.392 297.367 257.582 299.257 256.702C309.687 251.822 319.567 245.922 328.687 238.872C331.017 237.072 332.437 237.862 334.337 239.252C344.997 247.032 356.307 253.702 368.377 259.082C376.107 262.532 383.167 260.632 386.297 254.042C389.467 247.372 386.527 240.762 378.687 237.192C369.567 233.032 360.897 228.112 352.627 222.452C350.987 221.332 349.067 220.452 351.147 217.882C366.457 198.942 373.277 176.752 375.457 152.912C375.827 148.832 377.197 147.602 381.217 147.862C386.857 148.222 392.547 148.042 398.207 147.892C404.887 147.702 408.787 143.212 408.797 135.992C408.807 128.382 404.927 123.722 398.087 123.682C382.087 123.582 366.087 123.662 350.087 123.662C343.497 123.662 343.517 123.652 343.497 117.292C343.487 113.792 343.607 110.272 343.297 106.802C342.667 99.8616 338.597 96.6316 330.987 96.7216C323.637 96.8016 319.427 100.452 319.037 107.342C318.827 111.002 318.767 114.692 319.037 118.332C319.327 122.342 318.097 123.802 313.797 123.732C297.797 123.482 281.797 123.602 265.797 123.672C260.327 123.692 256.317 126.522 255.037 130.932C253.137 137.432 255.067 143.642 259.757 146.552Z" fill="#636464"/>
</svg>
