<svg width="24" height="22" viewBox="0 0 24 22" fill="none" xmlns="http://www.w3.org/2000/svg">
<path d="M18.4346 0.798828V5.18129Z" fill="#9D9D9D"/>
<path d="M18.4346 0.798828V5.18129" stroke="#9D9D9D" stroke-linecap="round" stroke-linejoin="round"/>
<path d="M16.2383 2.99023H20.6307Z" fill="#9D9D9D"/>
<path d="M16.2383 2.99023H20.6307" stroke="#9D9D9D" stroke-linecap="round" stroke-linejoin="round"/>
<path d="M23.8212 8.16972C23.8171 7.00962 22.8522 6.07568 21.6865 6.05871C21.4504 6.05528 21.2142 6.05757 20.9778 6.05697H20.9552C20.719 6.05791 20.4828 6.05839 20.2468 6.05839C19.9658 6.05839 19.6847 6.0576 19.4037 6.05605C19.3606 6.05713 19.3113 6.0573 19.2542 6.05741C19.1246 6.05741 18.995 6.05741 18.8654 6.05741C18.7914 6.05871 18.6991 6.05931 18.6227 6.05741C18.3667 6.05741 18.1106 6.05741 17.8546 6.05741C17.725 6.05947 17.5808 6.06013 17.5536 6.0604C17.136 6.06518 16.7184 6.0654 16.3008 6.06556C15.8832 6.06573 15.4655 6.06486 15.0479 6.0604C14.9258 6.05985 14.8037 6.05804 14.6816 6.05496C14.6605 6.05496 14.6395 6.05447 14.6185 6.05371C14.4076 6.05518 14.1967 6.05768 13.9861 6.06284C13.7106 6.06959 13.643 5.94863 13.6448 5.70468C13.6514 4.82557 13.617 3.9452 13.6535 3.06756C13.7092 1.73096 12.6632 0.682968 11.292 0.725882C10.2453 0.758516 9.19661 0.735454 8.14875 0.731973C7.52182 0.73676 6.61712 0.736487 6.00114 0.731429C4.75943 0.731864 3.5176 0.729472 2.27589 0.733225C0.928737 0.73725 0.00294387 1.66782 0.00136291 3.01447C-0.000454302 4.51906 -0.000454302 6.02365 0.00136291 7.52824C0.00158097 9.03279 0.00179701 10.5374 0.00201508 12.0419C0.00381411 13.443 0.909548 14.3604 2.32043 14.3641C4.79143 14.3706 7.26248 14.363 9.73349 14.3594C10.1596 14.3587 10.16 14.356 10.1648 14.7736C10.1757 15.7432 10.1301 16.7138 10.1901 17.6823C10.2222 18.1336 10.3968 18.5632 10.6889 18.9093C10.9809 19.2553 11.3754 19.5002 11.8156 19.6087C12.1292 19.688 12.4476 19.6718 12.7645 19.6677C13.005 19.6646 13.1114 19.7522 13.1056 20.0021C13.0947 20.4731 13.1025 20.9446 13.1044 21.4159C13.1054 21.6389 13.1179 21.8648 13.3638 21.9669C13.592 22.0617 13.7625 21.9369 13.9259 21.7933C14.6279 21.1763 15.3388 20.569 16.0319 19.9421C16.1293 19.8493 16.2444 19.7769 16.3704 19.7293C16.4964 19.6817 16.6307 19.6599 16.7653 19.6651C18.4186 19.6741 20.0722 19.6804 21.7254 19.6626C22.2828 19.6561 22.8153 19.4309 23.2076 19.0358C23.6 18.6407 23.8206 18.1074 23.8219 17.5512C23.8314 14.4239 23.8312 11.2967 23.8212 8.16972ZM10.7435 5.45802C10.3985 5.4689 10.0533 5.4711 9.70797 5.4646C9.52229 5.46145 9.43059 5.53912 9.38175 5.71687C9.04189 6.95469 8.4215 8.04195 7.56892 8.99662C7.39321 9.19335 7.39894 9.30311 7.60997 9.46644C8.30375 10.0099 9.05861 10.471 9.85931 10.8402C10.146 10.9708 10.2998 11.4198 10.1591 11.7056C10.0828 11.8604 9.97341 11.7722 9.88111 11.7351C9.13905 11.436 8.43345 11.0538 7.77788 10.5958C7.50762 10.4121 7.24682 10.2149 6.99645 10.005C6.82199 9.8555 6.70026 9.86708 6.52902 10.0123C5.62765 10.7765 4.61098 11.3503 3.51428 11.786C3.40524 11.8295 3.29621 11.8839 3.17328 11.8622C3.00706 11.8327 2.88799 11.7407 2.84618 11.5744C2.79973 11.3895 2.8488 11.227 3.01764 11.1267C3.13703 11.0614 3.26091 11.0046 3.38834 10.9568C4.28964 10.5889 5.13295 10.093 5.89216 9.48461C6.15455 9.2721 6.15581 9.25111 5.92106 8.99923C5.52893 8.58291 5.17531 8.13208 4.86453 7.65224C4.68926 7.37871 4.71325 7.14467 4.92041 7.00397C5.12855 6.86255 5.35889 6.92918 5.53917 7.19939C5.84717 7.65926 6.19079 8.09437 6.56686 8.50074C6.70811 8.65396 6.80329 8.64117 6.93713 8.48877C7.62031 7.72011 8.14704 6.82616 8.48795 5.85676C8.60729 5.51513 8.56973 5.46732 8.19444 5.46656C7.33134 5.46475 6.46816 5.46457 5.60492 5.46602V5.46477C4.74182 5.46477 3.87865 5.46466 3.0154 5.46444C2.87911 5.46444 2.73955 5.47086 2.62495 5.37742C2.56536 5.33467 2.51945 5.27563 2.49275 5.20742C2.46605 5.13922 2.45971 5.06476 2.47449 4.99304C2.48434 4.92016 2.51623 4.85202 2.56591 4.79769C2.61559 4.74337 2.68068 4.70545 2.75252 4.689C2.87665 4.6632 3.00327 4.6513 3.13004 4.65353C4.09307 4.65076 5.05611 4.65353 6.01913 4.65081C6.36308 4.64989 6.38532 4.62362 6.39033 4.27514C6.39344 4.05757 6.3857 3.83969 6.39666 3.62245C6.41176 3.32406 6.57656 3.15072 6.82052 3.15817C7.0557 3.1653 7.19608 3.33021 7.20519 3.62425C7.21222 3.85067 7.21838 4.07792 7.2066 4.30413C7.19325 4.56004 7.29426 4.65804 7.55594 4.65538C8.51886 4.64543 9.482 4.65152 10.445 4.65261C10.554 4.64897 10.663 4.65321 10.7714 4.66528C11.008 4.7002 11.1651 4.8798 11.1425 5.09138C11.1178 5.32471 10.9736 5.45084 10.7435 5.45802ZM23.0089 17.3821C23.0082 18.3082 22.4656 18.8519 21.5348 18.8548C19.8543 18.8603 18.1736 18.8624 16.4931 18.8523C16.3444 18.8462 16.196 18.8703 16.0569 18.9232C15.9179 18.976 15.791 19.0564 15.684 19.1597C15.2049 19.6034 14.706 20.026 14.2134 20.4553C14.1549 20.5063 14.1016 20.5972 14.0086 20.5593C13.9156 20.5215 13.94 20.4199 13.9383 20.3428C13.9306 20.0075 13.9383 19.6718 13.9219 19.3371C13.9056 19.012 13.7701 18.878 13.4445 18.865C13.0816 18.8504 12.7177 18.8632 12.3546 18.8528C11.5523 18.8298 11.0133 18.2914 11.0013 17.4868C10.9899 16.7166 10.9973 15.9461 10.9969 15.1757C10.9965 14.4053 10.9969 13.6349 10.9969 12.8645C10.9972 11.3872 11.0254 9.90913 10.9876 8.43275C10.9609 7.39046 11.6963 6.85276 12.5482 6.85999C15.5277 6.8855 18.5075 6.86832 21.4872 6.87087C22.4705 6.87169 23.0082 7.40618 23.0091 8.38233C23.0112 11.3822 23.0112 14.3821 23.0089 17.3821Z" fill="#9D9D9D"/>
<path d="M16.9913 14.4794C16.5734 14.4794 16.1552 14.4903 15.7378 14.4755C15.4847 14.4667 15.341 14.55 15.2495 14.7978C15.055 15.3247 14.8289 15.84 14.6166 16.3605C14.5342 16.5625 14.4058 16.7021 14.1676 16.6814C13.895 16.6578 13.7373 16.4008 13.8424 16.118C14.0066 15.6763 14.19 15.2417 14.3677 14.8051C15.0818 13.0501 15.7965 11.2954 16.5118 9.54095C16.5461 9.44733 16.5867 9.35611 16.6333 9.26791C16.8072 8.96528 17.1811 8.96549 17.3592 9.26791C17.4023 9.34766 17.4396 9.4304 17.4709 9.51549C18.3328 11.6312 19.1942 13.747 20.0552 15.8629C20.0955 15.9541 20.1296 16.048 20.1574 16.1437C20.2192 16.3843 20.127 16.5919 19.9229 16.6572C19.687 16.7328 19.5058 16.6448 19.4085 16.4245C19.2475 16.0597 19.1074 15.6858 18.949 15.3198C18.5074 14.2996 18.8127 14.5031 17.6999 14.4797C17.4638 14.475 17.2275 14.4793 16.9913 14.4794ZM17.0114 13.6608V13.6618C17.3376 13.6618 17.6638 13.6591 17.99 13.6628C18.1928 13.6652 18.249 13.5909 18.1689 13.3967C17.814 12.5356 17.4663 11.6717 17.1138 10.8097C17.0881 10.747 17.0782 10.6499 16.9877 10.6548C16.9181 10.6586 16.9049 10.7435 16.8816 10.8005C16.5295 11.6626 16.1802 12.5259 15.8264 13.3873C15.7492 13.5755 15.8034 13.6616 16.0057 13.661C16.341 13.6602 16.6762 13.6608 17.0114 13.6608V13.6608Z" fill="#9D9D9D"/>
</svg>
