<svg width="25" height="24" viewBox="0 0 25 24" fill="none" xmlns="http://www.w3.org/2000/svg">
<path d="M19.3405 1.07837V5.67622" stroke="#49454F" stroke-linecap="round" stroke-linejoin="round"/>
<path d="M17.0363 3.3772H21.6446" stroke="#49454F" stroke-linecap="round" stroke-linejoin="round"/>
<path d="M24.9919 8.81102C24.9876 7.59391 23.9753 6.61406 22.7524 6.59626C22.5046 6.59266 22.2568 6.59506 22.0088 6.59443H21.9851C21.7373 6.59542 21.4895 6.59592 21.2419 6.59592C20.947 6.59592 20.6522 6.5951 20.3573 6.59346C20.3121 6.5946 20.2604 6.59478 20.2005 6.59489C20.0645 6.59489 19.9285 6.59489 19.7926 6.59489C19.715 6.59626 19.6181 6.59689 19.5379 6.59489C19.2693 6.59489 19.0007 6.59489 18.7321 6.59489C18.5961 6.59706 18.4448 6.59774 18.4163 6.59803C17.9782 6.60305 17.54 6.60328 17.1019 6.60345C16.6638 6.60362 16.2256 6.60271 15.7875 6.59803C15.6594 6.59746 15.5312 6.59555 15.4032 6.59232C15.3811 6.59232 15.359 6.59181 15.337 6.59101C15.1157 6.59255 14.8945 6.59517 14.6735 6.6006C14.3844 6.60767 14.3135 6.48076 14.3154 6.22483C14.3223 5.30251 14.2862 4.37888 14.3246 3.4581C14.383 2.05581 13.2856 0.956312 11.847 1.00133C10.7488 1.03557 9.6486 1.01138 8.54924 1.00773C7.89149 1.01275 6.94234 1.01246 6.29608 1.00715C4.99334 1.00761 3.69048 1.0051 2.38774 1.00904C0.974382 1.01326 0.00308856 1.98957 0.00142989 3.40241C-0.000476629 4.98094 -0.000476629 6.55947 0.00142989 8.13801C0.00165867 9.7165 0.00188533 11.295 0.00211411 12.8736C0.00400156 14.3435 0.954251 15.3059 2.43447 15.3098C5.02692 15.3167 7.61942 15.3086 10.2119 15.3049C10.659 15.3042 10.6594 15.3013 10.6644 15.7395C10.6758 16.7567 10.628 17.775 10.6909 18.7912C10.7246 19.2646 10.9078 19.7153 11.2142 20.0784C11.5206 20.4415 11.9345 20.6984 12.3963 20.8122C12.7253 20.8954 13.0594 20.8784 13.3918 20.8741C13.6442 20.8708 13.7558 20.9628 13.7497 21.2249C13.7383 21.7191 13.7465 22.2138 13.7485 22.7083C13.7495 22.9422 13.7626 23.1791 14.0206 23.2863C14.26 23.3858 14.4389 23.2548 14.6103 23.1042C15.3469 22.4568 16.0926 21.8197 16.8198 21.162C16.922 21.0646 17.0428 20.9887 17.175 20.9387C17.3072 20.8888 17.4481 20.8659 17.5893 20.8714C19.3239 20.8808 21.0587 20.8874 22.7932 20.8688C23.378 20.8619 23.9366 20.6257 24.3482 20.2112C24.7598 19.7966 24.9914 19.2371 24.9927 18.6536C25.0027 15.3726 25.0024 12.0917 24.9919 8.81102ZM11.2715 5.96605C10.9096 5.97746 10.5474 5.97976 10.1851 5.97295C9.99029 5.96965 9.89408 6.05113 9.84283 6.23762C9.48628 7.53627 8.83539 8.67697 7.94091 9.67856C7.75657 9.88496 7.76258 10.0001 7.98398 10.1715C8.71185 10.7417 9.50382 11.2254 10.3439 11.6128C10.6446 11.7497 10.806 12.2209 10.6584 12.5207C10.5784 12.6831 10.4636 12.5905 10.3667 12.5516C9.58822 12.2378 8.84794 11.8368 8.16014 11.3563C7.87661 11.1636 7.60298 10.9567 7.3403 10.7365C7.15728 10.5796 7.02956 10.5918 6.84991 10.7441C5.90424 11.546 4.8376 12.1479 3.687 12.6051C3.5726 12.6507 3.45821 12.7078 3.32924 12.685C3.15485 12.654 3.02993 12.5575 2.98606 12.383C2.93733 12.189 2.98881 12.0186 3.16594 11.9133C3.29121 11.8448 3.42118 11.7852 3.55487 11.7351C4.50047 11.3491 5.38522 10.8289 6.18175 10.1905C6.45703 9.96758 6.45835 9.94556 6.21206 9.68129C5.80066 9.24452 5.42967 8.77153 5.10361 8.26811C4.91973 7.98114 4.94489 7.7356 5.16224 7.58797C5.38061 7.43961 5.62226 7.50951 5.81141 7.793C6.13455 8.27547 6.49505 8.73197 6.8896 9.15831C7.0378 9.31906 7.13766 9.30564 7.27807 9.14575C7.99483 8.33931 8.54744 7.40143 8.90511 6.38438C9.03031 6.02596 8.99091 5.9758 8.59717 5.97501C7.69165 5.9731 6.78606 5.97292 5.88039 5.97444V5.97312C4.97487 5.97312 4.06927 5.97301 3.1636 5.97278C3.02061 5.97278 2.87419 5.97952 2.75396 5.88148C2.69145 5.83663 2.64327 5.77469 2.61526 5.70314C2.58725 5.63158 2.5806 5.55346 2.5961 5.47821C2.60644 5.40175 2.6399 5.33026 2.69202 5.27327C2.74414 5.21627 2.81243 5.17649 2.8878 5.15923C3.01803 5.13216 3.15088 5.11968 3.28388 5.12202C4.29424 5.11911 5.3046 5.12202 6.31496 5.11917C6.67581 5.1182 6.69914 5.09063 6.7044 4.72503C6.70766 4.49677 6.69954 4.26818 6.71104 4.04026C6.72688 3.72721 6.89978 3.54535 7.15573 3.55317C7.40247 3.56064 7.54975 3.73366 7.5593 4.04215C7.56668 4.2797 7.57315 4.51812 7.56079 4.75544C7.54678 5.02393 7.65276 5.12675 7.9273 5.12396C8.93754 5.11351 9.94802 5.11991 10.9584 5.12105C11.0727 5.11724 11.1871 5.12168 11.3007 5.13434C11.549 5.17098 11.7139 5.35941 11.6901 5.58138C11.6642 5.82619 11.5129 5.95852 11.2715 5.96605ZM24.1398 18.4762C24.139 19.4477 23.5698 20.0182 22.5932 20.0213C20.83 20.027 19.0668 20.0292 17.3036 20.0187C17.1477 20.0123 16.992 20.0375 16.8461 20.093C16.7002 20.1484 16.5671 20.2328 16.4549 20.3411C15.9522 20.8067 15.4287 21.25 14.912 21.7004C14.8506 21.7539 14.7947 21.8493 14.6971 21.8096C14.5996 21.7698 14.6251 21.6633 14.6233 21.5823C14.6153 21.2306 14.6233 20.8784 14.6061 20.5273C14.589 20.1862 14.4469 20.0455 14.1052 20.0319C13.7245 20.0167 13.3427 20.0301 12.9618 20.0192C12.12 19.995 11.5545 19.4301 11.542 18.586C11.53 17.7779 11.5378 16.9696 11.5374 16.1613C11.537 15.3531 11.5374 14.5448 11.5374 13.7366C11.5377 12.1866 11.5673 10.6359 11.5276 9.08698C11.4996 7.99347 12.2711 7.42933 13.1649 7.43692C16.2908 7.46369 19.4171 7.44565 22.5432 7.44834C23.5749 7.44919 24.139 8.00996 24.1399 9.03408C24.1422 12.1814 24.1421 15.3287 24.1398 18.4762Z" fill="#49454F"/>
<path d="M17.8264 15.4298C17.3879 15.4298 16.9491 15.4412 16.5112 15.4257C16.2457 15.4164 16.0949 15.5038 15.999 15.7638C15.7949 16.3167 15.5576 16.8573 15.3349 17.4033C15.2485 17.6153 15.1138 17.7617 14.8638 17.74C14.5778 17.7152 14.4124 17.4456 14.5227 17.1489C14.695 16.6855 14.8874 16.2296 15.0738 15.7715C15.8229 13.9303 16.5728 12.0893 17.3232 10.2486C17.3593 10.1504 17.4019 10.0547 17.4508 9.96216C17.6331 9.64466 18.0255 9.64489 18.2123 9.96216C18.2575 10.0458 18.2967 10.1326 18.3294 10.2219C19.2337 12.4416 20.1375 14.6614 21.0409 16.8813C21.0831 16.977 21.1189 17.0754 21.148 17.1759C21.2129 17.4283 21.1162 17.6461 20.902 17.7147C20.6545 17.794 20.4644 17.7016 20.3623 17.4705C20.1934 17.0878 20.0465 16.6955 19.8802 16.3115C19.417 15.2411 19.7373 15.4547 18.5698 15.4301C18.3221 15.4252 18.0742 15.4297 17.8264 15.4298ZM17.8475 14.571V14.5721C18.1897 14.5721 18.5319 14.5692 18.8741 14.5731C19.0869 14.5755 19.1458 14.4976 19.0618 14.2939C18.6894 13.3905 18.3247 12.4841 17.9548 11.5797C17.9279 11.514 17.9175 11.4121 17.8225 11.4172C17.7495 11.4212 17.7357 11.5103 17.7113 11.57C17.3418 12.4746 16.9753 13.3803 16.6042 14.2841C16.5232 14.4815 16.5801 14.5718 16.7923 14.5712C17.144 14.5703 17.4957 14.571 17.8475 14.571Z" fill="#49454F"/>
</svg>
