<svg width="24" height="23" viewBox="0 0 24 23" fill="none" xmlns="http://www.w3.org/2000/svg">
<path d="M18.4343 1.07422V5.45668V1.07422Z" fill="white"/>
<path d="M18.4343 1.07422V5.45668" stroke="white" stroke-linecap="round" stroke-linejoin="round"/>
<path d="M16.2383 3.26562H20.6307H16.2383Z" fill="white"/>
<path d="M16.2383 3.26562H20.6307" stroke="white" stroke-linecap="round" stroke-linejoin="round"/>
<path d="M23.8212 8.44511C23.8171 7.28501 22.8522 6.35107 21.6865 6.3341C21.4504 6.33068 21.2142 6.33296 20.9778 6.33236H20.9552C20.719 6.33331 20.4828 6.33378 20.2468 6.33378C19.9658 6.33378 19.6847 6.333 19.4037 6.33144C19.3606 6.33252 19.3113 6.33269 19.2542 6.3328C19.1246 6.3328 18.995 6.3328 18.8654 6.3328C18.7914 6.3341 18.6991 6.3347 18.6227 6.3328C18.3667 6.3328 18.1106 6.3328 17.8546 6.3328C17.725 6.33486 17.5808 6.33552 17.5536 6.33579C17.136 6.34057 16.7184 6.34079 16.3008 6.34095C15.8832 6.34112 15.4655 6.34025 15.0479 6.33579C14.9258 6.33524 14.8037 6.33343 14.6816 6.33035C14.6605 6.33035 14.6395 6.32986 14.6185 6.3291C14.4076 6.33057 14.1967 6.33307 13.9861 6.33823C13.7106 6.34498 13.643 6.22402 13.6448 5.98008C13.6514 5.10096 13.617 4.22059 13.6535 3.34295C13.7092 2.00635 12.6632 0.958358 11.292 1.00127C10.2453 1.03391 9.19661 1.01084 8.14875 1.00736C7.52182 1.01215 6.61712 1.01188 6.00114 1.00682C4.75943 1.00725 3.5176 1.00486 2.27589 1.00862C0.928737 1.01264 0.00294387 1.94321 0.00136291 3.28986C-0.000454302 4.79445 -0.000454302 6.29904 0.00136291 7.80363C0.00158097 9.30818 0.00179701 10.8127 0.00201508 12.3173C0.00381411 13.7184 0.909548 14.6358 2.32043 14.6395C4.79143 14.646 7.26248 14.6383 9.73349 14.6348C10.1596 14.6341 10.16 14.6314 10.1648 15.049C10.1757 16.0186 10.1301 16.9892 10.1901 17.9577C10.2222 18.409 10.3968 18.8385 10.6889 19.1846C10.9809 19.5307 11.3754 19.7756 11.8156 19.8841C12.1292 19.9634 12.4476 19.9472 12.7645 19.9431C13.005 19.94 13.1114 20.0276 13.1056 20.2775C13.0947 20.7485 13.1025 21.22 13.1044 21.6913C13.1054 21.9143 13.1179 22.1402 13.3638 22.2423C13.592 22.3371 13.7625 22.2123 13.9259 22.0687C14.6279 21.4517 15.3388 20.8444 16.0319 20.2175C16.1293 20.1247 16.2444 20.0523 16.3704 20.0047C16.4964 19.9571 16.6307 19.9353 16.7653 19.9405C18.4186 19.9495 20.0722 19.9558 21.7254 19.938C22.2828 19.9315 22.8153 19.7063 23.2076 19.3112C23.6 18.9161 23.8206 18.3828 23.8219 17.8266C23.8314 14.6993 23.8312 11.5721 23.8212 8.44511ZM10.7435 5.73341C10.3985 5.74429 10.0533 5.74649 9.70797 5.74C9.52229 5.73684 9.43059 5.81451 9.38175 5.99226C9.04189 7.23008 8.4215 8.31735 7.56892 9.27201C7.39321 9.46874 7.39894 9.5785 7.60997 9.74183C8.30375 10.2853 9.05861 10.7464 9.85931 11.1156C10.146 11.2462 10.2998 11.6952 10.1591 11.981C10.0828 12.1358 9.97341 12.0476 9.88111 12.0105C9.13905 11.7114 8.43345 11.3292 7.77788 10.8712C7.50762 10.6875 7.24682 10.4903 6.99645 10.2804C6.82199 10.1309 6.70026 10.1425 6.52902 10.2876C5.62765 11.0519 4.61098 11.6256 3.51428 12.0614C3.40524 12.1049 3.29621 12.1593 3.17328 12.1376C3.00706 12.1081 2.88799 12.0161 2.84618 11.8498C2.79973 11.6649 2.8488 11.5024 3.01764 11.4021C3.13703 11.3368 3.26091 11.28 3.38834 11.2322C4.28964 10.8643 5.13295 10.3684 5.89216 9.76C6.15455 9.5475 6.15581 9.5265 5.92106 9.27462C5.52893 8.8583 5.17531 8.40747 4.86453 7.92763C4.68926 7.6541 4.71325 7.42006 4.92041 7.27936C5.12855 7.13794 5.35889 7.20457 5.53917 7.47478C5.84717 7.93465 6.19079 8.36977 6.56686 8.77613C6.70811 8.92935 6.80329 8.91656 6.93713 8.76416C7.62031 7.9955 8.14704 7.10155 8.48795 6.13215C8.60729 5.79052 8.56973 5.74271 8.19444 5.74195C7.33134 5.74014 6.46816 5.73996 5.60492 5.74141V5.74016C4.74182 5.74016 3.87864 5.74005 3.0154 5.73983C2.87911 5.73983 2.73955 5.74625 2.62495 5.65281C2.56537 5.61006 2.51945 5.55102 2.49275 5.48282C2.46605 5.41461 2.45971 5.34015 2.47449 5.26843C2.48434 5.19555 2.51623 5.12741 2.56591 5.07308C2.61559 5.01876 2.68068 4.98084 2.75252 4.96439C2.87665 4.93859 3.00327 4.92669 3.13004 4.92892C4.09307 4.92615 5.05611 4.92892 6.01913 4.9262C6.36308 4.92528 6.38532 4.89901 6.39033 4.55053C6.39344 4.33297 6.3857 4.11508 6.39666 3.89784C6.41176 3.59945 6.57656 3.42611 6.82052 3.43356C7.0557 3.44069 7.19608 3.6056 7.20519 3.89964C7.21222 4.12607 7.21838 4.35331 7.2066 4.57952C7.19325 4.83543 7.29426 4.93344 7.55594 4.93077C8.51886 4.92082 9.482 4.92691 10.445 4.928C10.554 4.92436 10.663 4.9286 10.7714 4.94067C11.008 4.97559 11.1651 5.15519 11.1425 5.36677C11.1178 5.6001 10.9736 5.72623 10.7435 5.73341ZM23.0089 17.6575C23.0082 18.5836 22.4656 19.1273 21.5348 19.1302C19.8543 19.1357 18.1736 19.1378 16.4931 19.1277C16.3444 19.1216 16.196 19.1457 16.0569 19.1986C15.9179 19.2514 15.791 19.3318 15.684 19.435C15.2049 19.8788 14.706 20.3014 14.2134 20.7307C14.1549 20.7817 14.1016 20.8726 14.0086 20.8347C13.9156 20.7969 13.94 20.6953 13.9383 20.6181C13.9306 20.2829 13.9383 19.9472 13.9219 19.6125C13.9056 19.2874 13.7701 19.1534 13.4445 19.1404C13.0816 19.1258 12.7177 19.1386 12.3546 19.1282C11.5523 19.1052 11.0133 18.5668 11.0013 17.7622C10.9899 16.992 10.9973 16.2215 10.9969 15.4511C10.9965 14.6807 10.9969 13.9103 10.9969 13.1399C10.9972 11.6626 11.0254 10.1845 10.9876 8.70814C10.9609 7.66585 11.6963 7.12815 12.5482 7.13538C15.5277 7.16089 18.5075 7.14371 21.4872 7.14626C22.4705 7.14708 23.0082 7.68157 23.0091 8.65772C23.0112 11.6576 23.0112 14.6575 23.0089 17.6575Z" fill="white"/>
<path d="M16.9913 14.7548C16.5734 14.7548 16.1552 14.7657 15.7378 14.7509C15.4847 14.7421 15.341 14.8254 15.2495 15.0732C15.055 15.6001 14.8289 16.1154 14.6166 16.6359C14.5342 16.8379 14.4058 16.9775 14.1676 16.9568C13.895 16.9332 13.7373 16.6762 13.8424 16.3934C14.0066 15.9517 14.19 15.5171 14.3677 15.0805C15.0818 13.3255 15.7965 11.5708 16.5118 9.81634C16.5461 9.72272 16.5867 9.6315 16.6333 9.5433C16.8072 9.24067 17.1811 9.24088 17.3592 9.5433C17.4023 9.62305 17.4396 9.70579 17.4709 9.79088C18.3328 11.9066 19.1942 14.0224 20.0552 16.1383C20.0955 16.2295 20.1296 16.3233 20.1574 16.4191C20.2192 16.6596 20.127 16.8673 19.9229 16.9326C19.687 17.0082 19.5058 16.9202 19.4085 16.6999C19.2475 16.3351 19.1074 15.9612 18.949 15.5952C18.5074 14.575 18.8127 14.7785 17.6999 14.7551C17.4638 14.7504 17.2275 14.7547 16.9913 14.7548ZM17.0114 13.9362V13.9372C17.3376 13.9372 17.6638 13.9345 17.99 13.9382C18.1928 13.9406 18.249 13.8663 18.1689 13.6721C17.814 12.811 17.4663 11.9471 17.1138 11.0851C17.0881 11.0224 17.0782 10.9253 16.9877 10.9302C16.9181 10.934 16.9049 11.0189 16.8816 11.0759C16.5295 11.938 16.1802 12.8013 15.8264 13.6627C15.7492 13.8509 15.8034 13.937 16.0057 13.9364C16.341 13.9356 16.6762 13.9362 17.0114 13.9362Z" fill="white"/>
</svg>
