<svg width="41" height="39" viewBox="0 0 41 39" fill="none" xmlns="http://www.w3.org/2000/svg">
<g filter="url(#filter0_d_861_7923)">
<path d="M29.629 18.9208L29.629 18.9208L29.6252 18.9245C29.3582 19.1826 29.158 19.5019 29.042 19.8547C28.9259 20.2075 28.8975 20.5833 28.9592 20.9495L28.9592 20.9495L28.9602 20.9554L30.4104 28.9812C30.4104 28.9813 30.4105 28.9814 30.4105 28.9814C30.4531 29.2201 30.4261 29.466 30.3329 29.6898C30.2396 29.9137 30.0839 30.106 29.8843 30.2439L29.8842 30.2437L29.8736 30.2515C29.6764 30.3955 29.4424 30.4808 29.1988 30.4974C28.9552 30.5141 28.7118 30.4615 28.4968 30.3456L28.4968 30.3456L28.4909 30.3425L21.2651 26.5738L21.2651 26.5737L21.2564 26.5693C20.9474 26.4158 20.5931 26.3034 20.2181 26.3034H19.776H19.7511L19.7263 26.3059C19.4674 26.3317 19.2511 26.4359 19.1219 26.4981L19.1186 26.4997L19.111 26.5034L19.1035 26.5073L11.8798 30.2919C11.6199 30.4221 11.3258 30.4682 11.0386 30.4239C10.3255 30.2763 9.87676 29.6149 9.99037 28.9281L11.4418 20.9046L11.4419 20.9046L11.4432 20.8964C11.5033 20.5291 11.4745 20.1527 11.3592 19.7988C11.2439 19.4449 11.0454 19.1238 10.7804 18.8625L10.7773 18.8594L4.88908 13.1524C4.52921 12.7908 4.40917 12.2886 4.57067 11.8316L4.57072 11.8316L4.57301 11.8248C4.65073 11.5944 4.79008 11.3897 4.97593 11.2329C5.16105 11.0767 5.38527 10.974 5.62443 10.9358L13.72 9.76133C14.1034 9.71991 14.4705 9.58326 14.7877 9.36374C15.1079 9.14215 15.367 8.84329 15.5409 8.49489L15.541 8.4949L15.543 8.49076L19.1136 1.17031C19.1687 1.0639 19.2399 0.966714 19.3247 0.882186L19.4489 0.784443L19.4825 0.758037L19.5111 0.726325C19.5436 0.690227 19.5805 0.658429 19.621 0.631659L19.7525 0.583394L19.7615 0.5801L19.7703 0.576464L19.9563 0.5H20.5163C20.727 0.525715 20.9285 0.601431 21.1041 0.720973C21.2851 0.844203 21.4329 1.01017 21.5344 1.20415L25.1516 8.49214C25.1518 8.49259 25.152 8.49304 25.1522 8.49348C25.3167 8.82776 25.5594 9.1174 25.8597 9.33778C26.1605 9.55847 26.5102 9.70316 26.8789 9.75956L26.8827 9.76011L34.9911 10.9362L34.992 10.9364C35.2371 10.9715 35.4678 11.0733 35.6588 11.2308C35.8487 11.3873 35.9921 11.5926 36.0737 11.8247C36.1475 12.0534 36.1551 12.2985 36.0953 12.5314C36.0351 12.7658 35.9093 12.9782 35.7327 13.1435L35.7307 13.1454L29.629 18.9208Z" stroke="#49454F" shape-rendering="crispEdges"/>
</g>
<defs>
<filter id="filter0_d_861_7923" x="0" y="0" width="40.6348" height="39" filterUnits="userSpaceOnUse" color-interpolation-filters="sRGB">
<feFlood flood-opacity="0" result="BackgroundImageFix"/>
<feColorMatrix in="SourceAlpha" type="matrix" values="0 0 0 0 0 0 0 0 0 0 0 0 0 0 0 0 0 0 127 0" result="hardAlpha"/>
<feOffset dy="4"/>
<feGaussianBlur stdDeviation="2"/>
<feComposite in2="hardAlpha" operator="out"/>
<feColorMatrix type="matrix" values="0 0 0 0 0 0 0 0 0 0 0 0 0 0 0 0 0 0 0.25 0"/>
<feBlend mode="normal" in2="BackgroundImageFix" result="effect1_dropShadow_861_7923"/>
<feBlend mode="normal" in="SourceGraphic" in2="effect1_dropShadow_861_7923" result="shape"/>
</filter>
</defs>
</svg>
