<svg width="41" height="39" viewBox="0 0 41 39" fill="none" xmlns="http://www.w3.org/2000/svg">
<g filter="url(#filter0_d_861_7923)">
<path d="M29.9727 19.284C29.764 19.4857 29.6076 19.7352 29.5169 20.0109C29.4263 20.2866 29.4041 20.5803 29.4523 20.8665L30.9026 28.8933C30.9622 29.2265 30.9246 29.5697 30.7944 29.8821C30.6643 30.1946 30.447 30.4629 30.1685 30.6553C29.895 30.8549 29.5707 30.9732 29.2329 30.9963C28.8951 31.0194 28.5577 30.9464 28.2596 30.7858L21.0339 27.0171C20.7712 26.8866 20.4939 26.8034 20.2181 26.8034H19.776C19.6129 26.8197 19.4677 26.8866 19.3355 26.9502L12.1081 30.7368C11.7505 30.917 11.3451 30.9797 10.9498 30.916C9.9709 30.7202 9.33631 29.805 9.49774 28.8424L10.9498 20.8156C10.997 20.5272 10.9744 20.2316 10.8838 19.9537C10.7933 19.6758 10.6374 19.4237 10.4293 19.2184L4.53812 13.5086C4.04866 13.0191 3.86922 12.316 4.09924 11.665C4.20615 11.348 4.39784 11.0664 4.65349 10.8507C4.90915 10.635 5.219 10.4935 5.54943 10.4414L13.6578 9.26512C13.9614 9.23377 14.2522 9.12627 14.5032 8.95258C14.7542 8.7789 14.9573 8.54465 15.0936 8.27157L18.6666 0.946262C18.7507 0.782227 18.8615 0.633354 18.9946 0.505763L19.1397 0.391541C19.2155 0.307396 19.3042 0.235758 19.4024 0.179273L19.5802 0.114009L19.8576 0H20.5443C20.8459 0.0313405 21.1349 0.137056 21.3855 0.307659C21.6361 0.478262 21.8404 0.708415 21.9801 0.977464L25.6004 8.27174C25.7293 8.53423 25.9198 8.76166 26.1555 8.93466C26.3913 9.10766 26.6654 9.22109 26.9545 9.26529L35.0629 10.4414C35.3988 10.4895 35.715 10.6291 35.9768 10.845C36.2387 11.0608 36.4361 11.3445 36.5475 11.665C36.6523 11.9854 36.6634 12.3291 36.5796 12.6557C36.4958 12.9823 36.3205 13.2781 36.0744 13.5086L29.9727 19.284Z" fill="#FCE021"/>
</g>
<defs>
<filter id="filter0_d_861_7923" x="0" y="0" width="40.6348" height="39" filterUnits="userSpaceOnUse" color-interpolation-filters="sRGB">
<feFlood flood-opacity="0" result="BackgroundImageFix"/>
<feColorMatrix in="SourceAlpha" type="matrix" values="0 0 0 0 0 0 0 0 0 0 0 0 0 0 0 0 0 0 127 0" result="hardAlpha"/>
<feOffset dy="4"/>
<feGaussianBlur stdDeviation="2"/>
<feComposite in2="hardAlpha" operator="out"/>
<feColorMatrix type="matrix" values="0 0 0 0 0 0 0 0 0 0 0 0 0 0 0 0 0 0 0.25 0"/>
<feBlend mode="normal" in2="BackgroundImageFix" result="effect1_dropShadow_861_7923"/>
<feBlend mode="normal" in="SourceGraphic" in2="effect1_dropShadow_861_7923" result="shape"/>
</filter>
</defs>
</svg>
