<svg width="17" height="17" viewBox="0 0 17 17" fill="none" xmlns="http://www.w3.org/2000/svg">
<path d="M9.775 3.4C9.095 3.4 8.5 3.995 8.5 4.675C8.5 5.355 9.095 5.95 9.775 5.95C10.455 5.95 11.05 5.355 11.05 4.675C11.05 3.995 10.455 3.4 9.775 3.4ZM14.45 0H2.55C1.105 0 0 1.105 0 2.55V14.45C0 15.895 1.105 17 2.55 17H14.45C15.895 17 17 15.895 17 14.45V2.55C17 1.105 15.895 0 14.45 0ZM15.3 10.115L13.685 8.5C12.665 7.565 11.05 7.565 10.115 8.5L9.35 9.265L6.885 6.8C5.865 5.865 4.25 5.865 3.315 6.8L1.7 8.415V2.55C1.7 2.04 2.04 1.7 2.55 1.7H14.45C14.96 1.7 15.3 2.04 15.3 2.55V10.115Z" fill="white"/>
</svg>
