<svg width="24" height="22" viewBox="0 0 24 22" fill="none" xmlns="http://www.w3.org/2000/svg">
<g clip-path="url(#clip0_816_3989)">
<path d="M6.24906 17.4999C5.46606 17.4985 4.70321 17.2516 4.06784 16.794C3.43247 16.3364 2.95656 15.6911 2.70706 14.9489L2.67206 14.8339C2.56005 14.4833 2.50172 14.1179 2.49906 13.7499V6.93188L0.0730614 15.0299C-0.0754171 15.6061 0.00819588 16.2176 0.305916 16.7328C0.603635 17.248 1.09168 17.6258 1.66506 17.7849L17.1281 21.9259C17.3145 21.9744 17.5064 21.9993 17.6991 21.9999C18.1888 22.0025 18.6658 21.8438 19.0564 21.5483C19.447 21.2528 19.7294 20.8369 19.8601 20.3649L20.7601 17.4999H6.24906Z" fill="white"/>
<path d="M8.99902 7C9.39459 7 9.78127 6.8827 10.1102 6.66294C10.4391 6.44318 10.6954 6.13082 10.8468 5.76537C10.9982 5.39992 11.0378 4.99778 10.9606 4.60982C10.8834 4.22186 10.6929 3.86549 10.4132 3.58579C10.1335 3.30608 9.77717 3.1156 9.3892 3.03843C9.00124 2.96126 8.59911 3.00087 8.23366 3.15224C7.8682 3.30362 7.55585 3.55996 7.33608 3.88886C7.11632 4.21776 6.99902 4.60444 6.99902 5C6.99902 5.53043 7.20974 6.03914 7.58481 6.41421C7.95988 6.78929 8.46859 7 8.99902 7Z" fill="white"/>
<path d="M21.499 0H6.49902C5.83598 0 5.2001 0.263392 4.73126 0.732233C4.26242 1.20107 3.99902 1.83696 3.99902 2.5V13.5C3.99902 14.163 4.26242 14.7989 4.73126 15.2678C5.2001 15.7366 5.83598 16 6.49902 16H21.499C21.8273 16 22.1524 15.9353 22.4557 15.8097C22.759 15.6841 23.0346 15.4999 23.2668 15.2678C23.4989 15.0356 23.6831 14.76 23.8087 14.4567C23.9344 14.1534 23.999 13.8283 23.999 13.5V2.5C23.999 2.1717 23.9344 1.84661 23.8087 1.54329C23.6831 1.23998 23.4989 0.964379 23.2668 0.732233C23.0346 0.500087 22.759 0.315938 22.4557 0.190301C22.1524 0.0646644 21.8273 0 21.499 0ZM6.49902 2H21.499C21.6316 2 21.7588 2.05268 21.8526 2.14645C21.9463 2.24021 21.999 2.36739 21.999 2.5V9.6L18.84 5.913C18.6728 5.7215 18.4667 5.56779 18.2355 5.4621C18.0043 5.35641 17.7532 5.30115 17.499 5.3C17.2438 5.30132 16.9919 5.35849 16.7611 5.4675C16.5303 5.5765 16.3262 5.73471 16.163 5.931L12.449 10.387L11.239 9.18C10.91 8.85147 10.464 8.66694 9.99902 8.66694C9.53404 8.66694 9.08807 8.85147 8.75902 9.18L5.99902 11.939V2.5C5.99902 2.36739 6.0517 2.24021 6.14547 2.14645C6.23924 2.05268 6.36642 2 6.49902 2Z" fill="white"/>
</g>
<defs>
<clipPath id="clip0_816_3989">
<rect width="23.999" height="22" fill="white"/>
</clipPath>
</defs>
</svg>
