<svg width="17" height="17" viewBox="0 0 17 17" fill="none" xmlns="http://www.w3.org/2000/svg">
<path d="M13.1325 2.91839L9.23667 1.45922C8.83292 1.31047 8.17417 1.31047 7.77042 1.45922L3.87459 2.91839C3.12375 3.20172 2.51459 4.08005 2.51459 4.88047V10.618C2.51459 11.1917 2.89 11.9496 3.35042 12.2896L7.24625 15.2009C7.93334 15.718 9.05959 15.718 9.74667 15.2009L13.6425 12.2896C14.1029 11.9426 14.4783 11.1917 14.4783 10.618V4.88047C14.4854 4.08005 13.8763 3.20172 13.1325 2.91839ZM10.965 6.88505L7.91917 9.93089C7.81292 10.0371 7.67834 10.0867 7.54375 10.0867C7.40917 10.0867 7.27459 10.0371 7.16834 9.93089L6.035 8.78338C5.93621 8.68341 5.8808 8.54852 5.8808 8.40797C5.8808 8.26741 5.93621 8.13252 6.035 8.03255C6.24042 7.82714 6.58042 7.82714 6.78584 8.03255L7.55084 8.79755L10.2213 6.12713C10.4267 5.92172 10.7667 5.92172 10.9721 6.12713C11.1775 6.33255 11.1775 6.67964 10.965 6.88505Z" fill="#49454F"/>
</svg>
