<svg width="14" height="14" viewBox="0 0 14 14" fill="none" xmlns="http://www.w3.org/2000/svg">
<g clip-path="url(#clip0_906_4881)">
<path d="M7.79084 0.0457504C7.8808 0.0837053 7.95976 0.143681 8.02046 0.220155C8.08116 0.296629 8.12164 0.387145 8.13818 0.483368L8.14661 0.581849V13.3839C8.14669 13.4901 8.11767 13.5944 8.06271 13.6853C8.00776 13.7763 7.92895 13.8504 7.83485 13.8998C7.74074 13.9491 7.63493 13.9717 7.52887 13.9652C7.42282 13.9587 7.32058 13.9233 7.23323 13.8628L7.15693 13.7995L3.75114 10.453H1.74559C1.31173 10.453 0.89342 10.2914 0.572188 9.99977C0.250957 9.70814 0.0498221 9.30735 0.00798492 8.87552L0 8.70739V5.22863C2.29428e-05 4.79473 0.16162 4.37639 0.453292 4.05515C0.744964 3.73392 1.14581 3.53281 1.57769 3.49102L1.74559 3.48237H3.75247L7.1587 0.165081C7.24066 0.0852314 7.34434 0.0313223 7.45678 0.0100972C7.56921 -0.0111278 7.68541 0.00127374 7.79084 0.0457504ZM11.3328 1.23284L11.4335 1.30138L11.5473 1.39986C11.6205 1.4664 11.7214 1.56089 11.8412 1.6851C13.2058 3.11348 13.9683 5.01229 13.9705 6.98775C13.9696 8.96136 13.2068 10.8584 11.8412 12.2833L11.6768 12.4472L11.4595 12.644L11.4211 12.6754C11.3074 12.7655 11.1642 12.8099 11.0195 12.7999C10.8748 12.7898 10.7391 12.7262 10.6389 12.6213C10.5387 12.5165 10.4813 12.378 10.4779 12.233C10.4744 12.088 10.5253 11.9469 10.6204 11.8375L10.7708 11.7006C10.8251 11.652 10.9058 11.5764 11.0045 11.4742C12.1602 10.2661 12.8054 8.65872 12.8056 6.98686C12.803 5.36545 12.1977 3.80291 11.1072 2.60292L10.9103 2.39775L10.6956 2.20057C10.5818 2.11014 10.506 1.98044 10.4831 1.83696C10.4601 1.69348 10.4917 1.5466 10.5715 1.4252C10.6514 1.3038 10.7737 1.21665 10.9146 1.18089C11.0554 1.14513 11.2045 1.16335 11.3326 1.23195L11.3328 1.23284ZM10.1699 3.56022L10.2859 3.6414L10.4412 3.78779L10.5039 3.85433C10.6817 4.04767 10.8395 4.25833 10.9753 4.48315C11.4245 5.23836 11.6556 6.10334 11.6429 6.98198C11.6554 7.86106 11.4244 8.72645 10.9755 9.48237C10.8399 9.70751 10.6822 9.91854 10.5046 10.1123L10.3864 10.2336L10.3045 10.3093L10.2584 10.3485L10.1845 10.382C10.0638 10.4449 9.9259 10.4667 9.79166 10.4442C9.65743 10.4216 9.53419 10.356 9.44061 10.2571C9.35611 10.1513 9.31115 10.0194 9.31345 9.884C9.31576 9.74862 9.3652 9.61828 9.45325 9.51542L9.60985 9.36504L9.64977 9.32289C9.7745 9.1864 9.88528 9.03779 9.98048 8.87929C10.3189 8.30529 10.4915 7.64866 10.4791 6.98242C10.492 6.31664 10.3196 5.66036 9.98115 5.08689C9.90414 4.9597 9.81738 4.83868 9.72164 4.72491L9.61074 4.60292L9.53111 4.52728C9.41788 4.43651 9.34266 4.30672 9.32017 4.16335C9.29769 4.01999 9.32958 3.8734 9.40958 3.75233C9.48958 3.63125 9.61193 3.54444 9.75263 3.5089C9.89332 3.47336 10.0422 3.49166 10.1701 3.56022H10.1699Z" fill="#212121"/>
</g>
<defs>
<clipPath id="clip0_906_4881">
<rect width="13.9694" height="13.9656" fill="white"/>
</clipPath>
</defs>
</svg>
