<svg width="13" height="13" viewBox="0 0 13 13" fill="none" xmlns="http://www.w3.org/2000/svg">
<g clip-path="url(#clip0_768_3786)">
<path d="M11.3743 0H5.41383C4.98309 0.00127714 4.57036 0.172892 4.26578 0.477362C3.96119 0.781833 3.78952 1.19442 3.78824 1.625V4.875H8.66502C9.09616 4.875 9.50963 5.04621 9.81449 5.35095C10.1193 5.6557 10.2906 6.06902 10.2906 6.5C10.2906 6.93098 10.1193 7.3443 9.81449 7.64905C9.50963 7.95379 9.09616 8.125 8.66502 8.125H3.78824V11.375C3.78952 11.8056 3.96119 12.2182 4.26578 12.5226C4.57036 12.8271 4.98309 12.9987 5.41383 13H11.3743C11.8051 12.9987 12.2178 12.8271 12.5224 12.5226C12.827 12.2182 12.9986 11.8056 12.9999 11.375V1.625C12.9986 1.19442 12.827 0.781833 12.5224 0.477362C12.2178 0.172892 11.8051 0.00127714 11.3743 0V0Z" fill="#49454F"/>
<path d="M1.84298 7.04158H8.665C8.8075 7.03975 8.94354 6.98187 9.04366 6.88049C9.14379 6.77911 9.19993 6.64239 9.19993 6.49993C9.19993 6.35747 9.14379 6.22074 9.04366 6.11936C8.94354 6.01798 8.8075 5.96011 8.665 5.95828H1.84298L2.54739 5.2595C2.64942 5.15751 2.70674 5.01917 2.70674 4.87493C2.70674 4.73068 2.64942 4.59235 2.54739 4.49035C2.44535 4.38836 2.30697 4.33105 2.16267 4.33105C2.01837 4.33105 1.87999 4.38836 1.77795 4.49035L0.15236 6.11553C0.0544845 6.21968 0 6.35721 0 6.50011C0 6.643 0.0544845 6.78053 0.15236 6.88468L1.77795 8.50932C1.88171 8.60801 2.01945 8.66304 2.16267 8.66304C2.30589 8.66304 2.44363 8.60801 2.54739 8.50932C2.6489 8.40705 2.70587 8.26882 2.70587 8.12475C2.70587 7.98068 2.6489 7.84244 2.54739 7.74017L1.84298 7.04158Z" fill="#49454F"/>
</g>
<defs>
<clipPath id="clip0_768_3786">
<rect width="13" height="13" fill="white"/>
</clipPath>
</defs>
</svg>
