<svg width="127" height="115" viewBox="0 0 127 115" fill="none" xmlns="http://www.w3.org/2000/svg">
<path opacity="0.35" d="M62.3014 114.252C62.3014 114.252 64.1251 60.1894 15.2314 56.2218L24.8072 26.752C24.8055 26.752 65.079 47.1577 62.3014 114.252Z" fill="url(#paint0_linear_861_7922)"/>
<path opacity="0.35" d="M4.1416 77.3971C4.1416 77.3971 54.3028 57.4452 61.4029 113.866C61.4029 113.866 63.4577 64.2582 10.844 56.7686L4.1416 77.3971Z" fill="url(#paint1_linear_861_7922)"/>
<path opacity="0.35" d="M35.0254 20.6875C35.0254 20.6875 63.4225 49.4279 63.4225 113.867C63.4225 49.4279 91.9764 20.6875 91.9764 20.6875H35.0254V20.6875Z" fill="url(#paint2_linear_861_7922)"/>
<path opacity="0.35" d="M21.689 64.6484C21.689 64.6484 56.3577 66.8006 61.0614 111.141C61.0614 111.141 58.6584 67.601 14.4189 69.603L21.689 64.6484Z" fill="url(#paint3_linear_861_7922)"/>
<path opacity="0.35" d="M62.0143 103.277C59.6377 60.3 28.4629 38.0078 28.4629 38.0078L34.3813 56.2218C34.3813 56.2218 57.063 66.9347 62.0143 103.277Z" fill="url(#paint4_linear_861_7922)"/>
<path opacity="0.35" d="M52.624 33.4746C52.624 33.4746 63.3765 62.8075 63.3765 99.2999C63.3765 99.2999 64.743 50.5069 74.3765 33.4746H52.624V33.4746Z" fill="url(#paint5_linear_861_7922)"/>
<path opacity="0.35" d="M122.857 77.3971C122.857 77.3971 72.6958 57.4452 65.5957 113.866C65.5957 113.866 63.541 64.2582 116.155 56.7686L122.857 77.3971Z" fill="url(#paint6_linear_861_7922)"/>
<path opacity="0.35" d="M105.31 64.6484C105.31 64.6484 70.6412 66.8006 65.9375 111.141C65.9375 111.141 68.3389 67.601 112.582 69.603L105.31 64.6484Z" fill="url(#paint7_linear_861_7922)"/>
<path opacity="0.35" d="M64.6989 114.252C64.6989 114.252 62.8752 60.1894 111.769 56.2218L102.195 26.752C102.195 26.752 61.9212 47.1577 64.6989 114.252Z" fill="url(#paint8_linear_861_7922)"/>
<path opacity="0.35" d="M64.9844 103.277C67.361 60.3 98.5357 38.0078 98.5357 38.0078L92.6173 56.2218C92.6173 56.2218 69.9356 66.9347 64.9844 103.277Z" fill="url(#paint9_linear_861_7922)"/>
<path d="M116.154 55.7705L118.714 63.6496H126.999L120.297 68.52L122.857 76.3991L116.154 71.5287L109.452 76.3991L112.012 68.52L105.31 63.6496H113.595L116.154 55.7705Z" fill="url(#paint10_linear_861_7922)"/>
<path d="M116.154 67.174L120.297 68.5208L126.999 63.6504L116.154 67.174Z" fill="#FCE021"/>
<path d="M116.154 67.174L126.999 63.6504H118.714L116.154 67.174Z" fill="#FCE021"/>
<path opacity="0.7" d="M116.154 67.1742L118.714 63.6506L116.154 55.7715V67.1742Z" fill="#FCE021"/>
<path d="M109.452 76.3997L116.154 71.5293V67.1738L109.452 76.3997Z" fill="#FCE021"/>
<path d="M116.154 67.1738L112.012 68.5206L109.452 76.3997L116.154 67.1738Z" fill="#FCE021"/>
<path d="M116.154 67.1738L122.857 76.3997L120.297 68.5206L116.154 67.1738Z" fill="#FCE021"/>
<path d="M116.154 67.1738V71.5293L122.857 76.3997L116.154 67.1738Z" fill="#FCE021"/>
<path d="M105.31 63.6504L112.012 68.5208L116.154 67.174L105.31 63.6504Z" fill="#FCE021"/>
<path opacity="0.7" d="M116.155 55.7715L113.596 63.6506L116.155 67.1742V55.7715Z" fill="#FCE021"/>
<path d="M116.154 67.174L113.595 63.6504H105.31L116.154 67.174Z" fill="#FCE021"/>
<path d="M63.5001 0L70.2222 20.688H91.9748L74.3763 33.4755L81.0985 54.1635L63.5001 41.3777L45.9017 54.1635L52.6238 33.4755L35.0254 20.688H56.7779L63.5001 0Z" fill="url(#paint11_linear_861_7922)"/>
<path d="M63.5 29.9397L74.3763 33.4749L91.9747 20.6875L63.5 29.9397Z" fill="#FCE021"/>
<path d="M63.5 29.9397L91.9747 20.6875H70.2222L63.5 29.9397Z" fill="#FCE021"/>
<path opacity="0.7" d="M63.5 29.9403L70.2222 20.688L63.5 0V29.9403Z" fill="#FCE021"/>
<path d="M45.9014 54.1636L63.4998 41.3778V29.9404L45.9014 54.1636Z" fill="#FCE021"/>
<path d="M63.4998 29.9404L52.6235 33.4756L45.9014 54.1636L63.4998 29.9404Z" fill="#FCE021"/>
<path d="M63.5 29.9404L81.0984 54.1636L74.3763 33.4756L63.5 29.9404Z" fill="#FCE021"/>
<path d="M63.5 29.9404V41.3778L81.0984 54.1636L63.5 29.9404Z" fill="#FCE021"/>
<path d="M35.0254 20.6875L52.6238 33.4749L63.5001 29.9397L35.0254 20.6875Z" fill="#FCE021"/>
<path opacity="0.7" d="M63.4995 0L56.7773 20.688L63.4995 29.9403V0Z" fill="#FCE021"/>
<path d="M63.5001 29.9397L56.7779 20.6875H35.0254L63.5001 29.9397Z" fill="#FCE021"/>
<path d="M10.8449 56.7686L13.4047 64.6477H21.6898L14.9875 69.518L17.5473 77.3971L10.8449 72.5284L4.14255 77.3971L6.70235 69.518L0 64.6477H8.2851L10.8449 56.7686Z" fill="url(#paint12_linear_861_7922)"/>
<path d="M10.8447 68.1721L14.9873 69.5188L21.6896 64.6484L10.8447 68.1721Z" fill="#FCE021"/>
<path d="M10.8447 68.1721L21.6896 64.6484H13.4045L10.8447 68.1721Z" fill="#FCE021"/>
<path opacity="0.7" d="M10.8447 68.1723L13.4045 64.6486L10.8447 56.7695V68.1723Z" fill="#FCE021"/>
<path d="M4.1416 77.3977L10.844 72.529V68.1719L4.1416 77.3977Z" fill="#FCE021"/>
<path d="M10.844 68.1719L6.7014 69.5186L4.1416 77.3977L10.844 68.1719Z" fill="#FCE021"/>
<path d="M10.8447 68.1719L17.5471 77.3977L14.9873 69.5186L10.8447 68.1719Z" fill="#FCE021"/>
<path d="M10.8447 68.1719V72.529L17.5471 77.3977L10.8447 68.1719Z" fill="#FCE021"/>
<path d="M0 64.6484L6.70235 69.5188L10.8449 68.1721L0 64.6484Z" fill="#FCE021"/>
<path opacity="0.7" d="M10.845 56.7695L8.28516 64.6486L10.845 68.1723V56.7695Z" fill="#FCE021"/>
<path d="M10.8449 68.1721L8.2851 64.6484H0L10.8449 68.1721Z" fill="#FCE021"/>
<path d="M24.806 26.752L28.4633 38.0078H40.3001L30.7244 44.966L34.3817 56.2218L24.806 49.2653L15.2319 56.2218L18.8892 44.966L9.31348 38.0078H21.1486L24.806 26.752Z" fill="url(#paint13_linear_861_7922)"/>
<path d="M24.8066 43.0416L30.725 44.966L40.3008 38.0078L24.8066 43.0416Z" fill="#FCE021"/>
<path d="M24.8066 43.0416L40.3008 38.0078H28.464L24.8066 43.0416Z" fill="#FCE021"/>
<path opacity="0.7" d="M24.8066 43.0416L28.464 38.0078L24.8066 26.752V43.0416Z" fill="#FCE021"/>
<path d="M15.2314 56.2213L24.8055 49.2647V43.041L15.2314 56.2213Z" fill="#FCE021"/>
<path d="M24.8055 43.041L18.8888 44.9654L15.2314 56.2213L24.8055 43.041Z" fill="#FCE021"/>
<path d="M24.8066 43.041L34.3824 56.2213L30.725 44.9654L24.8066 43.041Z" fill="#FCE021"/>
<path d="M24.8066 43.041V49.2647L34.3824 56.2213L24.8066 43.041Z" fill="#FCE021"/>
<path d="M9.31348 38.0078L18.8892 44.966L24.806 43.0416L9.31348 38.0078Z" fill="#FCE021"/>
<path opacity="0.7" d="M24.8058 26.752L21.1484 38.0078L24.8058 43.0416V26.752Z" fill="#FCE021"/>
<path d="M24.806 43.0416L21.1486 38.0078H9.31348L24.806 43.0416Z" fill="#FCE021"/>
<path d="M102.193 26.752L105.851 38.0078H117.686L108.11 44.966L111.767 56.2218L102.193 49.2653L92.6176 56.2218L96.275 44.966L86.6992 38.0078H98.536L102.193 26.752Z" fill="url(#paint14_linear_861_7922)"/>
<path d="M102.193 43.0416L108.11 44.966L117.686 38.0078L102.193 43.0416Z" fill="#FCE021"/>
<path d="M102.193 43.0416L117.686 38.0078H105.851L102.193 43.0416Z" fill="#FCE021"/>
<path opacity="0.7" d="M102.193 43.0416L105.851 38.0078L102.193 26.752V43.0416Z" fill="#FCE021"/>
<path d="M92.6191 56.2213L102.195 49.2647V43.041L92.6191 56.2213Z" fill="#FCE021"/>
<path d="M102.195 43.041L96.2765 44.9654L92.6191 56.2213L102.195 43.041Z" fill="#FCE021"/>
<path d="M102.193 43.041L111.767 56.2213L108.11 44.9654L102.193 43.041Z" fill="#FCE021"/>
<path d="M102.193 43.041V49.2647L111.767 56.2213L102.193 43.041Z" fill="#FCE021"/>
<path d="M86.6992 38.0078L96.275 44.966L102.193 43.0416L86.6992 38.0078Z" fill="#FCE021"/>
<path opacity="0.7" d="M102.194 26.752L98.5371 38.0078L102.194 43.0416V26.752Z" fill="#FCE021"/>
<path d="M102.193 43.0416L98.536 38.0078H86.6992L102.193 43.0416Z" fill="#FCE021"/>
<defs>
<linearGradient id="paint0_linear_861_7922" x1="38.8349" y1="47.6368" x2="38.8349" y2="106.137" gradientUnits="userSpaceOnUse">
<stop stop-color="#FFEF00"/>
<stop offset="1" stop-color="white"/>
</linearGradient>
<linearGradient id="paint1_linear_861_7922" x1="32.7776" y1="47.6355" x2="32.7776" y2="106.136" gradientUnits="userSpaceOnUse">
<stop stop-color="#FFEF00"/>
<stop offset="1" stop-color="white"/>
</linearGradient>
<linearGradient id="paint2_linear_861_7922" x1="63.5001" y1="47.6359" x2="63.5001" y2="106.137" gradientUnits="userSpaceOnUse">
<stop stop-color="#FFEF00"/>
<stop offset="1" stop-color="white"/>
</linearGradient>
<linearGradient id="paint3_linear_861_7922" x1="37.7408" y1="47.6362" x2="37.7408" y2="106.137" gradientUnits="userSpaceOnUse">
<stop stop-color="#FFEF00"/>
<stop offset="1" stop-color="white"/>
</linearGradient>
<linearGradient id="paint4_linear_861_7922" x1="45.239" y1="47.6367" x2="45.239" y2="106.137" gradientUnits="userSpaceOnUse">
<stop stop-color="#FFEF00"/>
<stop offset="1" stop-color="white"/>
</linearGradient>
<linearGradient id="paint5_linear_861_7922" x1="63.5002" y1="47.6356" x2="63.5002" y2="106.136" gradientUnits="userSpaceOnUse">
<stop stop-color="#FFEF00"/>
<stop offset="1" stop-color="white"/>
</linearGradient>
<linearGradient id="paint6_linear_861_7922" x1="94.221" y1="47.6355" x2="94.221" y2="106.136" gradientUnits="userSpaceOnUse">
<stop stop-color="#FFEF00"/>
<stop offset="1" stop-color="white"/>
</linearGradient>
<linearGradient id="paint7_linear_861_7922" x1="89.2581" y1="47.6362" x2="89.2581" y2="106.137" gradientUnits="userSpaceOnUse">
<stop stop-color="#FFEF00"/>
<stop offset="1" stop-color="white"/>
</linearGradient>
<linearGradient id="paint8_linear_861_7922" x1="88.1653" y1="47.6368" x2="88.1653" y2="106.137" gradientUnits="userSpaceOnUse">
<stop stop-color="#FFEF00"/>
<stop offset="1" stop-color="white"/>
</linearGradient>
<linearGradient id="paint9_linear_861_7922" x1="81.7597" y1="47.6367" x2="81.7597" y2="106.137" gradientUnits="userSpaceOnUse">
<stop stop-color="#FFEF00"/>
<stop offset="1" stop-color="white"/>
</linearGradient>
<linearGradient id="paint10_linear_861_7922" x1="104.492" y1="66.0846" x2="127.424" y2="66.0846" gradientUnits="userSpaceOnUse">
<stop stop-color="#B46414"/>
<stop offset="0.1774" stop-color="#FFFF00"/>
<stop offset="0.3226" stop-color="#B48214"/>
<stop offset="0.4892" stop-color="#FFFF00"/>
<stop offset="0.6774" stop-color="#B48214"/>
<stop offset="0.8656" stop-color="#FFFF00"/>
<stop offset="1" stop-color="#B46414"/>
</linearGradient>
<linearGradient id="paint11_linear_861_7922" x1="32.8798" y1="27.0815" x2="93.089" y2="27.0815" gradientUnits="userSpaceOnUse">
<stop stop-color="#B46414"/>
<stop offset="0.1774" stop-color="#FFFF00"/>
<stop offset="0.3226" stop-color="#B48214"/>
<stop offset="0.4892" stop-color="#FFFF00"/>
<stop offset="0.6774" stop-color="#B48214"/>
<stop offset="0.8656" stop-color="#FFFF00"/>
<stop offset="1" stop-color="#B46414"/>
</linearGradient>
<linearGradient id="paint12_linear_861_7922" x1="-0.816941" y1="67.0831" x2="22.1146" y2="67.0831" gradientUnits="userSpaceOnUse">
<stop stop-color="#B46414"/>
<stop offset="0.1774" stop-color="#FFFF00"/>
<stop offset="0.3226" stop-color="#B48214"/>
<stop offset="0.4892" stop-color="#FFFF00"/>
<stop offset="0.6774" stop-color="#B48214"/>
<stop offset="0.8656" stop-color="#FFFF00"/>
<stop offset="1" stop-color="#B46414"/>
</linearGradient>
<linearGradient id="paint13_linear_861_7922" x1="8.14635" y1="41.4868" x2="40.9058" y2="41.4868" gradientUnits="userSpaceOnUse">
<stop stop-color="#B46414"/>
<stop offset="0.1774" stop-color="#FFFF00"/>
<stop offset="0.3226" stop-color="#B48214"/>
<stop offset="0.4892" stop-color="#FFFF00"/>
<stop offset="0.6774" stop-color="#B48214"/>
<stop offset="0.8656" stop-color="#FFFF00"/>
<stop offset="1" stop-color="#B46414"/>
</linearGradient>
<linearGradient id="paint14_linear_861_7922" x1="85.5324" y1="41.4868" x2="118.292" y2="41.4868" gradientUnits="userSpaceOnUse">
<stop stop-color="#B46414"/>
<stop offset="0.1774" stop-color="#FFFF00"/>
<stop offset="0.3226" stop-color="#B48214"/>
<stop offset="0.4892" stop-color="#FFFF00"/>
<stop offset="0.6774" stop-color="#B48214"/>
<stop offset="0.8656" stop-color="#FFFF00"/>
<stop offset="1" stop-color="#B46414"/>
</linearGradient>
</defs>
</svg>
