<svg width="16" height="16" viewBox="0 0 16 16" fill="none" xmlns="http://www.w3.org/2000/svg">
<path d="M11.5267 2.75995L11.48 5.28661C11.4733 5.63328 11.6933 6.09328 11.9733 6.29995L13.6267 7.55328C14.6867 8.35328 14.5133 9.33328 13.2467 9.73328L11.0933 10.4066C10.7333 10.5199 10.3533 10.9133 10.26 11.2799L9.74665 13.2399C9.33999 14.7866 8.32665 14.9399 7.48665 13.5799L6.31332 11.6799C6.09999 11.3333 5.59332 11.0733 5.19332 11.0933L2.96665 11.2066C1.37332 11.2866 0.919987 10.3666 1.95999 9.15328L3.27999 7.61995C3.52665 7.33328 3.63999 6.79995 3.52665 6.43995L2.84665 4.27995C2.45332 3.01328 3.15999 2.31328 4.41999 2.72661L6.38665 3.37328C6.71999 3.47995 7.21999 3.40661 7.49999 3.19995L9.55332 1.71995C10.6667 0.926614 11.5533 1.39328 11.5267 2.75995Z" fill="#49454F"/>
<path d="M14.2933 13.6466L12.2733 11.6266C12.1792 11.5336 12.0523 11.4814 11.92 11.4814C11.7877 11.4814 11.6608 11.5336 11.5667 11.6266C11.3733 11.8199 11.3733 12.1399 11.5667 12.3332L13.5867 14.3532C13.6867 14.4532 13.8133 14.4999 13.94 14.4999C14.0667 14.4999 14.1933 14.4532 14.2933 14.3532C14.4867 14.1599 14.4867 13.8399 14.2933 13.6466Z" fill="#49454F"/>
</svg>
