<svg width="12" height="12" viewBox="0 0 12 12" fill="none" xmlns="http://www.w3.org/2000/svg">
<circle cx="6" cy="6" r="6" fill="#49454F"/>
<path d="M4.7627 5.05322L3.7959 8H3.01709L4.33789 4.44531H4.8335L4.7627 5.05322ZM5.56592 8L4.59668 5.05322L4.51855 4.44531H5.01904L6.34717 8H5.56592ZM5.52197 6.67676V7.25049H3.64453V6.67676H5.52197Z" fill="white"/>
<path d="M7.86807 8H7.09414L7.09902 7.42871H7.86807C8.06012 7.42871 8.22207 7.38558 8.35391 7.29932C8.48574 7.21143 8.58503 7.08366 8.65176 6.91602C8.72012 6.74837 8.7543 6.54574 8.7543 6.30811V6.13477C8.7543 5.95247 8.73477 5.79215 8.6957 5.65381C8.65827 5.51546 8.60212 5.39909 8.52725 5.30469C8.45238 5.21029 8.36042 5.13949 8.25137 5.09229C8.14232 5.04346 8.01699 5.01904 7.87539 5.01904H7.07949V4.44531H7.87539C8.11302 4.44531 8.33031 4.486 8.52725 4.56738C8.72581 4.64714 8.89753 4.76188 9.04238 4.91162C9.18724 5.06136 9.29873 5.2404 9.37686 5.44873C9.45661 5.65544 9.49648 5.88574 9.49648 6.13965V6.30811C9.49648 6.56038 9.45661 6.79069 9.37686 6.99902C9.29873 7.20736 9.18724 7.38639 9.04238 7.53613C8.89915 7.68424 8.72744 7.79899 8.52725 7.88037C8.32868 7.96012 8.10895 8 7.86807 8ZM7.50918 4.44531V8H6.77676V4.44531H7.50918Z" fill="white"/>
</svg>
