<svg width="13" height="13" viewBox="0 0 13 13" fill="none" xmlns="http://www.w3.org/2000/svg">
<g clip-path="url(#clip0_916_4003)">
<path d="M10.6273 4.71247C10.2755 4.7115 9.92945 4.61368 9.62017 4.42778C9.3109 4.24189 9.04808 3.97373 8.85531 3.64739L4.215 5.71171C4.26583 5.9869 4.26583 6.27067 4.215 6.54586L8.85531 8.60535C9.15442 8.08877 9.6163 7.71428 10.1509 7.55491C10.6854 7.39553 11.2544 7.46272 11.7467 7.74335C12.239 8.02398 12.6195 8.49793 12.8138 9.07278C13.0081 9.64763 13.0024 10.2821 12.7978 10.8526C12.5932 11.423 12.2043 11.8885 11.707 12.1582C11.2097 12.4278 10.6397 12.4824 10.1081 12.3113C9.5765 12.1401 9.12145 11.7555 8.83169 11.2324C8.54193 10.7093 8.43825 10.0852 8.54086 9.48195L3.90055 7.41763C3.64952 7.84149 3.28189 8.16423 2.85228 8.33789C2.42268 8.51156 1.95402 8.52688 1.51594 8.38158C1.07786 8.23629 0.693727 7.93813 0.420619 7.5314C0.147512 7.12467 0 6.63108 0 6.12396C0 5.61684 0.147512 5.12325 0.420619 4.71652C0.693727 4.3098 1.07786 4.01163 1.51594 3.86634C1.95402 3.72104 2.42268 3.73636 2.85228 3.91003C3.28189 4.08369 3.64952 4.40643 3.90055 4.83029L8.54086 2.77079C8.46404 2.29429 8.52141 1.8031 8.70516 1.36403C8.88891 0.924954 9.19012 0.559292 9.56785 0.316763C9.94558 0.0742331 10.3815 -0.0333958 10.8163 0.00850868C11.2511 0.0504122 11.6638 0.239818 11.9981 0.55097C12.3325 0.862123 12.5723 1.27993 12.685 1.74757C12.7977 2.21521 12.7778 2.71001 12.6281 3.16468C12.4783 3.61935 12.2059 4.01183 11.8479 4.28876C11.4899 4.5657 11.0637 4.71364 10.6273 4.71247Z" fill="#212121"/>
</g>
<defs>
<clipPath id="clip0_916_4003">
<rect width="12.956" height="12.41" fill="white" transform="matrix(1 0 0 -1 0 12.4102)"/>
</clipPath>
</defs>
</svg>
