<svg width="16" height="16" viewBox="0 0 16 16" fill="none" xmlns="http://www.w3.org/2000/svg">
<path d="M13.5733 8.48798C13.3267 8.48798 13.12 8.30131 13.0933 8.05464C13.0146 7.33056 12.7809 6.63191 12.4082 6.00613C12.0355 5.38036 11.5325 4.84212 10.9333 4.42798C10.8811 4.39178 10.8365 4.34561 10.8021 4.29212C10.7678 4.23862 10.7444 4.17886 10.7332 4.11628C10.7221 4.0537 10.7234 3.98952 10.7371 3.92746C10.7509 3.86539 10.7768 3.80666 10.8133 3.75464C10.9667 3.53464 11.2667 3.48131 11.4867 3.63464C12.199 4.12936 12.7973 4.77085 13.2411 5.51598C13.685 6.26112 13.9642 7.09263 14.06 7.95464C14.0867 8.22131 13.8933 8.46131 13.6267 8.48798H13.5733ZM2.49333 8.52064H2.44666C2.31856 8.50719 2.20101 8.4435 2.11978 8.34352C2.03855 8.24355 2.00027 8.11546 2.01333 7.98731C2.10213 7.12704 2.37418 6.29578 2.81116 5.54946C3.24814 4.80315 3.83992 4.15909 4.54666 3.66064C4.76 3.50731 5.06666 3.56064 5.22 3.77397C5.37333 3.99397 5.32 4.29398 5.10666 4.44731C4.51344 4.86609 4.01673 5.40701 3.64992 6.0337C3.2831 6.66039 3.05468 7.35834 2.98 8.08064C2.95333 8.33397 2.74 8.52064 2.49333 8.52064ZM10.66 14.0666C9.84 14.46 8.96 14.66 8.04 14.66C7.08 14.66 6.16666 14.4466 5.31333 14.0133C5.25641 13.9854 5.20564 13.9463 5.164 13.8985C5.12235 13.8507 5.09067 13.795 5.0708 13.7348C5.05093 13.6746 5.04328 13.611 5.0483 13.5478C5.05331 13.4846 5.07089 13.423 5.1 13.3666C5.21333 13.1266 5.50666 13.0333 5.74666 13.1466C6.16666 13.36 6.61333 13.5066 7.06666 13.5933C7.68 13.7133 8.30666 13.72 8.92 13.6133C9.37333 13.5333 9.82 13.3933 10.2333 13.1933C10.48 13.08 10.7733 13.1733 10.88 13.42C11 13.66 10.9067 13.9533 10.66 14.0666ZM8.03333 1.34131C7 1.34131 6.15333 2.18131 6.15333 3.22131C6.15333 4.26131 6.99333 5.10131 8.03333 5.10131C9.07333 5.10131 9.91333 4.26131 9.91333 3.22131C9.91333 2.18131 9.07333 1.34131 8.03333 1.34131ZM3.36666 9.24731C2.33333 9.24731 1.48666 10.0873 1.48666 11.1273C1.48666 12.1673 2.32666 13.0073 3.36666 13.0073C4.40666 13.0073 5.24666 12.1673 5.24666 11.1273C5.24666 10.0873 4.4 9.24731 3.36666 9.24731ZM12.6333 9.24731C11.6 9.24731 10.7533 10.0873 10.7533 11.1273C10.7533 12.1673 11.5933 13.0073 12.6333 13.0073C13.6733 13.0073 14.5133 12.1673 14.5133 11.1273C14.5133 10.0873 13.6733 9.24731 12.6333 9.24731Z" fill="#49454F"/>
</svg>
