<svg width="375" height="229" viewBox="0 0 375 229" fill="none" xmlns="http://www.w3.org/2000/svg">
<mask id="mask0_750_5118" style="mask-type:alpha" maskUnits="userSpaceOnUse" x="0" y="0" width="375" height="229">
<rect width="375" height="229" fill="#D9D9D9"/>
</mask>
<g mask="url(#mask0_750_5118)">
<path fill-rule="evenodd" clip-rule="evenodd" d="M50.1035 39.0971C92.6131 36.7408 120.924 77.7539 148.332 110.247C177.149 144.41 213.709 179.879 205.941 223.846C197.902 269.347 155.042 299.512 111.913 316.379C72.8788 331.644 30.4624 325.425 -7.29067 307.234C-44.9731 289.077 -82.1511 261.166 -88.3459 219.888C-94.2091 180.819 -59.3677 151.821 -35.3256 120.427C-10.1859 87.5986 8.74909 41.3893 50.1035 39.0971Z" fill="#A8CBE0"/>
<path fill-rule="evenodd" clip-rule="evenodd" d="M262.649 16.1046C293.601 10.6829 326.405 -3.66312 355.058 9.22258C383.875 22.1815 400.542 53.6055 411.706 83.136C422.025 110.432 411.275 140.223 415.499 169.094C420.63 204.162 451.326 237.595 439.179 270.894C427.279 303.515 390.577 325.114 356.359 331.215C323.623 337.051 295.301 308.655 262.649 302.368C237.667 297.557 212.22 305.56 187.71 298.742C158.241 290.543 126.239 282.549 106.752 258.997C86.4938 234.513 84.1573 200.639 80.4388 169.094C76.3466 134.378 61.86 93.1386 84.0105 66.0764C106.938 38.0648 152.351 48.3774 187.233 38.6198C212.936 31.4296 236.358 20.7099 262.649 16.1046Z" fill="#607B88"/>
</g>
</svg>
