<svg width="68" height="67" viewBox="0 0 68 67" fill="none" xmlns="http://www.w3.org/2000/svg">
<g opacity="0.22">
<path d="M54.8645 32.0045L50.3036 25.7375C50.228 25.6341 50.1078 25.5744 49.9801 25.5786L42.2417 25.7897C41.9214 25.7982 41.7298 25.4347 41.9182 25.1746L46.4578 18.8927C46.5323 18.7893 46.5514 18.656 46.5089 18.5356L43.9166 11.2282C43.8092 10.9254 44.0954 10.6312 44.3998 10.7293L51.7668 13.1139C51.8881 13.1534 52.0211 13.1299 52.1211 13.0521L58.258 8.32439C58.5124 8.12825 58.8805 8.30947 58.8805 8.6314L58.8933 16.3865C58.8933 16.5144 58.9561 16.6338 59.0615 16.7053L65.4463 21.0908C65.7113 21.272 65.6527 21.6792 65.3473 21.7794L57.9888 24.1886C57.8675 24.228 57.7738 24.325 57.7377 24.4476L55.5466 31.8861C55.4583 32.1942 55.0539 32.2646 54.8645 32.0045Z" fill="#FDA4BD"/>
<path d="M29.2407 15.4031L28.7916 10.7202C28.7841 10.6435 28.7395 10.5742 28.6724 10.5369L24.567 8.25244C24.3967 8.15756 24.4095 7.90918 24.5872 7.83137L28.8948 5.95628C28.9661 5.92536 29.0172 5.8614 29.0321 5.78572L29.9323 1.16782C29.9696 0.977004 30.2101 0.910913 30.3388 1.05695L33.4504 4.58114C33.5015 4.63871 33.5781 4.66855 33.6547 4.65896L38.3167 4.08972C38.5104 4.06626 38.6466 4.27413 38.5476 4.44256L36.1618 8.49655C36.1224 8.56371 36.1182 8.64472 36.1512 8.71508L38.1326 12.9812C38.2145 13.1582 38.0592 13.3522 37.8687 13.3095L33.2833 12.2904C33.2078 12.2734 33.129 12.2947 33.0726 12.348L29.6355 15.5535C29.4929 15.6856 29.2598 15.5972 29.2407 15.4031Z" fill="#FAD5E0"/>
<path d="M29.4759 15.7228C29.4354 15.7228 29.3939 15.7153 29.3535 15.7004C29.2311 15.6535 29.1471 15.5437 29.1354 15.4137L28.6863 10.7307C28.682 10.6881 28.6576 10.6508 28.6203 10.6305L24.5149 8.34611C24.3999 8.28215 24.3329 8.16169 24.3393 8.03057C24.3457 7.89946 24.4244 7.78646 24.5447 7.73423L28.8523 5.85914C28.8906 5.84208 28.9193 5.8069 28.9268 5.7664L29.827 1.1485C29.8526 1.01951 29.9462 0.91824 30.0729 0.884128C30.1984 0.850016 30.3314 0.889458 30.4176 0.98753L33.5292 4.51172C33.5569 4.5437 33.5994 4.55862 33.6409 4.55436L38.3029 3.98511C38.4338 3.96912 38.5583 4.02775 38.6296 4.13755C38.7009 4.24735 38.7041 4.38593 38.6381 4.49786L36.2534 8.55078C36.2321 8.58702 36.23 8.6318 36.2481 8.67017L38.2295 12.9363C38.2848 13.0546 38.2678 13.1921 38.1859 13.2945C38.1039 13.3968 37.9741 13.4426 37.8464 13.4139L33.261 12.3948C33.2195 12.3852 33.177 12.3969 33.1461 12.4257L29.7089 15.6311C29.643 15.6908 29.56 15.7228 29.4759 15.7228ZM30.1633 1.08454C30.1516 1.08454 30.1399 1.0856 30.1282 1.0888C30.0803 1.10159 30.0452 1.1389 30.0356 1.18794L29.1354 5.80584C29.1141 5.9167 29.0396 6.00838 28.9364 6.05422L24.6287 7.9293C24.583 7.94956 24.5542 7.99113 24.5521 8.04123C24.55 8.09134 24.5745 8.13611 24.6181 8.15956L28.7235 10.444C28.8214 10.4984 28.8864 10.5986 28.897 10.7105L29.3461 15.3934C29.3503 15.4435 29.3812 15.484 29.428 15.5011C29.4748 15.5192 29.5248 15.5085 29.561 15.4755L32.9982 12.27C33.0801 12.1933 33.195 12.1624 33.3047 12.1869L37.89 13.206C37.939 13.2167 37.9869 13.1996 38.0177 13.1612C38.0486 13.1218 38.055 13.0717 38.0337 13.0269L36.0544 8.75972C36.0065 8.65738 36.0129 8.53905 36.0703 8.44205L38.4551 4.38913C38.4806 4.34649 38.4796 4.29532 38.4519 4.25375C38.4242 4.21217 38.3785 4.19085 38.3285 4.19618L33.6665 4.76542C33.5547 4.77928 33.4441 4.73664 33.3696 4.65243L30.258 1.12824C30.2335 1.09946 30.1995 1.08454 30.1633 1.08454Z" fill="#F7A4C0"/>
<path d="M62.8033 4.47656C62.7937 4.49149 62.7831 4.50641 62.7725 4.52133C62.7831 4.50641 62.7937 4.49149 62.8033 4.47656Z" fill="#F8678F"/>
<path d="M62.7702 4.52637C62.7626 4.53729 62.7538 4.5482 62.7451 4.55912C62.7528 4.5482 62.7615 4.53729 62.7702 4.52637Z" fill="#F8678F"/>
<path d="M62.7207 4.58594C62.7194 4.58724 62.7181 4.58854 62.7168 4.58983C62.7181 4.58854 62.7194 4.58724 62.7207 4.58594Z" fill="#F8678F"/>
<path d="M63.0801 5.30152C63.1258 5.31005 63.162 5.29512 63.1769 5.25781C63.162 5.29512 63.1258 5.31005 63.0801 5.30152Z" fill="#F8678F"/>
<path d="M62.6026 4.20312C62.4578 4.22125 62.3525 4.43231 62.411 4.61247C62.3599 4.41952 62.4621 4.22125 62.6026 4.20312Z" fill="#F8678F"/>
<path d="M64.2891 3.15692C64.3264 3.1324 64.3625 3.12601 64.3977 3.1292L64.2934 3.10149C64.2785 3.09722 64.2646 3.08976 64.2529 3.0791C64.2614 3.10042 64.2806 3.13347 64.2891 3.15692Z" fill="#F8678F"/>
<path d="M64.5029 3.15625C64.5551 3.1765 64.6051 3.19889 64.6562 3.19676L64.5029 3.15625Z" fill="#F8678F"/>
<path d="M60.7508 2.9082L60.4145 2.9178C60.3837 2.97323 60.373 3.04572 60.3741 3.11394C60.3741 3.12673 60.3773 3.14166 60.3805 3.15765L60.5369 3.35166C60.6433 3.22054 60.7125 3.0745 60.7508 2.9082Z" fill="#F8678F"/>
<path d="M60.9413 3.24969C60.9019 3.15162 60.9402 3.08339 61.036 3.06207C61.1158 3.04395 61.1435 3.09618 61.1254 3.17187C61.202 3.19852 61.2722 3.23476 61.3222 3.30299C61.3903 3.17507 61.3159 3.02903 61.3467 2.89258L61.0349 2.90111C61.0211 2.9139 61.0083 2.92669 60.9966 2.94055C60.8678 3.09832 60.7338 3.25289 60.5976 3.40532C60.5944 3.40852 60.5901 3.41065 60.5869 3.41278L60.8955 3.79335C60.9008 3.78588 60.9072 3.77949 60.9125 3.77203C61.036 3.60786 61.0902 3.43304 60.9413 3.24969Z" fill="#F8678F"/>
<path d="M61.4079 4.34075C61.4536 4.30877 61.4994 4.27679 61.5452 4.24481C61.6218 4.10623 61.4834 4.01775 61.459 3.90156C61.4462 3.8376 61.3792 3.88876 61.3525 3.91968C61.3079 3.97085 61.2738 4.03161 61.2312 4.09344C61.1706 3.86425 61.1844 3.83333 61.3738 3.76617C61.3877 3.76191 61.4153 3.75978 61.4164 3.75445C61.4473 3.55724 61.6133 3.43465 61.6867 3.27688C61.7495 3.14257 61.8176 3.00932 61.8846 2.875L61.3462 2.88992C61.3153 3.02637 61.3898 3.17348 61.3217 3.30033C61.3047 3.34297 61.2866 3.38668 61.2695 3.42932C61.178 3.60414 61.144 3.80562 61.0439 3.97511L61.3557 4.35993C61.3717 4.3546 61.3887 4.34714 61.4079 4.34075Z" fill="#F8678F"/>
<path d="M60.9968 2.93983C61.0085 2.92491 61.0223 2.91212 61.0351 2.90039L60.751 2.90785C60.7127 3.07521 60.6435 3.22126 60.5371 3.35024L60.5871 3.41207C60.5903 3.40994 60.5946 3.40781 60.5978 3.40461C60.734 3.25217 60.8681 3.0976 60.9968 2.93983Z" fill="#F8678F"/>
<path d="M62.2579 3.07091C62.2036 3.14659 62.1696 3.11781 62.1302 3.04106C62.0972 2.97817 61.8482 3.12101 61.8833 3.19456C61.9344 3.30543 61.6822 3.51436 62.0025 3.54634C62.0855 3.55487 61.9525 3.70411 61.9674 3.80112C61.9749 3.85015 61.9163 3.91411 61.8589 3.89279C61.745 3.85228 61.9163 3.79898 61.8567 3.74995C61.6695 3.8267 61.6503 3.86188 61.7227 4.02711C61.7588 4.10812 61.7833 4.18701 61.7365 4.27015C61.7759 4.3501 61.8887 4.35224 61.9174 4.44391C61.9653 4.49082 61.977 4.54625 61.9515 4.60808C62.0015 4.68589 62.0547 4.73493 62.1622 4.75412C62.3462 4.78823 62.2271 4.67204 62.2441 4.62513C62.3165 4.43005 62.3196 4.19873 62.5612 4.09426C62.309 3.98233 62.3271 3.96741 62.5122 3.78513C62.6825 3.6167 62.7219 3.36406 62.791 3.13807C62.6665 3.14446 62.7208 3.07304 62.74 3.01761C62.6187 3.06238 62.6697 3.16791 62.6485 3.25213C62.6219 3.35766 62.5697 3.4568 62.5176 3.58792C62.4324 3.48132 62.442 3.39817 62.475 3.35553C62.5506 3.25639 62.5516 3.16791 62.5112 3.05705C62.4803 2.97284 62.5186 2.88329 62.5921 2.83532C62.6644 2.78842 62.74 2.814 62.791 2.88756C62.7985 2.87476 62.8028 2.85451 62.8145 2.84918C63.0592 2.72339 63.1529 2.50273 63.1976 2.24902C62.9485 2.2874 62.7836 2.40573 62.7538 2.67755C62.7485 2.73192 62.6346 2.75004 62.6251 2.70634C62.6102 2.64024 62.5591 2.62639 62.5112 2.60933L62.3739 2.8204C62.3569 2.84705 62.3282 2.86304 62.2962 2.8641H62.2941C62.3409 2.90355 62.2994 3.01334 62.2579 3.07091ZM62.044 4.10599C62.1121 4.15396 62.1909 4.20833 62.16 4.30853C62.1366 4.38315 62.0749 4.35543 62.0249 4.33518C61.9419 4.30213 61.9046 4.2435 61.9344 4.15822C61.9578 4.10492 61.9951 4.07188 62.044 4.10599Z" fill="#F8678F"/>
<path d="M64.2262 6.68096C64.2305 6.57436 64.222 6.47842 64.2677 6.36436C64.3284 6.21086 64.1964 6.08934 64.0294 6.04883C64.0336 6.11492 64.0368 6.18101 64.0432 6.27908C63.9197 6.19807 63.8399 6.02644 63.6846 6.16076C63.7633 6.27269 63.7505 6.34731 63.6856 6.40061L64.1975 6.75239C64.2028 6.73 64.2134 6.70548 64.2262 6.68096Z" fill="#F8678F"/>
<path d="M64.4638 6.28587C64.5309 6.44364 64.3191 6.54065 64.3755 6.69735C64.3989 6.76131 64.3893 6.81461 64.334 6.84765L64.5724 7.01182C64.5777 7.01502 64.583 7.01715 64.5894 7.02035C64.5851 6.96491 64.5798 6.90309 64.5958 6.85725C64.6266 6.76664 64.6511 6.69308 64.7086 6.66857L64.6724 5.98633C64.6532 6.00232 64.6415 6.02684 64.6288 6.05029C64.5862 6.13557 64.6628 6.30719 64.4638 6.28587Z" fill="#F8678F"/>
<path d="M64.5963 6.85665C64.5804 6.90249 64.5867 6.96538 64.5899 7.01975C64.6527 7.04746 64.7272 7.00056 64.7229 6.92701L64.7091 6.66797C64.6516 6.69249 64.6272 6.76497 64.5963 6.85665Z" fill="#F8678F"/>
<path d="M61.8086 6.20912C61.7287 6.1814 61.7043 6.24216 61.667 6.29226C61.5904 6.39353 61.4989 6.34237 61.4201 6.29866C61.3169 6.2411 61.3712 6.17181 61.4212 6.10998C61.451 6.07373 61.4914 6.03323 61.4563 5.98952C61.4074 5.92876 61.3669 6.00338 61.3233 6.00871C61.2329 6.02043 61.1658 6.05455 61.1052 6.10785L61.0456 6.31252C61.0509 6.31465 61.0551 6.31465 61.0605 6.31785C61.1052 6.33917 61.1254 6.3914 61.0977 6.43404C61.0711 6.47348 61.0328 6.50227 60.9902 6.51612C60.9902 6.54384 61.0009 6.56836 61.02 6.58648C61.069 6.51399 61.1286 6.46069 61.186 6.45323C61.2446 6.4447 61.2914 6.48521 61.3414 6.52145L61.7426 6.36688C61.7628 6.31252 61.7883 6.26135 61.8086 6.20912Z" fill="#F8678F"/>
<path d="M63.8834 2.88189C63.8526 2.84884 63.8174 2.81899 63.7834 2.78808C63.7249 2.92986 63.5855 2.88402 63.4812 2.91813C63.5684 2.99382 63.5833 3.23793 63.5046 3.30509C63.4737 3.33174 63.4365 3.3424 63.3992 3.32641C63.3428 3.30402 63.3396 3.25072 63.3673 3.21341C63.4258 3.13666 63.429 3.04285 63.4631 2.95971C63.2396 2.93839 63.312 2.83925 63.4035 2.73478C63.2598 2.69214 63.3035 2.60046 63.3428 2.50879C63.2354 2.55356 63.2449 2.67082 63.196 2.75077C63.2886 2.86163 63.3024 2.95118 63.1396 3.01407C63.0938 3.03219 63.0523 3.08123 63.0279 3.126C62.9076 3.34773 62.7884 3.57159 62.6788 3.79971C62.6533 3.85408 62.6224 3.94895 62.7203 3.97134C62.8086 3.99053 62.8438 3.91484 62.8416 3.83915C62.8374 3.67925 62.8916 3.64727 63.0257 3.73362C63.0587 3.75494 63.1364 3.77733 63.1258 3.70271C63.1066 3.57372 63.1641 3.59611 63.2407 3.62276C63.329 3.6526 63.3652 3.70164 63.3269 3.79865C63.2864 3.90525 63.2194 3.96921 63.1045 3.96174C63.0002 3.95535 62.914 3.97773 62.8129 4.09606C62.9768 4.08113 63.0991 4.1323 63.2194 4.06408C63.4195 4.06514 63.5088 3.96068 63.5099 3.7656C63.511 3.69418 63.5333 3.62702 63.5865 3.57692C63.6206 3.54494 63.6834 3.47138 63.6961 3.57798C63.7174 3.75068 63.9281 3.5524 63.9324 3.7091C63.9356 3.83489 63.7504 3.8253 63.7376 3.94469C63.7281 4.03956 63.6897 4.11951 63.6546 4.20586C63.5759 4.402 63.4748 4.40413 63.3396 4.26555C63.2428 4.28687 63.1598 4.32738 63.1236 4.42865C63.0949 4.50007 63.0651 4.57256 63.0364 4.64398C62.9502 4.76124 63.0353 4.91581 62.947 5.06398C62.8916 4.94992 62.8863 4.81561 62.7448 4.81667C62.7384 4.81667 62.732 4.8849 62.7267 4.92114C62.782 4.97764 62.7895 5.04373 62.748 5.10876C62.715 5.16099 62.6863 5.11409 62.6586 5.0949C62.6522 5.10876 62.6469 5.12368 62.6405 5.13647C62.6097 5.17058 62.5798 5.20576 62.55 5.23987C62.3542 5.46054 62.4309 5.58846 62.7363 5.64495C62.6501 5.71744 62.5809 5.77714 62.5107 5.83683C62.4926 5.86988 62.4532 5.90825 62.4607 5.93384C62.4756 5.9882 62.5235 5.95303 62.5554 5.94237C62.7363 5.8816 62.964 5.86561 62.8906 5.5682C62.8757 5.50744 62.947 5.48825 63.0034 5.48399C63.0087 5.47866 63.0193 5.47013 63.0183 5.468C62.865 5.17272 63.2098 5.00855 63.2088 4.74952C63.2088 4.6653 63.2673 4.57576 63.3758 4.68129C63.4131 4.71327 63.3918 4.80601 63.4695 4.78896C63.5631 4.76977 63.6578 4.74312 63.7419 4.69941C63.7823 4.67809 63.7419 4.63332 63.7068 4.61413C63.6578 4.58748 63.5929 4.51819 63.6238 4.49794C63.8143 4.36895 63.7866 4.08113 64.0079 3.98093C64.1165 3.92443 64.2388 3.88393 64.224 3.72083C64.2197 3.67179 64.2623 3.63661 64.3133 3.62809C64.3708 3.61956 64.4229 3.63448 64.4527 3.68778C64.4783 3.73469 64.4953 3.78585 64.5166 3.83489C64.5453 3.84662 64.574 3.85728 64.6028 3.869C64.6177 3.83382 64.639 3.80504 64.6805 3.79971C64.706 3.72189 64.7422 3.65047 64.8113 3.6025C65.038 3.59291 65.2338 3.76134 65.4669 3.7155C65.4871 3.70697 65.5073 3.69951 65.5275 3.68991C65.5445 3.6654 65.5807 3.63022 65.5743 3.61849C65.5201 3.51935 65.5296 3.46925 65.5658 3.4394L65.137 3.32428C65.0965 3.36478 65.0667 3.41062 65.0795 3.47885C64.9816 3.46499 64.8816 3.46072 64.7869 3.43514C64.6709 3.40423 64.6166 3.33813 64.7486 3.25286C64.7603 3.24539 64.7699 3.23687 64.7805 3.22834L64.656 3.19529C64.606 3.19742 64.5549 3.17397 64.5028 3.15478L64.3974 3.12707C64.3623 3.12494 64.3261 3.13133 64.2889 3.15478C64.2793 3.13133 64.2601 3.09935 64.2527 3.0759C64.242 3.06524 64.2325 3.05245 64.2271 3.03752L64.1612 2.85204C64.075 2.95011 63.993 2.99702 63.8834 2.88189Z" fill="#F8678F"/>
<path d="M66.142 3.59433L65.8547 3.51758C65.8355 3.52824 65.8089 3.53996 65.7738 3.55276C65.6887 3.58367 65.6918 3.67641 65.6557 3.7425C65.6759 3.88428 65.6301 4.00047 65.5173 4.08789C65.495 4.14438 65.512 4.18489 65.5684 4.20941C65.5759 4.21261 65.5822 4.21367 65.5886 4.21581L65.9398 3.94611C65.9621 3.9152 65.9866 3.88641 66.0175 3.8619C66.0026 3.87789 65.9919 3.89388 65.9845 3.912L66.176 3.76382C66.2388 3.71479 66.2186 3.61565 66.142 3.59433Z" fill="#F8678F"/>
<path d="M64.7873 3.43718C64.8809 3.46277 64.982 3.46703 65.0799 3.48089C65.0671 3.4116 65.0969 3.36683 65.1374 3.32632L64.7819 3.23145C64.7724 3.24104 64.7617 3.2485 64.75 3.25596C64.617 3.34124 64.6702 3.40627 64.7873 3.43718Z" fill="#F8678F"/>
<path d="M63.2064 2.1038C63.233 2.07928 63.2639 2.0569 63.2862 2.02918C63.3107 1.9972 63.3352 1.96096 63.3756 1.99614C63.4161 2.03025 63.4193 2.07822 63.3778 2.11446C63.3214 2.1635 63.2586 2.20507 63.1979 2.25091C63.1532 2.50462 63.0596 2.72528 62.8148 2.85107C62.8031 2.85746 62.7989 2.87665 62.7914 2.88944C62.8287 2.95553 62.8116 2.99817 62.7393 3.02056C62.7201 3.07599 62.6659 3.14741 62.7904 3.14102C62.8478 3.08132 62.9063 3.02056 62.9638 2.9598C63.0032 2.89157 62.9968 2.79244 63.0936 2.76152C63.1277 2.75832 63.1628 2.75513 63.1969 2.75193C63.2458 2.67091 63.2362 2.55472 63.3437 2.50995C63.5172 2.25731 63.6034 1.95883 63.7491 1.69126L63.7002 1.55268C63.63 1.63476 63.548 1.70405 63.4161 1.71578C63.3767 1.71898 63.3384 1.75842 63.2958 1.72431C63.2213 1.66354 63.2479 1.5708 63.2352 1.49512L63.1437 1.63689C63.1277 1.67953 63.1075 1.72111 63.0755 1.74243L62.9 2.01426C63.0096 1.98334 63.1022 2.08355 63.2064 2.1038Z" fill="#F8678F"/>
<path d="M63.2961 1.72385C63.3387 1.75903 63.377 1.71852 63.4163 1.71533C63.5472 1.7036 63.6302 1.63538 63.7005 1.55223L63.6537 1.42004C63.6345 1.42537 63.6164 1.4307 63.5951 1.4371C63.5994 1.39659 63.6079 1.35928 63.6196 1.32517L63.5866 1.23349C63.56 1.15887 63.4589 1.14715 63.4163 1.21324L63.2344 1.49466C63.2482 1.57035 63.2205 1.66203 63.2961 1.72385Z" fill="#F8678F"/>
<path d="M63.4046 2.73511C63.4887 2.70846 63.494 2.6381 63.4961 2.56668C63.4993 2.45475 63.576 2.35348 63.6494 2.32257C63.7771 2.26927 63.8473 2.18718 63.892 2.09018L63.7505 1.69043C63.6047 1.958 63.5185 2.25647 63.345 2.50912C63.3046 2.60079 63.261 2.69247 63.4046 2.73511Z" fill="#F8678F"/>
<path d="M63.4953 2.56634C63.4932 2.63777 63.4889 2.70812 63.4038 2.73477C63.3123 2.83924 63.2399 2.93838 63.4634 2.9597C63.4698 2.94477 63.4751 2.93092 63.4815 2.91706C63.5858 2.88295 63.7252 2.92878 63.7837 2.78701C63.872 2.70492 63.9061 2.53969 64.0561 2.55568L63.8912 2.08984C63.8465 2.18578 63.7763 2.26893 63.6486 2.32223C63.5762 2.35315 63.4985 2.45441 63.4953 2.56634Z" fill="#F8678F"/>
<path d="M60.4146 2.91699L60.3848 2.91806C60.3061 2.92019 60.2635 3.01293 60.3135 3.07369L60.3806 3.15578C60.3774 3.14085 60.3752 3.12486 60.3742 3.11207C60.3731 3.04491 60.3838 2.97242 60.4146 2.91699Z" fill="#F8678F"/>
<path d="M61.2701 3.43198C61.2871 3.38934 61.3052 3.34563 61.3222 3.30299C61.2722 3.23477 61.202 3.19959 61.1254 3.17188L61.1232 3.17294C61.1381 3.37441 61.0243 3.27208 60.9445 3.24969L60.9423 3.25076C61.0902 3.43411 61.036 3.60893 60.9125 3.7731C60.9072 3.78056 60.9008 3.78696 60.8955 3.79442L60.9945 3.91701C61.0519 3.73792 61.1477 3.57909 61.2701 3.43198Z" fill="#F8678F"/>
<path d="M61.0358 3.06123C60.94 3.08255 60.9017 3.15077 60.9411 3.24884L60.9432 3.24778C60.9709 3.14651 61.0305 3.12199 61.122 3.17103L61.1241 3.16996C61.1433 3.09534 61.1167 3.04311 61.0358 3.06123Z" fill="#F8678F"/>
<path d="M61.4155 3.75525C61.4155 3.76058 61.3878 3.76165 61.3729 3.76698C61.1835 3.83414 61.1697 3.86505 61.2303 4.09424C61.2729 4.03241 61.3069 3.97165 61.3516 3.92048C61.3782 3.88957 61.4453 3.83733 61.4581 3.90236C61.4825 4.01855 61.6209 4.10703 61.5442 4.24561C61.6251 4.21043 61.6953 4.19444 61.6592 4.32556C61.6453 4.3746 61.623 4.4215 61.6038 4.47054C61.7007 4.43856 61.6943 4.34049 61.7337 4.2712C61.7805 4.18698 61.7549 4.10916 61.7198 4.02815C61.6475 3.86185 61.6666 3.82774 61.8539 3.75099C61.9135 3.80002 61.7422 3.85332 61.856 3.89383C61.9146 3.91409 61.972 3.85119 61.9646 3.80216C61.9497 3.70515 62.0827 3.55591 61.9997 3.54738C61.6794 3.5154 61.9305 3.30647 61.8805 3.1956C61.8465 3.12205 62.0955 2.97921 62.1274 3.0421C62.1668 3.11885 62.2019 3.14763 62.2551 3.07195C62.2966 3.01332 62.3381 2.90352 62.2934 2.86621L62.0572 2.87261C62.0412 2.91418 62.0103 2.94829 61.9518 2.9387C61.905 2.93124 61.8965 2.90672 61.9007 2.87687H61.8826C61.8156 3.01012 61.7475 3.14337 61.6847 3.27875C61.6134 3.43545 61.4474 3.55804 61.4155 3.75525Z" fill="#F8678F"/>
<path d="M61.4646 5.06645C61.4944 4.98757 61.5231 4.90975 61.6136 4.87564C61.6625 4.85752 61.704 4.83726 61.6955 4.76051C61.671 4.53985 61.7945 4.54305 61.9488 4.60807C61.9743 4.54625 61.9626 4.49081 61.9147 4.44391C61.8136 4.39274 61.7274 4.37782 61.6806 4.51533C61.6689 4.54838 61.6348 4.57609 61.6072 4.60168C61.5848 4.62193 61.5582 4.64645 61.5316 4.65711L61.4731 4.85645C61.4837 4.92041 61.4284 5.01955 61.4646 5.06645Z" fill="#F8678F"/>
<path d="M61.5448 4.49637C61.481 4.46119 61.3745 4.46332 61.4075 4.3418C61.3884 4.34819 61.3713 4.35565 61.3564 4.36312L61.4873 4.52408C61.5086 4.51555 61.531 4.50809 61.5448 4.49637Z" fill="#F8678F"/>
<path d="M61.2786 5.65095C61.3126 5.54648 61.3722 5.48359 61.4701 5.48678C61.5106 5.36419 61.2381 5.33541 61.4127 5.19577C61.3999 5.1915 61.3893 5.18617 61.3797 5.17871L61.2041 5.77674C61.2382 5.74369 61.2626 5.69998 61.2786 5.65095Z" fill="#F8678F"/>
<path d="M61.465 5.06636C61.4288 5.01839 61.4842 4.92032 61.4746 4.85742L61.3799 5.17829C61.3895 5.18468 61.4001 5.19108 61.4129 5.19534C61.431 5.1527 61.448 5.11006 61.465 5.06636Z" fill="#F8678F"/>
<path d="M61.6607 4.32547C61.6969 4.19436 61.6267 4.21035 61.5458 4.24552C61.5001 4.2775 61.4543 4.30948 61.4085 4.34146C61.3756 4.46299 61.482 4.46086 61.5458 4.49603C61.566 4.48751 61.5863 4.47898 61.6065 4.47045C61.6246 4.42141 61.6469 4.37451 61.6607 4.32547Z" fill="#F8678F"/>
<path d="M61.2698 3.43164C61.1474 3.57875 61.0516 3.73758 60.9941 3.9156L61.0442 3.97743C61.1453 3.80794 61.1793 3.60646 61.2698 3.43164Z" fill="#F8678F"/>
<path d="M61.9544 2.93816C62.0129 2.94776 62.0438 2.91364 62.0597 2.87207L61.9033 2.87633C61.8991 2.90618 61.9076 2.9307 61.9544 2.93816Z" fill="#F8678F"/>
<path d="M61.3242 6.00816C61.3668 6.00283 61.4083 5.92821 61.4573 5.98897C61.4924 6.03267 61.4509 6.07318 61.4221 6.10943C61.3721 6.17125 61.3168 6.24054 61.4211 6.29811C61.4998 6.34181 61.5913 6.39298 61.668 6.29171C61.7052 6.24161 61.7297 6.18085 61.8095 6.20856C61.8425 6.25227 61.885 6.27039 61.9393 6.2608C61.9936 6.0977 61.8553 5.93673 61.9372 5.77151C61.9489 5.74805 61.9351 5.64892 61.8765 5.69689C61.7637 5.7875 61.6775 5.71501 61.6073 5.66384C61.4796 5.57003 61.6701 5.51993 61.6594 5.43572C61.6562 5.4048 61.6584 5.37389 61.6573 5.34297C61.685 5.29074 61.6467 5.17988 61.7552 5.20013C61.8297 5.21399 61.8233 5.28861 61.8031 5.3515C61.7818 5.41653 61.7424 5.50607 61.8521 5.50501C61.968 5.50287 62.0457 5.42719 62.0276 5.29287C61.9606 5.20439 61.951 5.09353 62.067 5.07647C62.2777 5.04556 62.2852 4.84622 62.4001 4.74069C62.3479 4.70338 62.2969 4.665 62.2447 4.62769C62.2277 4.67459 62.3458 4.78972 62.1628 4.75668C62.0542 4.73749 62.0021 4.68845 61.9521 4.61063C61.7978 4.54561 61.6754 4.54348 61.6988 4.76307C61.7063 4.83876 61.6648 4.85901 61.6169 4.8782C61.5264 4.91125 61.4977 4.98906 61.4679 5.06901C61.4509 5.11165 61.4338 5.15536 61.4158 5.198C61.2402 5.33658 61.5137 5.36643 61.4732 5.48902C61.3742 5.48582 61.3157 5.54871 61.2817 5.65318C61.2657 5.70222 61.2402 5.74592 61.2072 5.78003L61.1104 6.10943C61.1668 6.05399 61.2338 6.01988 61.3242 6.00816Z" fill="#F8678F"/>
<path d="M62.4113 4.61309C62.3528 4.43294 62.4581 4.22187 62.6028 4.20375C62.6656 4.19629 62.7412 4.19629 62.7582 4.26665C62.7742 4.3338 62.6954 4.34446 62.6497 4.36365C62.5294 4.41482 62.4368 4.48198 62.4453 4.65787C62.5667 4.70051 62.6507 4.66106 62.7178 4.59071C62.7188 4.58964 62.7199 4.58858 62.721 4.58751C62.7295 4.57898 62.738 4.56939 62.7454 4.55873C62.7539 4.54807 62.7625 4.53741 62.7699 4.52675C62.771 4.52462 62.772 4.52355 62.7731 4.52142C62.7837 4.5065 62.7933 4.49157 62.804 4.47665C62.8987 4.33274 62.9944 4.27837 63.1253 4.43081C63.1615 4.32954 63.2456 4.2901 63.3413 4.26771L63.3403 4.26558C63.2477 4.23253 63.1498 4.20269 63.2211 4.06944L63.22 4.06624C63.0998 4.1334 62.9774 4.08329 62.8135 4.09822C62.9146 3.97989 63.0008 3.95751 63.1051 3.9639C63.2211 3.97136 63.2871 3.90634 63.3275 3.80081C63.3658 3.7038 63.3297 3.65583 63.2413 3.62492C63.1647 3.59827 63.1072 3.57588 63.1264 3.70487C63.137 3.77842 63.0594 3.7571 63.0264 3.73578C62.8923 3.64943 62.837 3.68141 62.8423 3.84131C62.8444 3.917 62.8093 3.99268 62.721 3.9735C62.6231 3.95111 62.6529 3.85517 62.6795 3.80187C62.7891 3.57375 62.9072 3.34989 63.0285 3.12816C63.053 3.08339 63.0945 3.03329 63.1402 3.01623C63.302 2.9544 63.2892 2.86486 63.1966 2.75293C63.1615 2.75613 63.1275 2.75933 63.0934 2.76252C63.053 2.83075 63.0593 2.92989 62.9636 2.9608C62.9061 3.02156 62.8486 3.08126 62.7901 3.14202C62.721 3.36908 62.6816 3.62065 62.5113 3.78908C62.3262 3.97136 62.3081 3.98629 62.5603 4.09822C62.3187 4.20162 62.3145 4.43401 62.2432 4.62908C62.2953 4.66639 62.3464 4.70477 62.3985 4.74208C62.4081 4.7165 62.4187 4.69198 62.4283 4.66746C62.4219 4.64827 62.4166 4.63015 62.4113 4.61309Z" fill="#F8678F"/>
<path d="M62.6255 2.70731C62.6351 2.75101 62.7489 2.73289 62.7543 2.67852C62.7841 2.40669 62.949 2.28837 63.198 2.24999C63.2587 2.20522 63.3204 2.16258 63.3778 2.11355C63.4193 2.0773 63.4161 2.02933 63.3757 1.99522C63.3353 1.96111 63.3108 1.99735 63.2863 2.02827C63.264 2.05598 63.2331 2.07837 63.2065 2.10289C63.0895 2.10075 62.9639 2.15619 62.8575 2.07624L62.5127 2.60923C62.5595 2.62629 62.6106 2.64121 62.6255 2.70731Z" fill="#F8678F"/>
<path d="M62.7911 2.88888C62.739 2.81532 62.6645 2.78867 62.5921 2.83664C62.5187 2.88461 62.4793 2.97416 62.5112 3.05837C62.5517 3.1703 62.5506 3.25771 62.4751 3.35685C62.4421 3.39949 62.4325 3.48264 62.5176 3.58924C62.5708 3.45812 62.623 3.35898 62.6485 3.25345C62.6698 3.16923 62.6187 3.0637 62.74 3.01893C62.8124 2.99867 62.8294 2.95497 62.7911 2.88888Z" fill="#F8678F"/>
<path d="M62.0245 4.33536C62.0745 4.35562 62.1362 4.38333 62.1596 4.30871C62.1905 4.20851 62.1117 4.15308 62.0436 4.10617C61.9957 4.07313 61.9585 4.10511 61.934 4.15947C61.9042 4.24475 61.9415 4.30232 62.0245 4.33536Z" fill="#F8678F"/>
<path d="M61.6096 4.60301C61.6373 4.57743 61.6713 4.55078 61.683 4.51666C61.7288 4.37915 61.816 4.39301 61.9171 4.44524C61.8884 4.35357 61.7756 4.35143 61.7362 4.27148C61.6969 4.33971 61.7022 4.43885 61.6064 4.47083C61.5862 4.47935 61.566 4.48788 61.5457 4.49641C61.5319 4.50814 61.5096 4.5156 61.4883 4.52413L61.5191 4.5625C61.5394 4.58702 61.5458 4.62007 61.5362 4.64991L61.534 4.65738C61.5606 4.64778 61.5862 4.62326 61.6096 4.60301Z" fill="#F8678F"/>
<path d="M64.9185 4.44125C64.9876 4.36769 64.9334 4.29947 64.844 4.26855C64.7525 4.27069 64.7131 4.33038 64.6886 4.40713C64.6684 4.58729 64.6822 4.7781 64.6396 4.95399C64.645 4.94653 64.6514 4.93907 64.6588 4.93267L64.8376 4.79516C64.8238 4.66937 64.8152 4.55104 64.9185 4.44125Z" fill="#F8678F"/>
<path d="M64.3758 5.55018C64.2502 5.54378 64.2417 5.65678 64.2066 5.73673C64.1768 5.80602 64.1364 5.85612 64.0565 5.85932C64.0246 5.92008 64.0225 5.98404 64.0299 6.05013C64.1981 6.09064 64.33 6.21216 64.2683 6.36566C64.2225 6.47973 64.2311 6.57567 64.2268 6.68227C64.3151 6.70785 64.346 6.75902 64.3162 6.83577L64.3353 6.84856C64.3896 6.81552 64.3992 6.76222 64.3769 6.69826C64.3194 6.54155 64.5322 6.44348 64.4652 6.28678C64.6631 6.30917 64.5865 6.13648 64.6312 6.05013C64.644 6.02561 64.6557 6.00216 64.6748 5.98617L64.6503 5.52246C64.6099 5.60241 64.5833 5.69195 64.496 5.73886C64.4194 5.69728 64.4928 5.55551 64.3758 5.55018Z" fill="#F8678F"/>
<path d="M64.3467 5.35479C64.4691 5.40063 64.5489 5.3921 64.6255 5.32601C64.6297 5.32281 64.634 5.31961 64.6383 5.31535L64.6223 5.01367C64.5797 5.14266 64.501 5.25992 64.3467 5.35479Z" fill="#F8678F"/>
<path d="M63.6835 6.16016C63.5835 6.22412 63.4856 6.21772 63.3877 6.1964L63.6835 6.40001C63.7495 6.34671 63.7612 6.27209 63.6835 6.16016Z" fill="#F8678F"/>
<path d="M63.6824 6.16045C63.8388 6.02614 63.9175 6.19883 64.041 6.27878C64.0357 6.18177 64.0314 6.11462 64.0271 6.04852C63.825 5.95578 63.9633 5.90994 64.0538 5.85771C64.0899 5.80867 64.1357 5.76284 64.1591 5.70847C64.1868 5.64451 64.2581 5.56669 64.158 5.507C64.058 5.44624 63.9899 5.54857 63.9825 5.59867C63.9537 5.78949 63.7771 5.85771 63.6898 5.99629C63.6654 6.03573 63.626 6.03147 63.5866 6.02187C63.5664 6.0304 63.5462 6.03893 63.5259 6.04746C63.4908 6.20736 63.6355 6.11675 63.6824 6.16045Z" fill="#F8678F"/>
<path d="M64.2261 6.68066C64.2144 6.70518 64.2027 6.7297 64.1963 6.75209L64.3165 6.83417C64.3442 6.75742 64.3144 6.70625 64.2261 6.68066Z" fill="#F8678F"/>
<path d="M61.1875 6.45137C61.13 6.4599 61.0704 6.5132 61.0215 6.58462C61.047 6.60807 61.0843 6.61873 61.1215 6.60487L61.3429 6.51959C61.2928 6.48228 61.246 6.44284 61.1875 6.45137Z" fill="#F8678F"/>
<path d="M61.938 6.26122C61.8837 6.27081 61.8412 6.25269 61.8082 6.20898C61.7869 6.26122 61.7624 6.31239 61.7422 6.36462L61.9242 6.29426C61.9295 6.28467 61.9337 6.27294 61.938 6.26122Z" fill="#F8678F"/>
<path d="M61.0988 6.43207C61.1275 6.38943 61.1073 6.3372 61.0615 6.31588C61.0562 6.31374 61.052 6.31268 61.0466 6.31055L60.9945 6.4875C60.9924 6.49603 60.9913 6.50562 60.9902 6.51415C61.0328 6.50029 61.0711 6.47258 61.0988 6.43207Z" fill="#F8678F"/>
<path d="M64.6091 4.70359C64.6091 4.78568 64.558 4.87096 64.4463 4.8539C64.3356 4.83578 64.3399 4.76436 64.375 4.68227C64.2771 4.70146 64.2249 4.65776 64.2462 4.56182C64.2696 4.45308 64.3824 4.41897 64.4569 4.44242C64.5506 4.47121 64.459 4.55435 64.4537 4.61405C64.5591 4.55435 64.5889 4.46588 64.5314 4.36354C64.4963 4.30065 64.4952 4.24948 64.5229 4.18978C64.4537 4.19085 64.3888 4.24308 64.3154 4.20684C64.2664 4.28466 64.2143 4.36034 64.1707 4.44029C64.1324 4.51278 64.0823 4.51385 64.0174 4.48613C63.9557 4.46055 63.9078 4.42217 63.9195 4.34862C63.9312 4.274 63.9919 4.23562 64.0547 4.26121C64.16 4.30491 64.226 4.20684 64.3154 4.20577C64.3388 4.12582 64.3973 4.05653 64.3824 3.94141C64.3079 3.99044 64.2462 4.03735 64.1781 4.07466C64.077 4.13009 63.9951 4.13648 64.0047 3.98085C63.7823 4.08105 63.811 4.3678 63.6205 4.49786C63.5907 4.51811 63.6546 4.5874 63.7035 4.61405C63.7386 4.63324 63.7791 4.67801 63.7386 4.69933C63.6546 4.74304 63.5599 4.76969 63.4662 4.78887C63.3875 4.80486 63.4098 4.71212 63.3726 4.68121C63.2278 4.89547 63.3066 5.16517 63.197 5.3901C63.1619 5.46152 63.2076 5.53081 63.2938 5.53934C63.3811 5.54786 63.3875 5.60436 63.3875 5.67045C63.3875 5.74934 63.3257 5.74188 63.2736 5.7568C63.164 5.78771 63.0938 5.86766 63.0225 5.94868L63.1406 6.02969C63.1214 5.90711 63.1374 5.82822 63.3438 5.91243C63.4737 5.96573 63.6141 5.82183 63.5662 5.74294C63.3949 5.46685 63.5779 5.36238 63.7514 5.23553C63.7141 5.19395 63.6929 5.14598 63.7131 5.09055C63.7301 5.04258 63.7376 4.98182 63.8025 4.97329C63.844 4.9669 63.8727 4.99355 63.8897 5.03086C63.9195 5.09801 63.8706 5.12253 63.8259 5.15451C63.7972 5.17476 63.7759 5.20888 63.7514 5.23659C63.811 5.24725 63.8706 5.25685 63.9302 5.26857C63.9908 5.2803 64.0259 5.31654 64.0281 5.37837C64.0302 5.42634 64.0164 5.48604 63.9717 5.4935C63.7376 5.53294 63.7014 5.70457 63.679 5.89751C63.6737 5.94228 63.6184 5.98172 63.5865 6.0233C63.6248 6.03183 63.6641 6.03716 63.6897 5.99771C63.7769 5.85913 63.9536 5.79091 63.9823 5.6001C63.9898 5.55 64.0579 5.44766 64.1579 5.50842C64.2579 5.56812 64.1866 5.64594 64.159 5.7099C64.1356 5.76426 64.0898 5.8101 64.0536 5.85913C64.1334 5.85594 64.1739 5.80584 64.2037 5.73655C64.2388 5.6566 64.2473 5.54253 64.3728 5.55C64.491 5.55533 64.4165 5.6971 64.492 5.73868C64.5793 5.69071 64.6059 5.60116 64.6463 5.52228L64.6357 5.31654C64.6314 5.31974 64.6272 5.32294 64.6229 5.3272C64.5463 5.39329 64.4665 5.40076 64.3441 5.35598C64.4984 5.26004 64.5772 5.14385 64.6187 5.01593V5.01487C64.6176 4.99355 64.624 4.97223 64.6368 4.95517C64.6793 4.77928 64.6655 4.58847 64.6857 4.40831C64.6304 4.49786 64.6102 4.5938 64.6091 4.70359Z" fill="#F8678F"/>
<path d="M63.0023 5.48438C62.9459 5.48864 62.8747 5.50889 62.8895 5.56859C62.963 5.866 62.7352 5.88093 62.5543 5.94275C62.5224 5.95341 62.4756 5.98859 62.4596 5.93423C62.4522 5.90864 62.4916 5.87027 62.5097 5.83722C62.4405 5.83829 62.3756 5.89052 62.3032 5.85428C62.2819 5.94915 62.2766 6.04189 62.3458 6.12184C62.4671 6.08986 62.5799 5.94808 62.7012 5.99499L62.9013 5.91824C62.9981 5.79032 62.9193 5.61549 63.0023 5.48438Z" fill="#F8678F"/>
<path d="M65.2069 4.30969C65.2069 4.29797 65.2356 4.27984 65.2324 4.27451C65.0483 3.9771 65.3814 3.89822 65.4676 3.71593C65.2345 3.76177 65.0387 3.59334 64.8121 3.60293C64.8674 3.64024 64.9887 3.63278 64.9409 3.74365C64.91 3.814 64.861 3.89608 64.7695 3.91207C64.6876 3.92593 64.662 3.8769 64.6812 3.80121C64.6397 3.80654 64.6184 3.83532 64.6035 3.8705C64.612 3.95578 64.7323 3.94192 64.7408 4.0272C64.7802 4.14553 64.9291 4.11142 64.9898 4.20522C64.9706 4.29264 64.8802 4.22015 64.8451 4.26918C64.9345 4.29903 64.9887 4.36832 64.9196 4.44187C64.8163 4.55167 64.8249 4.67 64.8387 4.79579L65.0398 4.64122C65.1015 4.53248 65.2005 4.43868 65.2069 4.30969ZM65.0483 4.04959C65.0122 4.09756 64.9653 4.11888 64.9079 4.08903C64.8706 4.06984 64.8387 4.04213 64.877 4.00055C64.9143 3.96111 64.9632 3.93766 65.0207 3.95152C65.0568 3.97817 65.0781 4.00908 65.0483 4.04959Z" fill="#F8678F"/>
<path d="M65.518 4.08796C65.5638 3.97283 65.6106 3.8577 65.6564 3.74257C65.6138 3.72552 65.5702 3.70846 65.5276 3.69141C65.5074 3.69993 65.4872 3.70846 65.4669 3.71699C65.3807 3.89928 65.0477 3.97816 65.2318 4.27557C65.235 4.27984 65.2062 4.29796 65.2062 4.31075C65.2009 4.43867 65.1009 4.53354 65.0381 4.64014L65.3829 4.37471C65.3627 4.35552 65.352 4.32781 65.3616 4.2873C65.3861 4.1839 65.4733 4.22654 65.5436 4.24999L65.5563 4.24039C65.5606 4.22973 65.5648 4.21907 65.5691 4.20841C65.5127 4.18496 65.4957 4.14445 65.518 4.08796Z" fill="#F8678F"/>
<path d="M63.276 5.75636C63.3271 5.74251 63.3899 5.74997 63.3899 5.67002C63.3888 5.60393 63.3835 5.54849 63.2962 5.5389C63.209 5.53037 63.1643 5.46002 63.1994 5.38966C63.309 5.16474 63.2303 4.89504 63.375 4.68077C63.2665 4.57524 63.2079 4.66478 63.2079 4.749C63.209 5.00803 62.8642 5.1722 63.0174 5.46748C63.0185 5.46961 63.0079 5.47814 63.0025 5.48347C62.9195 5.61459 62.9983 5.78941 62.9004 5.9184L62.9068 5.91626C62.9366 5.90454 62.9696 5.9088 62.9951 5.92692L63.026 5.94824C63.0962 5.86723 63.1675 5.78728 63.276 5.75636ZM63.0802 5.30118C63.0387 5.28413 63.0217 5.24788 63.0291 5.21164C63.0398 5.16154 63.0802 5.13809 63.1313 5.15194C63.1739 5.16367 63.1898 5.20311 63.1824 5.24042C63.1813 5.24682 63.1792 5.25215 63.1771 5.25748C63.1622 5.29479 63.126 5.30971 63.0802 5.30118Z" fill="#F8678F"/>
<path d="M62.494 5.12072C62.5068 5.08234 62.5909 5.11859 62.6398 5.13671C62.6462 5.12285 62.6526 5.10899 62.6579 5.09513L62.6568 5.093C62.51 4.97468 62.3972 5.0994 62.2471 5.17828C62.2684 5.05036 62.2791 4.9427 62.3855 4.91925C62.4919 4.89579 62.6153 4.8894 62.693 5.00666C62.7047 4.97787 62.7154 4.94909 62.7271 4.92031C62.6845 4.89259 62.594 4.89579 62.6079 4.8393C62.6185 4.79559 62.6951 4.75828 62.7505 4.73696C62.8345 4.70391 62.9633 4.7764 62.9952 4.6261C62.9271 4.6197 62.8196 4.66554 62.8399 4.53016C62.8516 4.4534 62.9229 4.38944 62.9867 4.41396C63.1112 4.46406 63.0059 4.55254 62.9952 4.6261C63.0091 4.63249 63.024 4.63782 63.0378 4.64422C63.0665 4.5728 63.0963 4.50031 63.125 4.42889C62.9931 4.27645 62.8973 4.33188 62.8037 4.47472C62.7941 4.48965 62.7835 4.50457 62.7728 4.5195C62.7718 4.52163 62.7707 4.52269 62.7696 4.52483C62.7611 4.53549 62.7537 4.54615 62.7452 4.55681C62.7377 4.5664 62.7292 4.57599 62.7207 4.58559C62.7196 4.58665 62.7185 4.58772 62.7175 4.58879C62.6504 4.65914 62.5664 4.69858 62.4451 4.65594C62.4461 4.67087 62.4472 4.68686 62.4493 4.70391C62.4419 4.69112 62.4355 4.67726 62.4302 4.66447C62.4206 4.68899 62.41 4.71457 62.4004 4.73909C62.2854 4.84569 62.278 5.04503 62.0673 5.07488C61.9513 5.09194 61.9609 5.20387 62.0279 5.29128C62.062 5.28915 62.0971 5.28488 62.1311 5.28275C62.2365 5.20067 62.4302 5.32006 62.494 5.12072Z" fill="#F8678F"/>
<path d="M63.3409 4.26552L63.3419 4.26765C63.4771 4.4073 63.5771 4.4041 63.6569 4.20796C63.692 4.12161 63.7303 4.04166 63.7399 3.94679C63.7516 3.82846 63.9378 3.83699 63.9346 3.7112C63.9304 3.55557 63.7197 3.75384 63.6984 3.58008C63.6856 3.47348 63.6229 3.54704 63.5888 3.57902C63.5356 3.62912 63.5133 3.69628 63.5122 3.7677C63.5101 3.96171 63.4217 4.06725 63.2217 4.06618L63.2227 4.06938C63.2717 4.12801 63.5026 4.07684 63.3409 4.26552Z" fill="#F8678F"/>
<path d="M64.5163 3.83541C64.495 3.78637 64.478 3.7352 64.4524 3.6883C64.4226 3.635 64.3705 3.61901 64.313 3.6286C64.2619 3.63713 64.2194 3.67124 64.2236 3.72134C64.2385 3.88444 64.1151 3.92495 64.0076 3.98145C63.998 4.13708 64.08 4.13069 64.1811 4.07525C64.2492 4.03795 64.3109 3.99104 64.3854 3.94201C64.3992 4.05713 64.3407 4.12642 64.3183 4.20637C64.3907 4.24262 64.4556 4.19038 64.5258 4.18932C64.611 4.06992 64.512 3.95373 64.5163 3.83541Z" fill="#F8678F"/>
<path d="M62.5492 5.24204C62.579 5.20793 62.6098 5.17275 62.6396 5.13864C62.5907 5.11945 62.5066 5.08428 62.4938 5.12265C62.43 5.32093 62.2363 5.20154 62.1299 5.28575C62.3385 5.32306 62.3427 5.45418 62.2672 5.60661C62.232 5.67804 62.1756 5.73667 62.2757 5.7953C62.2512 5.62047 62.4002 5.63326 62.48 5.64606C62.6194 5.66844 62.5204 5.76971 62.5087 5.839C62.579 5.77931 62.6492 5.72068 62.7343 5.64712C62.43 5.59062 62.3534 5.4627 62.5492 5.24204Z" fill="#F8678F"/>
<path d="M63.7852 2.78807C63.8192 2.81898 63.8533 2.84883 63.8852 2.88188C63.9937 2.99594 64.0757 2.9501 64.1629 2.85416L64.0576 2.55675C63.9065 2.54076 63.8724 2.70599 63.7852 2.78807Z" fill="#F8678F"/>
<path d="M65.5732 3.62058C65.5796 3.63231 65.5434 3.66749 65.5264 3.69201C65.57 3.70906 65.6126 3.72612 65.6551 3.74317C65.6913 3.67815 65.6881 3.58434 65.7732 3.55343C65.8084 3.54063 65.8339 3.52891 65.8541 3.51825L65.5647 3.44043C65.5274 3.47028 65.5189 3.52145 65.5732 3.62058Z" fill="#F8678F"/>
<path d="M62.9952 4.62793C62.9952 4.62793 62.9941 4.62793 62.9952 4.62793C62.9633 4.77824 62.8334 4.70575 62.7504 4.73879C62.6962 4.76011 62.6185 4.79742 62.6079 4.84113C62.594 4.89763 62.6855 4.89443 62.727 4.92214C62.7334 4.8859 62.7387 4.81768 62.7451 4.81768C62.8867 4.81661 62.8931 4.95093 62.9473 5.06499C63.0367 4.91575 62.9516 4.76118 63.0367 4.64499C63.0229 4.63966 63.009 4.63433 62.9952 4.62793Z" fill="#F8678F"/>
<path d="M63.368 3.21325C63.3393 3.25056 63.3435 3.30386 63.3999 3.32625C63.4372 3.34224 63.4744 3.33158 63.5053 3.30493C63.584 3.2367 63.5691 2.99365 63.4819 2.91797C63.4755 2.93183 63.4702 2.94568 63.4638 2.96061C63.4308 3.04269 63.4265 3.1365 63.368 3.21325Z" fill="#F8678F"/>
<path d="M64.6799 3.80179C64.6607 3.87748 64.6863 3.92651 64.7682 3.91265C64.8587 3.89667 64.9087 3.81458 64.9395 3.74423C64.9874 3.63336 64.8672 3.64083 64.8108 3.60352C64.7416 3.65255 64.7054 3.72397 64.6799 3.80179Z" fill="#F8678F"/>
<path d="M64.5243 4.19091C64.5934 4.18558 64.6424 4.1632 64.6424 4.08005C64.6424 4.0097 64.6913 4.01503 64.7403 4.02675C64.7318 3.94147 64.6115 3.95533 64.603 3.87005C64.5743 3.85832 64.5455 3.84766 64.5168 3.83594C64.5115 3.95426 64.6104 4.07046 64.5243 4.19091Z" fill="#F8678F"/>
<path d="M62.6572 5.09448L62.6583 5.09661C62.686 5.1158 62.7158 5.1627 62.7477 5.11047C62.7892 5.04544 62.7828 4.97935 62.7264 4.92285C62.7147 4.95163 62.703 4.98042 62.6924 5.0092C62.7285 5.0561 62.6732 5.06783 62.6572 5.09448Z" fill="#F8678F"/>
<path d="M65.5557 4.24162L65.5895 4.21651C65.5829 4.21433 65.5764 4.21324 65.5687 4.20996C65.5644 4.22088 65.56 4.2307 65.5557 4.24162Z" fill="#F8678F"/>
<path d="M65.9385 3.94554L65.9832 3.91143C65.9906 3.89437 66.0013 3.87732 66.0162 3.86133C65.9853 3.88585 65.9608 3.91569 65.9385 3.94554Z" fill="#F8678F"/>
<path d="M65.6569 3.74316C65.6111 3.85829 65.5643 3.97342 65.5186 4.08855C65.6303 4.00007 65.6771 3.88494 65.6569 3.74316Z" fill="#F8678F"/>
<path d="M63.1433 1.63672L63.0752 1.74225C63.1082 1.71987 63.1284 1.67829 63.1433 1.63672Z" fill="#F8678F"/>
<path d="M63.2066 2.10323C63.1023 2.08298 63.0097 1.98277 62.8979 2.01369L62.8564 2.07765C62.9639 2.15653 63.0895 2.1011 63.2066 2.10323Z" fill="#F8678F"/>
<path d="M63.0937 2.76074C62.9969 2.79166 63.0032 2.89079 62.9639 2.95902C63.0596 2.9281 63.0522 2.82897 63.0937 2.76074Z" fill="#F8678F"/>
<path d="M63.6541 1.41998L63.6212 1.32617C63.6094 1.35922 63.6009 1.39653 63.5967 1.4381C63.6158 1.43171 63.635 1.42531 63.6541 1.41998Z" fill="#F8678F"/>
<path d="M60.9443 3.24838C61.0241 3.27077 61.138 3.3731 61.1231 3.17163C61.0316 3.12259 60.972 3.14818 60.9443 3.24838Z" fill="#F8678F"/>
<path d="M62.1738 5.89917C62.1834 5.89491 62.1887 5.8544 62.1813 5.83734C62.1089 5.65932 62.0876 5.43973 62.1313 5.28516C62.0972 5.28729 62.0621 5.29155 62.0281 5.29368C62.0461 5.428 61.9685 5.50369 61.8525 5.50582C61.7429 5.50795 61.7822 5.41734 61.8035 5.35231C61.7546 5.34912 61.7067 5.34592 61.6577 5.34272C61.6588 5.37363 61.6567 5.40455 61.6599 5.43546C61.6705 5.51968 61.48 5.56978 61.6077 5.66359C61.6779 5.71475 61.7641 5.78724 61.8769 5.69663C61.9365 5.64866 61.9493 5.7478 61.9376 5.77125C61.8557 5.93648 61.994 6.09851 61.9397 6.26054C61.9982 6.27014 62.0249 6.1209 62.1036 6.22643C62.0674 6.10491 61.9876 5.97486 62.1738 5.89917Z" fill="#F8678F"/>
<path d="M61.7541 5.20068C61.6445 5.18043 61.6839 5.29129 61.6562 5.34353C61.7052 5.34673 61.7542 5.34992 61.802 5.35312C61.8212 5.28916 61.8286 5.21454 61.7541 5.20068Z" fill="#F8678F"/>
<path d="M62.6496 4.36331C62.6964 4.34412 62.7751 4.3324 62.7581 4.26631C62.7411 4.19595 62.6645 4.19595 62.6028 4.20341C62.4623 4.22153 62.3591 4.41981 62.4112 4.61275C62.4155 4.62981 62.4219 4.64793 62.4293 4.66499C62.4346 4.67885 62.441 4.69164 62.4484 4.70443C62.4463 4.68737 62.4453 4.67245 62.4442 4.65646C62.4367 4.48164 62.5293 4.41448 62.6496 4.36331Z" fill="#F8678F"/>
<path d="M63.2218 4.06934C63.1505 4.20259 63.2484 4.23243 63.341 4.26548C63.5027 4.0768 63.2718 4.12797 63.2218 4.06934Z" fill="#F8678F"/>
<path d="M64.6426 4.07986C64.6426 4.16301 64.5926 4.18539 64.5245 4.19072C64.4968 4.25042 64.4979 4.30159 64.533 4.36448C64.5904 4.46682 64.5606 4.55636 64.4553 4.61499C64.4298 4.63738 64.4031 4.65976 64.3765 4.68321C64.3414 4.7653 64.3372 4.83672 64.4478 4.85484C64.5596 4.8719 64.6096 4.78662 64.6107 4.70453C64.6117 4.59474 64.6319 4.49773 64.6894 4.40712C64.7139 4.33037 64.7533 4.27067 64.8448 4.26854C64.8799 4.22057 64.9703 4.29306 64.9895 4.20458C64.9288 4.11077 64.7809 4.14489 64.7405 4.02656C64.6915 4.01483 64.6426 4.0095 64.6426 4.07986Z" fill="#F8678F"/>
<path d="M64.0281 6.04921C64.0207 5.98312 64.0228 5.91916 64.0547 5.8584C63.9643 5.91063 63.8259 5.9554 64.0281 6.04921Z" fill="#F8678F"/>
<path d="M62.3451 6.12358C62.344 6.12785 62.3419 6.13104 62.3408 6.13531L62.7016 5.99673C62.5781 5.94983 62.4664 6.0916 62.3451 6.12358Z" fill="#F8678F"/>
<path d="M61.9386 6.26195C61.9343 6.27367 61.93 6.28433 61.9258 6.29606L62.1024 6.22783C62.0237 6.12123 61.9981 6.27154 61.9386 6.26195Z" fill="#F8678F"/>
<path d="M63.6828 6.16085C63.636 6.11714 63.4913 6.20775 63.5275 6.04785C63.4349 6.05638 63.3466 6.09689 63.2529 6.10435L63.387 6.19603C63.4849 6.21948 63.5828 6.22587 63.6828 6.16085Z" fill="#F8678F"/>
<path d="M63.5885 6.02303C63.6205 5.98146 63.6758 5.94202 63.6811 5.89725C63.7035 5.7043 63.7386 5.53374 63.9738 5.49323C64.0195 5.48577 64.0323 5.42501 64.0302 5.37811C64.028 5.31628 63.9919 5.28003 63.9323 5.26831C63.8727 5.25658 63.8131 5.24699 63.7535 5.23633C63.58 5.36318 63.397 5.46765 63.5683 5.74374C63.6162 5.82263 63.4768 5.96654 63.3459 5.91324C63.1405 5.82796 63.1235 5.90791 63.1427 6.0305L63.2523 6.10618C63.3449 6.09765 63.4332 6.05715 63.5268 6.04968C63.5481 6.03902 63.5683 6.03156 63.5885 6.02303Z" fill="#F8678F"/>
<path d="M62.3027 5.85546C62.2942 5.83521 62.2857 5.81496 62.2772 5.7947C62.1771 5.73501 62.2335 5.67744 62.2687 5.60602C62.3442 5.45358 62.3399 5.32247 62.1314 5.28516C62.0877 5.44079 62.109 5.65932 62.1814 5.83734C62.1888 5.85546 62.1835 5.89597 62.1739 5.89917C61.9888 5.97486 62.0675 6.10491 62.1026 6.22643L62.3399 6.13476C62.341 6.13049 62.3431 6.12729 62.3442 6.12303C62.2761 6.04308 62.2814 5.95034 62.3027 5.85546Z" fill="#F8678F"/>
<path d="M64.0559 4.26336C63.9931 4.23778 63.9324 4.27615 63.9207 4.35077C63.909 4.42432 63.9569 4.4627 64.0186 4.48828C64.0835 4.516 64.1336 4.51493 64.1719 4.44245C64.2155 4.36143 64.2676 4.28681 64.3166 4.20899C64.2272 4.20793 64.1612 4.306 64.0559 4.26336Z" fill="#F8678F"/>
<path d="M62.4804 5.64535C62.4006 5.63256 62.2516 5.61977 62.2761 5.79459C62.2846 5.81485 62.2931 5.8351 62.3017 5.85535C62.374 5.8916 62.4389 5.83936 62.5081 5.8383C62.5209 5.76901 62.6198 5.66774 62.4804 5.64535Z" fill="#F8678F"/>
<path d="M64.4576 4.44355C64.3831 4.4201 64.2703 4.45421 64.2469 4.56294C64.2256 4.65888 64.2778 4.70259 64.3757 4.6834C64.4023 4.66101 64.4289 4.63756 64.4544 4.61518C64.4608 4.55548 64.5512 4.47233 64.4576 4.44355Z" fill="#F8678F"/>
<path d="M63.8915 5.02922C63.8745 4.99191 63.8457 4.96526 63.8042 4.97165C63.7393 4.98125 63.7319 5.04094 63.7148 5.08891C63.6946 5.14434 63.7159 5.19231 63.7531 5.23389C63.7776 5.20617 63.7978 5.17313 63.8276 5.15181C63.8723 5.12089 63.9213 5.09744 63.8915 5.02922Z" fill="#F8678F"/>
<path d="M65.0201 3.95333C64.9627 3.93947 64.9137 3.96186 64.8765 4.00237C64.8382 4.04287 64.8712 4.07165 64.9073 4.09084C64.9648 4.12069 65.0116 4.09937 65.0478 4.0514C65.0776 4.00983 65.0563 3.97891 65.0201 3.95333Z" fill="#F8678F"/>
<path d="M65.362 4.2878C65.3524 4.32831 65.363 4.35496 65.3832 4.37521L65.5439 4.25156C65.4737 4.22704 65.3854 4.1844 65.362 4.2878Z" fill="#F8678F"/>
<path d="M63.1312 5.15237C63.0801 5.13851 63.0397 5.16196 63.029 5.21206C63.0216 5.24937 63.0386 5.28562 63.0791 5.30161C63.1248 5.31014 63.161 5.29521 63.1759 5.2579C63.178 5.25257 63.1802 5.24618 63.1812 5.24085C63.1897 5.20354 63.1738 5.16303 63.1312 5.15237Z" fill="#F8678F"/>
<path d="M62.693 5.0082C62.6163 4.88987 62.4929 4.89627 62.3854 4.92078C62.2779 4.94424 62.2684 5.05084 62.2471 5.17982C62.3971 5.10094 62.5099 4.97622 62.6568 5.09454C62.6727 5.06789 62.7281 5.05617 62.693 5.0082Z" fill="#F8678F"/>
<path d="M62.9948 4.62795C63.0065 4.55547 63.1108 4.46592 62.9863 4.41582C62.9224 4.39024 62.8501 4.45526 62.8394 4.53201C62.8192 4.66739 62.9256 4.62156 62.9948 4.62795C62.9948 4.62795 62.9937 4.62795 62.9948 4.62795Z" fill="#F8678F"/>
<path d="M59.4164 45.7302L59.2323 42.6835C59.2291 42.6334 59.2015 42.5876 59.1589 42.562L56.5486 40.9875C56.44 40.9225 56.4539 40.7615 56.5709 40.7146L59.4069 39.5975C59.4537 39.5794 59.4877 39.5388 59.4994 39.4898L60.1879 36.5167C60.2167 36.3931 60.3731 36.3568 60.454 36.4539L62.3907 38.8097C62.4226 38.8481 62.4716 38.8694 62.5216 38.8651L65.5576 38.6029C65.6831 38.5922 65.7672 38.7308 65.6991 38.8374L64.0603 41.4107C64.0337 41.4534 64.0284 41.5056 64.0486 41.5525L65.2362 44.3636C65.2851 44.4797 65.1798 44.6023 65.0574 44.5704L62.1076 43.805C62.0587 43.7922 62.0076 43.805 61.9693 43.8369L59.6676 45.8368C59.5729 45.9188 59.4249 45.8559 59.4164 45.7302Z" fill="#FAD5E0"/>
<path d="M59.57 45.9792C59.5359 45.9792 59.5019 45.9728 59.4689 45.9589C59.3774 45.9206 59.3167 45.8353 59.3114 45.7361L59.1273 42.6895C59.1262 42.6746 59.1177 42.6607 59.1049 42.6533L56.4946 41.0788C56.4095 41.0276 56.3616 40.9338 56.3701 40.8347C56.3786 40.7356 56.4414 40.6513 56.5329 40.6151L59.3689 39.4979C59.3827 39.4926 59.3933 39.4798 59.3965 39.4659L60.085 36.4929C60.1074 36.3959 60.1819 36.3223 60.2776 36.2989C60.3745 36.2765 60.4734 36.3095 60.5362 36.3863L62.4729 38.7421C62.4825 38.7539 62.4974 38.7603 62.5123 38.7592L65.5483 38.497C65.6473 38.4874 65.7409 38.5353 65.792 38.6206C65.8431 38.7059 65.842 38.8104 65.7888 38.8946L64.15 41.4679C64.1415 41.4807 64.1404 41.4967 64.1468 41.5105L65.3344 44.3216C65.3727 44.4132 65.3568 44.5166 65.2918 44.5923C65.2269 44.668 65.1269 44.6989 65.0311 44.6733L62.0813 43.908C62.0675 43.9048 62.0516 43.908 62.0398 43.9176L59.7381 45.9174C59.6902 45.9579 59.6306 45.9792 59.57 45.9792ZM60.3383 36.5046C60.334 36.5046 60.3298 36.5057 60.3266 36.5057C60.3159 36.5078 60.2978 36.5153 60.2925 36.5398L59.604 39.5129C59.5849 39.596 59.5264 39.6642 59.4465 39.6951L56.6106 40.8123C56.5872 40.8219 56.5829 40.8411 56.5819 40.8517C56.5808 40.8624 56.5829 40.8816 56.6042 40.8955L59.2146 42.4699C59.2869 42.5136 59.3337 42.5915 59.3391 42.6757L59.5232 45.7223C59.5242 45.7468 59.5412 45.7575 59.5508 45.7617C59.5604 45.766 59.5796 45.7703 59.5987 45.7543L61.9004 43.7545C61.9654 43.698 62.0526 43.6777 62.1346 43.699L65.0843 44.4644C65.1088 44.4708 65.1237 44.458 65.1301 44.4495C65.1375 44.441 65.1471 44.425 65.1376 44.4015L63.95 41.5905C63.917 41.5116 63.9244 41.4221 63.9702 41.3496L65.609 38.7762C65.6217 38.7549 65.6153 38.7368 65.609 38.7272C65.6036 38.7176 65.593 38.7038 65.5653 38.7048L62.5293 38.9671C62.4432 38.9745 62.3612 38.9393 62.3069 38.8733L60.3702 36.5174C60.3617 36.5078 60.3489 36.5046 60.3383 36.5046Z" fill="#F7A4C0"/>
<path d="M16.2961 15.521L15.465 13.5756C15.4512 13.5436 15.4225 13.5201 15.3884 13.5138L13.3176 13.0959C13.2314 13.0788 13.2027 12.9701 13.2687 12.9125L14.8585 11.5203C14.8851 11.498 14.8978 11.4628 14.8936 11.4287L14.6499 9.32652C14.6403 9.2391 14.734 9.17834 14.8085 9.22311L16.6218 10.3083C16.6516 10.3264 16.6888 10.3286 16.7197 10.3136L18.6394 9.43205C18.7192 9.39581 18.8054 9.46616 18.7862 9.55144L18.3169 11.6141C18.3095 11.6483 18.3191 11.6834 18.3425 11.709L19.7727 13.2654C19.8323 13.3304 19.7918 13.4349 19.7046 13.4423L17.6008 13.6321C17.5656 13.6353 17.5348 13.6555 17.5178 13.6854L16.4813 15.5296C16.443 15.6074 16.3312 15.601 16.2961 15.521Z" fill="#FDA4BD"/>
<path d="M48.1784 43.3764C48.1103 43.3764 48.0433 43.3509 47.9911 43.3029L46.2683 41.7199L43.99 42.2444C43.8867 42.2678 43.7803 42.2316 43.7122 42.1495C43.6452 42.0663 43.6303 41.9555 43.675 41.8585L44.6455 39.7275L43.443 37.7192C43.3887 37.6275 43.3898 37.5156 43.4483 37.426C43.5058 37.3365 43.6079 37.2885 43.7133 37.3003L46.0363 37.5668L47.5719 35.8015C47.6421 35.7215 47.7496 35.6885 47.8517 35.7151C47.9549 35.7428 48.0316 35.8239 48.0528 35.9283L48.5179 38.2234L50.6685 39.1412C50.7664 39.1828 50.8313 39.2756 50.8366 39.3811C50.843 39.4877 50.7887 39.5858 50.6962 39.6391L48.6605 40.7914L48.454 43.1238C48.4444 43.2304 48.3774 43.3199 48.2774 43.3583C48.2465 43.3711 48.2125 43.3764 48.1784 43.3764ZM46.281 41.3969C46.3502 41.3969 46.4173 41.4225 46.4683 41.4704L48.1454 43.0108L48.3465 40.7402C48.3551 40.6486 48.4072 40.5675 48.487 40.5228L50.4674 39.4013L48.3742 38.508C48.2901 38.4718 48.2295 38.3972 48.2103 38.3076L47.7581 36.0744L46.264 37.7928C46.2044 37.862 46.114 37.8972 46.0235 37.8866L43.7633 37.6275L44.9328 39.5826C44.9796 39.6614 44.9849 39.7574 44.9466 39.8416L44.0027 41.915L46.2204 41.4044C46.2395 41.399 46.2608 41.3969 46.281 41.3969Z" fill="#FED9E4"/>
<path d="M64.0145 32.1314L64.0954 30.8991C64.0965 30.8788 64.0879 30.8597 64.072 30.8469L63.1047 30.0815C63.0643 30.0495 63.0781 29.9855 63.1281 29.9727L64.3231 29.6689C64.3423 29.6636 64.3582 29.6497 64.3657 29.6306L64.7935 28.4718C64.8116 28.4239 64.8765 28.4175 64.9031 28.4601L65.5607 29.5048C65.5714 29.5218 65.5905 29.5325 65.6107 29.5336L66.843 29.5826C66.8941 29.5847 66.9207 29.6444 66.8877 29.6839L66.0992 30.6337C66.0864 30.6497 66.0822 30.6699 66.0875 30.6902L66.4216 31.8787C66.4354 31.9278 66.3865 31.9715 66.3397 31.9523L65.1947 31.495C65.1755 31.4875 65.1542 31.4897 65.1372 31.5014L64.1114 32.1868C64.0677 32.2145 64.0113 32.1826 64.0145 32.1314Z" fill="#FAD5E0"/>
<path d="M64.0762 32.3045C64.0475 32.3045 64.0188 32.297 63.9922 32.2821C63.9368 32.2501 63.9049 32.1894 63.9092 32.1254L63.9879 30.9166L63.0387 30.1661C62.9887 30.1267 62.9653 30.0617 62.978 29.9988C62.9919 29.9359 63.0387 29.8868 63.1015 29.8708L64.2742 29.5724L64.6934 28.436C64.7158 28.3752 64.7701 28.3337 64.8339 28.3273C64.8988 28.3198 64.9595 28.3507 64.9935 28.4051L65.6384 29.4295L66.8472 29.4775C66.9122 29.4796 66.9675 29.518 66.9941 29.5777C67.0207 29.6363 67.0111 29.7045 66.9696 29.7536L66.196 30.6853L66.5238 31.8515C66.5408 31.9133 66.5227 31.9794 66.4748 32.022C66.4269 32.0647 66.3599 32.0775 66.3003 32.0529L65.1766 31.6041L64.171 32.2768C64.1412 32.2949 64.1082 32.3045 64.0762 32.3045ZM63.2409 30.0542L64.138 30.7631C64.1816 30.7972 64.205 30.8516 64.2018 30.9059L64.1273 32.0476L65.0776 31.4123C65.1233 31.3814 65.1819 31.375 65.233 31.3963L66.2939 31.8205L65.9842 30.7194C65.9693 30.6661 65.981 30.6085 66.0172 30.5659L66.7472 29.6864L65.6065 29.6406C65.5511 29.6384 65.5001 29.6097 65.4713 29.5617L64.8616 28.5938L64.4657 29.6672C64.4466 29.7195 64.4029 29.7578 64.3497 29.7717L63.2409 30.0542Z" fill="#F7A4C0"/>
<path d="M47.6268 6.83916C47.6151 6.83916 47.6034 6.83809 47.5917 6.83596C47.514 6.82317 47.4512 6.76773 47.4289 6.69205L47.182 5.86483L46.3615 5.5994C46.286 5.57488 46.2328 5.51199 46.2211 5.4331C46.2094 5.35529 46.2424 5.27853 46.3073 5.23376L47.0171 4.74234L47.016 3.87888C47.016 3.8 47.0596 3.72857 47.1309 3.6934C47.2011 3.65822 47.2842 3.66675 47.3469 3.71472L48.0322 4.23919L48.8516 3.97056C48.9261 3.94604 49.007 3.96629 49.0623 4.02279C49.1177 4.07929 49.1358 4.1603 49.1092 4.23492L48.8229 5.04935L49.3305 5.74757C49.3773 5.81153 49.3826 5.89468 49.3465 5.96504C49.3103 6.03539 49.239 6.07803 49.1592 6.0759L48.2972 6.05565L47.7917 6.75494C47.7534 6.80824 47.6917 6.83916 47.6268 6.83916ZM47.5342 6.56626C47.5342 6.56626 47.5332 6.56626 47.5342 6.56626V6.56626ZM46.6787 5.36595L47.3374 5.57915C47.4023 5.60047 47.4523 5.65163 47.4714 5.71666L47.6694 6.37971L48.0748 5.81793C48.1152 5.7625 48.1791 5.73052 48.2461 5.73265L48.9378 5.74971L48.5303 5.19006C48.4909 5.13569 48.4802 5.06427 48.5026 5.00031L48.7324 4.34579L48.0748 4.56112C48.0099 4.58244 47.9397 4.56965 47.8865 4.52914L47.3363 4.10807L47.3374 4.80097C47.3374 4.86919 47.3044 4.93315 47.248 4.97153L46.6787 5.36595ZM47.165 5.80727V5.80834V5.80727Z" fill="#FED9E4"/>
<path d="M2.02839 5.64166C2.00073 5.64166 1.97199 5.63633 1.94432 5.62673C1.856 5.59475 1.79429 5.51694 1.78364 5.42313L1.59848 3.76337L0.128907 2.9756C0.0459042 2.93083 -0.0030453 2.84555 0.000147116 2.75174C0.00333953 2.65793 0.0586721 2.57478 0.143803 2.53641L1.66233 1.84671L1.95603 0.20294C1.97306 0.110199 2.03904 0.0366447 2.12949 0.00999477C2.21994 -0.0166552 2.31465 0.0110608 2.37849 0.0803506L3.50222 1.31371L5.15377 1.08559C5.24635 1.07279 5.3368 1.1133 5.39 1.19112C5.44321 1.26894 5.44641 1.36808 5.40065 1.45016L4.57701 2.90205L5.30381 4.4051C5.34425 4.48932 5.33467 4.58845 5.27721 4.66307C5.21974 4.73769 5.1261 4.7718 5.03459 4.75262L3.4022 4.41576L2.19972 5.57237C2.15077 5.61821 2.09012 5.64166 2.02839 5.64166ZM0.41303 2.76453L1.7847 3.50007C1.856 3.53845 1.90389 3.6088 1.9124 3.68875L2.08479 5.23765L3.2064 4.15779C3.26492 4.10236 3.3458 4.07784 3.42561 4.0949L4.94946 4.4083L4.2716 3.00545C4.23648 2.93296 4.23967 2.84768 4.27904 2.77732L5.04842 1.42244L3.50754 1.63457C3.42773 1.6463 3.34793 1.61645 3.29259 1.55676L2.24441 0.40548L1.96987 1.93945C1.95603 2.0194 1.90283 2.08656 1.8294 2.1196L0.41303 2.76453Z" fill="#FED9E4"/>
<path d="M57.6433 59.54L57.1016 57.7235C57.0931 57.6937 57.0697 57.6703 57.0399 57.6607L55.2394 57.0776C55.1649 57.053 55.15 56.9539 55.2149 56.9091L56.7717 55.8314C56.7973 55.8133 56.8122 55.7845 56.8122 55.7536L56.809 53.8572C56.809 53.7783 56.8984 53.7335 56.9612 53.7815L58.4648 54.9328C58.4893 54.952 58.5222 54.9573 58.552 54.9477L60.3515 54.3593C60.426 54.3347 60.4962 54.4062 60.4696 54.4808L59.8418 56.2695C59.8311 56.2994 59.8365 56.3314 59.8545 56.3569L60.9698 57.8888C61.0155 57.9527 60.9698 58.0412 60.891 58.0391L58.999 57.9932C58.9681 57.9922 58.9383 58.0071 58.9202 58.0327L57.8103 59.5688C57.7646 59.6317 57.6656 59.6146 57.6433 59.54Z" fill="#FDA4BD"/>
<path d="M14.4779 2.89564L13.9916 2.36904C13.9831 2.36051 13.9714 2.35625 13.9607 2.35838L13.252 2.46072C13.2222 2.46498 13.2009 2.43407 13.2158 2.40742L13.5659 1.78168C13.5712 1.77102 13.5723 1.75929 13.567 1.74863L13.2509 1.10477C13.2382 1.07812 13.2605 1.04827 13.2903 1.0536L13.9926 1.19431C14.0043 1.19644 14.016 1.19325 14.0246 1.18472L14.5375 0.683699C14.5588 0.663445 14.5949 0.676237 14.5981 0.705019L14.6822 1.41711C14.6833 1.42883 14.6907 1.43949 14.7013 1.44482L15.3345 1.77954C15.3611 1.7934 15.36 1.83178 15.3324 1.8435L14.6822 2.14305C14.6716 2.14838 14.6641 2.15797 14.662 2.1697L14.5396 2.87646C14.5343 2.9063 14.4981 2.91696 14.4779 2.89564Z" fill="#F8678F"/>
<path d="M64.599 66.3001L64.3351 65.6829C64.3308 65.6723 64.3213 65.6659 64.3106 65.6637L63.654 65.5316C63.6264 65.5262 63.6179 65.4921 63.6381 65.4729L64.1425 65.0316C64.151 65.0241 64.1553 65.0135 64.1542 65.0028L64.0765 64.3355C64.0733 64.3078 64.1031 64.2886 64.1265 64.3025L64.7022 64.6468C64.7118 64.6521 64.7235 64.6532 64.7331 64.6489L65.3418 64.3696C65.3673 64.3579 65.395 64.3803 65.3886 64.408L65.2396 65.0625C65.2375 65.0732 65.2407 65.0849 65.2481 65.0924L65.7014 65.5859C65.7206 65.6062 65.7078 65.6392 65.6802 65.6424L65.0129 65.7032C65.0023 65.7042 64.9917 65.7106 64.9863 65.7202L64.6575 66.3055C64.6458 66.3268 64.6096 66.3247 64.599 66.3001Z" fill="#F8678F"/>
</g>
</svg>
