<svg id="torch_ic" xmlns="http://www.w3.org/2000/svg" width="39.469" height="39.469" viewBox="0 0 39.469 39.469">
  <path id="_00dc000dc18895e2b3cc572cb2d44c42" data-name="00dc000dc18895e2b3cc572cb2d44c42" d="M17.92,6.82A3.16,3.16,0,0,0,12.7,8.05l-1.87,5.61L3.21,21.28a4,4,0,0,0,0,5.66l1.85,1.85a4,4,0,0,0,5.66,0l7.62-7.62,5.61-1.87a3.16,3.16,0,0,0,1.23-5.22ZM9.3,27.38a2,2,0,0,1-2.83,0L4.62,25.53a2,2,0,0,1,0-2.83l7.08-7.08,1.63,1.63L11,19.59A1,1,0,1,0,12.41,21l2.34-2.34,1.63,1.63Zm14.77-10.8a1.13,1.13,0,0,1-.76.83l-5.25,1.75-5.22-5.22,1.75-5.25a1.15,1.15,0,0,1,1.91-.45l7.26,7.26a1.13,1.13,0,0,1,.31,1.08Zm-.18-7.47a1,1,0,0,0,.71-.29l2.29-2.29a1,1,0,0,0-1.41-1.41L23.18,7.4a1,1,0,0,0,.71,1.71ZM20.25,7.13a1,1,0,0,0,1.22-.71l.84-3.12a1,1,0,0,0-1.93-.52L19.54,5.9a1,1,0,0,0,.71,1.23Zm9.68,3.27a1,1,0,0,0-1.22-.71l-3.12.84a1,1,0,1,0,.52,1.93l3.12-.84A1,1,0,0,0,29.93,10.4Z" transform="translate(-2.906 19.722) rotate(-45)"/>
</svg>
