<svg width="22" height="22" viewBox="0 0 22 22" fill="none" xmlns="http://www.w3.org/2000/svg">
<path d="M0 16.266V1.70899C0.0126588 1.6838 0.022903 1.65747 0.0305974 1.63035C0.212591 0.66664 0.928807 0.0202485 1.9062 0.0129061C4.10457 -0.0040132 6.30302 -0.00429731 8.50157 0.0120545C9.44192 0.0181199 10.1732 0.628705 10.3566 1.54772C10.4616 2.07446 10.5064 2.61343 10.5732 3.1475C10.7683 4.70819 10.9622 6.26898 11.1548 7.82984C11.3449 9.36262 11.5347 10.8954 11.7242 12.4282C11.925 14.0453 12.1259 15.6623 12.3268 17.2793C12.364 17.5836 12.0898 17.968 11.8416 17.9681C8.54393 17.969 5.2462 17.9683 1.94845 17.9662C1.65284 17.972 1.35996 17.9085 1.09331 17.7808C0.82667 17.653 0.593686 17.4646 0.413052 17.2305C0.183218 16.9453 0.0826423 16.611 0 16.266ZM6.67274 9.67533C6.73985 10.0138 6.80418 10.3396 6.86905 10.6653C6.93546 10.9986 6.99953 11.3325 7.06988 11.6649C7.15157 12.0508 7.47964 12.2844 7.82718 12.2107C8.18702 12.1344 8.40014 11.801 8.32415 11.4208C7.90794 9.33792 7.49042 7.25521 7.07159 5.17271C6.98612 4.74803 6.76187 4.56442 6.33424 4.56138C5.95841 4.55872 5.58252 4.55872 5.20657 4.56138C4.7774 4.56415 4.55097 4.7476 4.46588 5.16894C4.16756 6.6473 3.8708 8.12597 3.5756 9.60494C3.4532 10.2158 3.32767 10.8262 3.20921 11.4379C3.1905 11.5212 3.18854 11.6075 3.20345 11.6916C3.21836 11.7756 3.24985 11.8559 3.29608 11.9277C3.34231 11.9996 3.40236 12.0615 3.47274 12.1099C3.54312 12.1583 3.62242 12.1922 3.70603 12.2097C4.03213 12.282 4.35125 12.0787 4.44965 11.7316C4.47663 11.6365 4.49222 11.5382 4.51169 11.4411C4.62948 10.8533 4.74722 10.2648 4.86493 9.67538L6.67274 9.67533Z" fill="#03A9F4"/>
<path d="M20.0941 21.7996H10.3452C10.3796 21.7552 10.4118 21.7088 10.4487 21.6666C11.3168 20.6733 12.1822 19.6777 13.0552 18.6888C13.4575 18.2332 13.6547 17.7063 13.5927 17.1068C13.4996 16.2047 13.3756 15.3057 13.2636 14.4056C13.0718 12.8656 12.8795 11.3256 12.6868 9.78567C12.5086 8.3582 12.3305 6.93073 12.1526 5.50327C12.0862 4.97036 12.021 4.43735 11.9541 3.8946C12.0133 3.88854 12.0545 3.88066 12.0956 3.88066C14.6777 3.88008 17.2598 3.87385 19.8418 3.88902C20.1388 3.89296 20.4313 3.9618 20.6988 4.09072C21.4438 4.45635 21.7897 5.09598 21.795 5.91519C21.8028 7.1918 21.7971 8.46846 21.7971 9.74507C21.7971 13.0856 21.7973 16.4262 21.7977 19.7667C21.798 20.4471 21.5736 21.0314 21.0011 21.4164C20.7337 21.5962 20.3985 21.6751 20.0941 21.7996ZM16.3992 13.7377C16.3163 13.8097 16.2538 13.867 16.1884 13.9206C15.7827 14.2532 15.3725 14.5804 14.9715 14.9184C14.9056 14.9701 14.8506 15.0344 14.8099 15.1076C14.7691 15.1807 14.7433 15.2613 14.7341 15.3445C14.7248 15.4277 14.7323 15.512 14.7559 15.5923C14.7796 15.6726 14.8191 15.7474 14.8721 15.8123C15.0849 16.0815 15.4492 16.1298 15.7489 15.9231C15.8595 15.8468 15.9632 15.76 16.0674 15.6747C16.4721 15.3435 16.8758 15.011 17.2913 14.6691C17.3768 14.7427 17.4542 14.8139 17.5364 14.8791C17.9694 15.2229 18.3985 15.5719 18.8391 15.906C19.1494 16.1411 19.5306 16.0877 19.7472 15.8017C19.9654 15.5135 19.9134 15.1396 19.6124 14.8968C19.3697 14.701 19.117 14.5177 18.873 14.3234C18.6369 14.1353 18.4063 13.9403 18.1669 13.743C18.8402 12.9183 19.3574 12.0379 19.6804 11.048C19.6961 11.0001 19.7921 10.9544 19.8542 10.9495C20.2554 10.9172 20.527 10.654 20.518 10.2918C20.509 9.92852 20.2263 9.67308 19.8231 9.66925C19.4897 9.66622 19.1564 9.66856 18.8231 9.66856H17.923C17.923 9.45936 17.9247 9.27622 17.9226 9.09314C17.918 8.67931 17.6555 8.3928 17.2837 8.39323C16.9118 8.39365 16.6507 8.68022 16.6463 9.09474C16.6442 9.28287 16.6459 9.47101 16.6459 9.66856H16.4035C15.8714 9.66856 15.3397 9.66696 14.8078 9.66909C14.3875 9.67074 14.1014 9.92277 14.0932 10.2932C14.0849 10.6637 14.365 10.9293 14.7802 10.9455C14.8153 10.9469 14.8504 10.9496 14.8995 10.9524C15.2298 11.9627 15.7069 12.8972 16.3992 13.7377Z" fill="#03A9F4"/>
<path d="M5.12354 8.37987C5.29292 7.5314 5.45879 6.69969 5.6279 5.85352H5.90792C6.07538 6.69065 6.24285 7.52784 6.41346 8.37987H5.12354Z" fill="#03A9F4"/>
<path d="M16.2466 10.9521H18.3598C18.1159 11.6359 17.7378 12.221 17.2863 12.7885C16.8412 12.2376 16.4899 11.6172 16.2466 10.9521V10.9521Z" fill="#03A9F4"/>
</svg>
