<svg width="24" height="24" viewBox="0 0 24 24" fill="none" xmlns="http://www.w3.org/2000/svg">
<path d="M0 17.9085V1.88156C0.0139371 1.85383 0.0252157 1.82484 0.0336871 1.79498C0.234058 0.733955 1.0226 0.0222931 2.09868 0.0142093C4.51903 -0.00441844 6.93948 -0.00473124 9.36003 0.0132717C10.3953 0.0199496 11.2005 0.69219 11.4024 1.70401C11.518 2.28393 11.5673 2.87732 11.6409 3.46533C11.8557 5.18361 12.0691 6.902 12.2812 8.62048C12.4904 10.308 12.6994 11.9956 12.9081 13.6831C13.1292 15.4635 13.3503 17.2438 13.5715 19.0241C13.6125 19.3592 13.3106 19.7824 13.0374 19.7825C9.40667 19.7834 5.77595 19.7827 2.1452 19.7803C1.81973 19.7868 1.49728 19.7169 1.20371 19.5763C0.910145 19.4356 0.653634 19.2281 0.45476 18.9704C0.201718 18.6564 0.0909873 18.2883 0 17.9085ZM7.34654 10.6523C7.42042 11.025 7.49125 11.3837 7.56267 11.7423C7.63579 12.1092 7.70632 12.4768 7.78378 12.8428C7.87371 13.2676 8.23491 13.5249 8.61755 13.4437C9.01372 13.3597 9.24836 12.9926 9.1647 12.5741C8.70646 10.2808 8.24678 7.98782 7.78565 5.69504C7.69156 5.22747 7.44467 5.02532 6.97386 5.02198C6.56007 5.01905 6.14622 5.01905 5.73232 5.02198C5.2598 5.02502 5.01051 5.227 4.91683 5.69088C4.58838 7.31853 4.26166 8.94651 3.93665 10.5748C3.8019 11.2474 3.66369 11.9194 3.53327 12.5929C3.51266 12.6846 3.51051 12.7795 3.52692 12.8721C3.54334 12.9647 3.57801 13.0531 3.62891 13.1322C3.67981 13.2112 3.74592 13.2794 3.82341 13.3327C3.90089 13.386 3.9882 13.4233 4.08025 13.4426C4.43928 13.5222 4.79063 13.2983 4.89896 12.9162C4.92866 12.8116 4.94583 12.7032 4.96727 12.5963C5.09695 11.9493 5.22658 11.3013 5.35618 10.6524L7.34654 10.6523Z" fill="#49454F"/>
<path d="M22.1229 24.0005H11.3895C11.4274 23.9516 11.4629 23.9006 11.5035 23.8541C12.4592 22.7605 13.412 21.6643 14.3732 20.5756C14.8161 20.074 15.0332 19.4939 14.9649 18.8339C14.8624 17.8407 14.726 16.8509 14.6026 15.8599C14.3914 14.1644 14.1798 12.4689 13.9676 10.7735C13.7714 9.20186 13.5753 7.63026 13.3794 6.05865C13.3064 5.47193 13.2346 4.8851 13.1609 4.28755C13.2261 4.28087 13.2714 4.2722 13.3167 4.2722C16.1595 4.27155 19.0024 4.2647 21.8451 4.2814C22.172 4.28573 22.4941 4.36153 22.7886 4.50346C23.6089 4.90601 23.9897 5.61024 23.9955 6.51216C24.004 7.91768 23.9978 9.32326 23.9978 10.7288C23.9978 14.4067 23.998 18.0845 23.9985 21.7623C23.9988 22.5114 23.7517 23.1548 23.1215 23.5787C22.8271 23.7766 22.458 23.8634 22.1229 24.0005ZM18.0548 15.1245C17.9636 15.2039 17.8948 15.2669 17.8227 15.326C17.3761 15.6921 16.9245 16.0523 16.483 16.4245C16.4104 16.4814 16.3499 16.5522 16.305 16.6328C16.2601 16.7133 16.2318 16.802 16.2216 16.8936C16.2114 16.9853 16.2196 17.078 16.2457 17.1664C16.2717 17.2549 16.3152 17.3372 16.3735 17.4087C16.6079 17.705 17.0089 17.7582 17.3389 17.5306C17.4607 17.4466 17.5748 17.3511 17.6895 17.2572C18.1351 16.8925 18.5795 16.5264 19.037 16.15C19.1311 16.231 19.2164 16.3094 19.3069 16.3813C19.7836 16.7598 20.256 17.144 20.7411 17.5118C21.0827 17.7706 21.5024 17.7119 21.7409 17.3969C21.9811 17.0797 21.9239 16.668 21.5925 16.4007C21.3253 16.1851 21.047 15.9833 20.7785 15.7694C20.5184 15.5623 20.2646 15.3476 20.0011 15.1304C20.7423 14.2225 21.3118 13.2531 21.6674 12.1633C21.6846 12.1106 21.7904 12.0603 21.8588 12.0548C22.3005 12.0192 22.5994 11.7295 22.5895 11.3307C22.5796 10.9308 22.2684 10.6495 21.8244 10.6453C21.4574 10.642 21.0904 10.6445 20.7235 10.6445H19.7325C19.7325 10.4142 19.7344 10.2126 19.7321 10.011C19.727 9.5554 19.438 9.23996 19.0286 9.24043C18.6193 9.2409 18.3318 9.5564 18.3269 10.0128C18.3246 10.2199 18.3265 10.427 18.3265 10.6445H18.0596C17.4737 10.6445 16.8884 10.6428 16.3028 10.6451C15.84 10.6469 15.525 10.9244 15.516 11.3323C15.5069 11.7402 15.8153 12.0325 16.2724 12.0505C16.311 12.052 16.3496 12.0549 16.4037 12.058C16.7673 13.1704 17.2926 14.1992 18.0548 15.1245Z" fill="#49454F"/>
<path d="M5.64114 9.22555C5.82763 8.29141 6.01025 7.37572 6.19644 6.44409H6.50473C6.68911 7.36576 6.87349 8.28748 7.06132 9.22555H5.64114Z" fill="#49454F"/>
<path d="M17.8869 12.0571H20.2135C19.945 12.8099 19.5287 13.4541 19.0316 14.0789C18.5416 13.4724 18.1548 12.7893 17.8869 12.0571Z" fill="#49454F"/>
</svg>
