<svg width="47" height="8" viewBox="0 0 47 8" fill="none" xmlns="http://www.w3.org/2000/svg">
<path d="M18.7031 4.77356L17.1797 4.76966L17.2891 4.15638L18.7227 4.16028C18.9674 4.16028 19.1914 4.11862 19.3945 4.03528C19.6003 3.95195 19.7695 3.82695 19.9023 3.66028C20.0378 3.49362 20.1211 3.28138 20.1523 3.02356C20.181 2.80221 20.1589 2.61211 20.0859 2.45325C20.0156 2.29179 19.9036 2.16679 19.75 2.07825C19.5964 1.98971 19.4102 1.94153 19.1914 1.93372L17.8477 1.92981L16.9688 7.00013H16.2305L17.2188 1.31263L19.2109 1.31653C19.5495 1.32434 19.8503 1.39596 20.1133 1.53138C20.3789 1.66419 20.582 1.85559 20.7227 2.10559C20.8633 2.35559 20.918 2.65898 20.8867 3.01575C20.8529 3.41679 20.7331 3.74752 20.5273 4.00794C20.3242 4.26836 20.0625 4.46106 19.7422 4.58606C19.4245 4.71106 19.0781 4.77356 18.7031 4.77356Z" fill="#E1A000"/>
<path d="M22.3438 3.46888L21.7305 7.00013H21.0234L21.7578 2.77356H22.4453L22.3438 3.46888ZM23.7148 2.73841L23.6484 3.41809C23.5938 3.40768 23.5378 3.39856 23.4805 3.39075C23.4258 3.38294 23.3711 3.37903 23.3164 3.37903C23.1471 3.37643 22.9948 3.40247 22.8594 3.45716C22.7266 3.50924 22.6081 3.58346 22.5039 3.67981C22.4023 3.77617 22.3151 3.88945 22.2422 4.01966C22.1719 4.14987 22.1159 4.29049 22.0742 4.44153L21.8516 4.55872C21.8802 4.34778 21.9271 4.13164 21.9922 3.91028C22.0599 3.68893 22.1523 3.4845 22.2695 3.297C22.3893 3.1095 22.5391 2.95846 22.7188 2.84388C22.901 2.72929 23.1198 2.67591 23.375 2.68372C23.4323 2.68372 23.4883 2.68893 23.543 2.69934C23.6003 2.70976 23.6576 2.72278 23.7148 2.73841Z" fill="#E1A000"/>
<path d="M25.3672 7.07825C25.0781 7.07304 24.8268 7.01575 24.6133 6.90638C24.4023 6.7944 24.2292 6.64466 24.0938 6.45716C23.9609 6.26705 23.8659 6.05091 23.8086 5.80872C23.7513 5.56653 23.7344 5.31263 23.7578 5.047L23.7734 4.87903C23.7995 4.6082 23.8659 4.34257 23.9727 4.08216C24.0794 3.81914 24.2214 3.58216 24.3984 3.37122C24.5781 3.16028 24.7891 2.99362 25.0312 2.87122C25.276 2.74622 25.5469 2.68763 25.8438 2.69544C26.138 2.70065 26.3828 2.76315 26.5781 2.88294C26.7734 3.00273 26.9258 3.16158 27.0352 3.3595C27.1471 3.55481 27.2201 3.77487 27.2539 4.01966C27.2878 4.26184 27.2904 4.51054 27.2617 4.76575L27.2188 5.08997H24.1523L24.2461 4.50013L26.5859 4.50403L26.5977 4.44153C26.6237 4.25403 26.6133 4.07304 26.5664 3.89856C26.5195 3.72408 26.4336 3.58086 26.3086 3.46888C26.1862 3.35429 26.0208 3.2944 25.8125 3.28919C25.5964 3.28138 25.4089 3.32565 25.25 3.422C25.0911 3.51575 24.9583 3.64336 24.8516 3.80481C24.7448 3.96367 24.6602 4.13815 24.5977 4.32825C24.5378 4.51575 24.4961 4.69934 24.4727 4.87903L24.457 5.04309C24.4414 5.20976 24.4466 5.37773 24.4727 5.547C24.4987 5.71627 24.5482 5.87122 24.6211 6.01184C24.6966 6.14987 24.8008 6.26315 24.9336 6.35169C25.0664 6.43763 25.2305 6.4832 25.4258 6.48841C25.6628 6.49362 25.875 6.44283 26.0625 6.33606C26.2526 6.22669 26.4258 6.08867 26.582 5.922L26.9844 6.26575C26.862 6.44544 26.7161 6.59648 26.5469 6.71888C26.3776 6.84127 26.1927 6.93242 25.9922 6.99231C25.7917 7.05221 25.5833 7.08086 25.3672 7.07825Z" fill="#E1A000"/>
<path d="M28.9766 3.65638L28.3984 7.00013H27.6875L28.4219 2.77356H29.0938L28.9766 3.65638ZM28.6602 4.72669L28.3398 4.71888C28.3763 4.45586 28.4414 4.20195 28.5352 3.95716C28.6289 3.71237 28.7539 3.49362 28.9102 3.30091C29.069 3.1082 29.2604 2.95716 29.4844 2.84778C29.7083 2.73841 29.9674 2.68763 30.2617 2.69544C30.4805 2.70065 30.6654 2.74362 30.8164 2.82434C30.9674 2.90247 31.0885 3.01054 31.1797 3.14856C31.2734 3.28398 31.3359 3.44023 31.3672 3.61731C31.401 3.7944 31.4089 3.9832 31.3906 4.18372L30.918 7.00013H30.2109L30.6797 4.21497C30.7005 4.03789 30.6901 3.88164 30.6484 3.74622C30.6094 3.6108 30.5352 3.50403 30.4258 3.42591C30.3164 3.34518 30.168 3.30221 29.9805 3.297C29.7695 3.29179 29.5859 3.32825 29.4297 3.40638C29.276 3.4845 29.1471 3.59257 29.043 3.73059C28.9414 3.86601 28.8594 4.02096 28.7969 4.19544C28.7344 4.36731 28.6888 4.5444 28.6602 4.72669ZM31.3906 4.32825L30.8828 4.47669C30.9141 4.2345 30.9792 4.00533 31.0781 3.78919C31.1797 3.57304 31.3112 3.38164 31.4727 3.21497C31.6341 3.0483 31.8216 2.91809 32.0352 2.82434C32.2487 2.73059 32.4844 2.68632 32.7422 2.69153C32.9714 2.69674 33.1654 2.73971 33.3242 2.82044C33.4831 2.89856 33.6094 3.00664 33.7031 3.14466C33.7995 3.28268 33.8633 3.44414 33.8945 3.62903C33.9284 3.81132 33.9336 4.00924 33.9102 4.22278L33.4453 7.00013H32.7344L33.2031 4.21106C33.224 4.03138 33.2148 3.87382 33.1758 3.73841C33.1393 3.60299 33.0664 3.49752 32.957 3.422C32.8477 3.34388 32.6966 3.30351 32.5039 3.30091C32.3503 3.2957 32.2096 3.31914 32.082 3.37122C31.9544 3.4233 31.8438 3.49752 31.75 3.59388C31.6562 3.68763 31.5781 3.797 31.5156 3.922C31.4557 4.047 31.4141 4.18242 31.3906 4.32825Z" fill="#E1A000"/>
<path d="M36 2.77356L35.2656 7.00013H34.5586L35.293 2.77356H36ZM35.4336 1.66419C35.4336 1.54179 35.4714 1.44023 35.5469 1.3595C35.625 1.27617 35.7253 1.2332 35.8477 1.23059C35.9701 1.22799 36.0703 1.26575 36.1484 1.34388C36.2292 1.422 36.2682 1.52096 36.2656 1.64075C36.2656 1.76054 36.2253 1.8608 36.1445 1.94153C36.0664 2.01966 35.9674 2.06002 35.8477 2.06263C35.7279 2.06523 35.6289 2.03007 35.5508 1.95716C35.4727 1.88164 35.4336 1.78398 35.4336 1.66419Z" fill="#E1A000"/>
<path d="M39.0781 5.9845L39.6328 2.77356H40.3438L39.6094 7.00013H38.9336L39.0781 5.9845ZM39.3438 5.13294L39.6328 5.12122C39.599 5.38684 39.5391 5.63945 39.4531 5.87903C39.3672 6.11601 39.25 6.32695 39.1016 6.51184C38.9557 6.69414 38.7734 6.83737 38.5547 6.94153C38.3385 7.04309 38.082 7.08997 37.7852 7.08216C37.5534 7.07434 37.3594 7.02747 37.2031 6.94153C37.0495 6.85559 36.9284 6.73971 36.8398 6.59388C36.7513 6.44804 36.6927 6.28138 36.6641 6.09388C36.6354 5.90638 36.6315 5.70846 36.6523 5.50013L37.1094 2.77356H37.8164L37.3594 5.51184C37.349 5.62643 37.3477 5.73971 37.3555 5.85169C37.3633 5.96106 37.3867 6.06132 37.4258 6.15247C37.4648 6.24362 37.5247 6.31783 37.6055 6.37513C37.6888 6.42981 37.7982 6.45976 37.9336 6.46497C38.2148 6.47539 38.4531 6.4233 38.6484 6.30872C38.8438 6.19153 38.9987 6.03007 39.1133 5.82434C39.2279 5.61862 39.3047 5.38815 39.3438 5.13294Z" fill="#E1A000"/>
<path d="M41.9531 3.65638L41.375 7.00013H40.6641L41.3984 2.77356H42.0703L41.9531 3.65638ZM41.6367 4.72669L41.3164 4.71888C41.3529 4.45586 41.418 4.20195 41.5117 3.95716C41.6055 3.71237 41.7305 3.49362 41.8867 3.30091C42.0456 3.1082 42.237 2.95716 42.4609 2.84778C42.6849 2.73841 42.944 2.68763 43.2383 2.69544C43.457 2.70065 43.6419 2.74362 43.793 2.82434C43.944 2.90247 44.0651 3.01054 44.1562 3.14856C44.25 3.28398 44.3125 3.44023 44.3438 3.61731C44.3776 3.7944 44.3854 3.9832 44.3672 4.18372L43.8945 7.00013H43.1875L43.6562 4.21497C43.6771 4.03789 43.6667 3.88164 43.625 3.74622C43.5859 3.6108 43.5117 3.50403 43.4023 3.42591C43.293 3.34518 43.1445 3.30221 42.957 3.297C42.7461 3.29179 42.5625 3.32825 42.4062 3.40638C42.2526 3.4845 42.1237 3.59257 42.0195 3.73059C41.918 3.86601 41.8359 4.02096 41.7734 4.19544C41.7109 4.36731 41.6654 4.5444 41.6367 4.72669ZM44.3672 4.32825L43.8594 4.47669C43.8906 4.2345 43.9557 4.00533 44.0547 3.78919C44.1562 3.57304 44.2878 3.38164 44.4492 3.21497C44.6107 3.0483 44.7982 2.91809 45.0117 2.82434C45.2253 2.73059 45.4609 2.68632 45.7188 2.69153C45.9479 2.69674 46.1419 2.73971 46.3008 2.82044C46.4596 2.89856 46.5859 3.00664 46.6797 3.14466C46.776 3.28268 46.8398 3.44414 46.8711 3.62903C46.9049 3.81132 46.9102 4.00924 46.8867 4.22278L46.4219 7.00013H45.7109L46.1797 4.21106C46.2005 4.03138 46.1914 3.87382 46.1523 3.73841C46.1159 3.60299 46.043 3.49752 45.9336 3.422C45.8242 3.34388 45.6732 3.30351 45.4805 3.30091C45.3268 3.2957 45.1862 3.31914 45.0586 3.37122C44.931 3.4233 44.8203 3.49752 44.7266 3.59388C44.6328 3.68763 44.5547 3.797 44.4922 3.922C44.4323 4.047 44.3906 4.18242 44.3672 4.32825Z" fill="#E1A000"/>
<g clip-path="url(#clip0_933_4344)">
<path d="M9.60323 4.22376L9.99582 0.585824C10.0482 0.193147 9.60323 -0.0424229 9.28929 0.219162L7.32618 1.84202C7.1168 1.99906 6.80271 1.94671 6.67185 1.71117L5.80816 0.193147C5.65111 -0.0685874 5.23236 -0.0685874 5.04915 0.219312L4.18542 1.73733C4.05457 1.9729 3.74039 2.02523 3.5311 1.86818L1.56814 0.245476C1.28024 0.00990613 0.835291 0.245476 0.861455 0.611899L1.25404 4.24984C1.28021 4.45921 1.46342 4.64243 1.67282 4.64243H9.13209C9.39383 4.61635 9.57704 4.4593 9.60323 4.22376ZM1.41112 6.21298V6.68409C1.4104 6.73929 1.42073 6.79407 1.44152 6.8452C1.46231 6.89634 1.49313 6.94279 1.53217 6.98183C1.5712 7.02086 1.61765 7.05168 1.66879 7.07247C1.71992 7.09326 1.7747 7.1036 1.8299 7.10287H8.97508C9.03027 7.10359 9.08505 7.09325 9.13618 7.07246C9.18731 7.05167 9.23376 7.02085 9.27279 6.98181C9.31182 6.94278 9.34264 6.89633 9.36342 6.8452C9.38421 6.79406 9.39455 6.73928 9.39383 6.68409V6.21289C9.39455 6.1577 9.38421 6.10292 9.36342 6.05179C9.34264 6.00065 9.31182 5.9542 9.27279 5.91517C9.23376 5.87614 9.18731 5.84532 9.13618 5.82453C9.08505 5.80373 9.03027 5.79339 8.97508 5.79411H1.85603C1.62049 5.76795 1.41112 5.97735 1.41112 6.21289V6.21298Z" fill="#E1A000"/>
</g>
<defs>
<clipPath id="clip0_933_4344">
<rect width="9.13968" height="7.10279" fill="white" transform="translate(0.860352)"/>
</clipPath>
</defs>
</svg>
