<svg width="40" height="9" viewBox="0 0 40 9" fill="none" xmlns="http://www.w3.org/2000/svg">
<path d="M15.1914 7.10188L17.5547 2.31282H18.3789L15.4453 8.00032H14.8555L15.1914 7.10188ZM14.4141 2.31282L15.2773 7.16829L15.3398 8.00032H14.793L13.6445 2.31282H14.4141Z" fill="#A8A8A8"/>
<path d="M19.6875 8.07844C19.3984 8.07324 19.1471 8.01594 18.9336 7.90657C18.7227 7.79459 18.5495 7.64485 18.4141 7.45735C18.2812 7.26725 18.1862 7.0511 18.1289 6.80891C18.0716 6.56673 18.0547 6.31282 18.0781 6.04719L18.0938 5.87923C18.1198 5.60839 18.1862 5.34277 18.293 5.08235C18.3997 4.81933 18.5417 4.58235 18.7188 4.37141C18.8984 4.16048 19.1094 3.99381 19.3516 3.87141C19.5964 3.74641 19.8672 3.68782 20.1641 3.69563C20.4583 3.70084 20.7031 3.76334 20.8984 3.88313C21.0938 4.00292 21.2461 4.16178 21.3555 4.35969C21.4674 4.55501 21.5404 4.77506 21.5742 5.01985C21.6081 5.26204 21.6107 5.51074 21.582 5.76594L21.5391 6.09016H18.4727L18.5664 5.50032L20.9062 5.50423L20.918 5.44173C20.944 5.25423 20.9336 5.07324 20.8867 4.89876C20.8398 4.72428 20.7539 4.58105 20.6289 4.46907C20.5065 4.35449 20.3411 4.29459 20.1328 4.28938C19.9167 4.28157 19.7292 4.32584 19.5703 4.42219C19.4115 4.51594 19.2786 4.64355 19.1719 4.80501C19.0651 4.96386 18.9805 5.13834 18.918 5.32844C18.8581 5.51594 18.8164 5.69954 18.793 5.87923L18.7773 6.04329C18.7617 6.20995 18.7669 6.37792 18.793 6.54719C18.819 6.71646 18.8685 6.87141 18.9414 7.01204C19.0169 7.15006 19.1211 7.26334 19.2539 7.35188C19.3867 7.43782 19.5508 7.48339 19.7461 7.4886C19.9831 7.49381 20.1953 7.44303 20.3828 7.33626C20.5729 7.22688 20.7461 7.08886 20.9023 6.92219L21.3047 7.26594C21.1823 7.44563 21.0365 7.59667 20.8672 7.71907C20.6979 7.84146 20.513 7.93261 20.3125 7.99251C20.112 8.0524 19.9036 8.08105 19.6875 8.07844Z" fill="#A8A8A8"/>
<path d="M23.3359 4.46907L22.7227 8.00032H22.0156L22.75 3.77376H23.4375L23.3359 4.46907ZM24.707 3.7386L24.6406 4.41829C24.5859 4.40787 24.5299 4.39876 24.4727 4.39094C24.418 4.38313 24.3633 4.37923 24.3086 4.37923C24.1393 4.37662 23.987 4.40266 23.8516 4.45735C23.7188 4.50943 23.6003 4.58365 23.4961 4.68001C23.3945 4.77636 23.3073 4.88964 23.2344 5.01985C23.1641 5.15006 23.1081 5.29068 23.0664 5.44173L22.8438 5.55891C22.8724 5.34798 22.9193 5.13183 22.9844 4.91048C23.0521 4.68912 23.1445 4.48469 23.2617 4.29719C23.3815 4.10969 23.5312 3.95865 23.7109 3.84407C23.8932 3.72949 24.112 3.6761 24.3672 3.68391C24.4245 3.68391 24.4805 3.68912 24.5352 3.69954C24.5924 3.70995 24.6497 3.72298 24.707 3.7386Z" fill="#A8A8A8"/>
<path d="M26.1484 3.77376L25.4141 8.00032H24.707L25.4414 3.77376H26.1484ZM25.582 2.66438C25.582 2.54199 25.6198 2.44042 25.6953 2.35969C25.7734 2.27636 25.8737 2.23339 25.9961 2.23079C26.1185 2.22818 26.2188 2.26594 26.2969 2.34407C26.3776 2.42219 26.4167 2.52115 26.4141 2.64094C26.4141 2.76074 26.3737 2.861 26.293 2.94173C26.2148 3.01985 26.1159 3.06021 25.9961 3.06282C25.8763 3.06542 25.7773 3.03027 25.6992 2.95735C25.6211 2.88183 25.582 2.78417 25.582 2.66438Z" fill="#A8A8A8"/>
<path d="M27.4805 8.00032H26.7734L27.5586 3.41048C27.6003 3.10058 27.6953 2.83235 27.8438 2.60579C27.9922 2.37923 28.1862 2.20605 28.4258 2.08626C28.668 1.96386 28.9479 1.90527 29.2656 1.91048C29.4505 1.91568 29.6315 1.94303 29.8086 1.99251C29.9883 2.03938 30.1654 2.09146 30.3398 2.14876L30.168 2.76594C30.0299 2.70344 29.8867 2.65266 29.7383 2.6136C29.5924 2.57454 29.444 2.55501 29.293 2.55501C29.0039 2.5498 28.7708 2.62011 28.5938 2.76594C28.4193 2.90917 28.3099 3.12271 28.2656 3.40657L27.4805 8.00032ZM29.0547 3.77376L28.9531 4.32844H26.7617L26.8633 3.77376H29.0547ZM30.4336 3.77376L29.6992 8.00032H28.9922L29.7266 3.77376H30.4336Z" fill="#A8A8A8"/>
<path d="M32.6328 8.07844C32.3438 8.07324 32.0924 8.01594 31.8789 7.90657C31.668 7.79459 31.4948 7.64485 31.3594 7.45735C31.2266 7.26725 31.1315 7.0511 31.0742 6.80891C31.0169 6.56673 31 6.31282 31.0234 6.04719L31.0391 5.87923C31.0651 5.60839 31.1315 5.34277 31.2383 5.08235C31.3451 4.81933 31.487 4.58235 31.6641 4.37141C31.8438 4.16048 32.0547 3.99381 32.2969 3.87141C32.5417 3.74641 32.8125 3.68782 33.1094 3.69563C33.4036 3.70084 33.6484 3.76334 33.8438 3.88313C34.0391 4.00292 34.1914 4.16178 34.3008 4.35969C34.4128 4.55501 34.4857 4.77506 34.5195 5.01985C34.5534 5.26204 34.556 5.51074 34.5273 5.76594L34.4844 6.09016H31.418L31.5117 5.50032L33.8516 5.50423L33.8633 5.44173C33.8893 5.25423 33.8789 5.07324 33.832 4.89876C33.7852 4.72428 33.6992 4.58105 33.5742 4.46907C33.4518 4.35449 33.2865 4.29459 33.0781 4.28938C32.862 4.28157 32.6745 4.32584 32.5156 4.42219C32.3568 4.51594 32.224 4.64355 32.1172 4.80501C32.0104 4.96386 31.9258 5.13834 31.8633 5.32844C31.8034 5.51594 31.7617 5.69954 31.7383 5.87923L31.7227 6.04329C31.707 6.20995 31.7122 6.37792 31.7383 6.54719C31.7643 6.71646 31.8138 6.87141 31.8867 7.01204C31.9622 7.15006 32.0664 7.26334 32.1992 7.35188C32.332 7.43782 32.4961 7.48339 32.6914 7.4886C32.9284 7.49381 33.1406 7.44303 33.3281 7.33626C33.5182 7.22688 33.6914 7.08886 33.8477 6.92219L34.25 7.26594C34.1276 7.44563 33.9818 7.59667 33.8125 7.71907C33.6432 7.84146 33.4583 7.93261 33.2578 7.99251C33.0573 8.0524 32.849 8.08105 32.6328 8.07844Z" fill="#A8A8A8"/>
<path d="M37.6953 7.13704L38.5859 2.00032H39.2969L38.2539 8.00032H37.6094L37.6953 7.13704ZM35.1484 5.96516L35.1562 5.88313C35.1901 5.62271 35.2526 5.3623 35.3438 5.10188C35.4375 4.84146 35.5638 4.60318 35.7227 4.38704C35.8815 4.17089 36.0742 3.99902 36.3008 3.87141C36.5273 3.74381 36.7917 3.68391 37.0938 3.69173C37.3646 3.69954 37.5911 3.76334 37.7734 3.88313C37.9557 4.00292 38.099 4.16178 38.2031 4.35969C38.3099 4.55501 38.3815 4.76985 38.418 5.00423C38.457 5.2386 38.4688 5.47428 38.4531 5.71126L38.4102 6.07063C38.3659 6.32324 38.293 6.57063 38.1914 6.81282C38.0898 7.05501 37.9583 7.27376 37.7969 7.46907C37.638 7.66178 37.4466 7.81412 37.2227 7.9261C37.0013 8.03808 36.7474 8.09016 36.4609 8.08235C36.1849 8.07193 35.9557 8.00032 35.7734 7.86751C35.5938 7.73469 35.4531 7.56412 35.3516 7.35579C35.2526 7.14485 35.1875 6.91829 35.1562 6.6761C35.1276 6.43131 35.125 6.19433 35.1484 5.96516ZM35.875 5.87532L35.8672 5.95735C35.849 6.1136 35.8424 6.27896 35.8477 6.45344C35.8555 6.62532 35.8854 6.78808 35.9375 6.94173C35.9896 7.09277 36.0742 7.21777 36.1914 7.31673C36.3086 7.41308 36.4674 7.46516 36.668 7.47298C36.8815 7.47818 37.0794 7.43001 37.2617 7.32844C37.444 7.22688 37.6003 7.09146 37.7305 6.92219C37.8607 6.75292 37.9544 6.56933 38.0117 6.37141L38.1641 5.42219C38.1719 5.27896 38.1549 5.14225 38.1133 5.01204C38.0716 4.87923 38.0091 4.76074 37.9258 4.65657C37.8451 4.5524 37.7448 4.46907 37.625 4.40657C37.5078 4.34146 37.3763 4.30761 37.2305 4.30501C37.0117 4.29719 36.8229 4.34016 36.6641 4.43391C36.5052 4.52506 36.3711 4.64876 36.2617 4.80501C36.1549 4.95865 36.0703 5.12923 36.0078 5.31673C35.9453 5.50423 35.901 5.69042 35.875 5.87532Z" fill="#A8A8A8"/>
<g clip-path="url(#clip0_916_4006)">
<path d="M3.99309 0.000553464L3.78686 0.239511C2.91255 1.25235 1.69886 1.73054 0.250893 1.91277L0 1.94404V2.20527C0 3.72647 0.31204 5.20228 0.95771 6.41159C1.60338 7.62091 2.59367 8.56553 3.91827 8.97288L4.00342 8.99945L4.08803 8.96942C6.64684 8.11626 8 5.33677 8 2.20472V1.9695L7.77754 1.91623C6.36953 1.58166 5.07028 1.17459 4.20738 0.234115L3.99309 0V0.000553464ZM4.0065 0.78481C4.93176 1.6763 6.14653 2.10551 7.40475 2.41573C7.34508 5.23451 6.14962 7.58673 3.99765 8.3602C2.87715 7.98592 2.03088 7.19931 1.45882 6.12739C0.901121 5.0837 0.624617 3.77946 0.594847 2.42334C1.9177 2.21579 3.09881 1.72763 4.00624 0.78481H4.0065ZM5.52567 3.30902L3.44169 5.19162L2.48747 4.20812L2.08344 4.62501L3.41487 5.99885L5.90288 3.75289L5.5258 3.31012L5.52567 3.30902Z" fill="#A8A8A8"/>
</g>
<defs>
<clipPath id="clip0_916_4006">
<rect width="8" height="9" fill="white"/>
</clipPath>
</defs>
</svg>
