<svg width="12" height="21" viewBox="0 0 12 21" fill="none" xmlns="http://www.w3.org/2000/svg">
<path d="M11.2243 10.1387C11.0244 10.1387 10.8622 10.3005 10.8622 10.5007V12.6732C10.8622 15.4684 8.58838 17.7422 5.79317 17.7422C2.99797 17.7422 0.724146 15.4684 0.724146 12.6732V10.5007C0.724146 10.3005 0.561938 10.1387 0.362073 10.1387C0.162209 10.1387 0 10.3005 0 10.5007V12.6732C0 15.7454 2.40561 18.2596 5.4311 18.4479V20.2767H3.62073C3.42087 20.2767 3.25866 20.4386 3.25866 20.6388C3.25866 20.839 3.42087 21.0009 3.62073 21.0009H7.96561C8.16547 21.0009 8.32768 20.839 8.32768 20.6388C8.32768 20.4386 8.16547 20.2767 7.96561 20.2767H6.15524V18.4479C9.18073 18.2596 11.5863 15.745 11.5863 12.6732V10.5007C11.5863 10.3005 11.4241 10.1387 11.2243 10.1387Z" fill="#9D9D9D"/>
<path d="M5.79286 16.6554C7.98884 16.6554 9.77567 14.8685 9.77567 12.6726V3.9828C9.77567 1.78683 7.98884 0 5.79286 0C3.59689 0 1.81006 1.78683 1.81006 3.9828V12.6726C1.81006 14.8685 3.59689 16.6554 5.79286 16.6554Z" fill="#9D9D9D"/>
</svg>
