<svg width="24" height="24" viewBox="0 0 24 24" fill="none" xmlns="http://www.w3.org/2000/svg">
<mask id="mask0_747_3823" style="mask-type:alpha" maskUnits="userSpaceOnUse" x="0" y="0" width="24" height="24">
<rect width="24" height="24" fill="#C4C4C4"/>
</mask>
<g mask="url(#mask0_747_3823)">
</g>
<path d="M18.2069 11.5862C17.9785 11.5862 17.7931 11.7711 17.7931 12V14.4827C17.7931 17.6772 15.1945 20.2758 12 20.2758C8.80554 20.2758 6.20692 17.6772 6.20692 14.4827V12C6.20692 11.7711 6.02154 11.5862 5.79313 11.5862C5.56471 11.5862 5.37933 11.7711 5.37933 12V14.4827C5.37933 17.9938 8.12858 20.8671 11.5862 21.0823V23.1724H9.51726C9.28885 23.1724 9.10347 23.3574 9.10347 23.5862C9.10347 23.815 9.28885 24 9.51726 24H14.4828C14.7112 24 14.8966 23.815 14.8966 23.5862C14.8966 23.3574 14.7112 23.1724 14.4828 23.1724H12.4138V21.0823C15.8715 20.8671 18.6207 17.9934 18.6207 14.4827V12C18.6207 11.7711 18.4353 11.5862 18.2069 11.5862Z" fill="#49454F"/>
<path d="M12 19.0345C14.5097 19.0345 16.5518 16.9924 16.5518 14.4828V4.55172C16.5518 2.04207 14.5097 0 12 0C9.49037 0 7.4483 2.04207 7.4483 4.55172V14.4828C7.4483 16.9924 9.49037 19.0345 12 19.0345Z" fill="#49454F"/>
</svg>
